
<svg width="20px" height="13px" viewBox="0 0 20 13" version="1.1" xmlns="http://www.w3.org/2000/svg" xmlns:xlink="http://www.w3.org/1999/xlink">
    <!-- Generator: Sketch 3.7.2 (28276) - http://www.bohemiancoding.com/sketch -->
    <desc>Created with Sketch.</desc>
    <defs></defs>
    <path d="M10.0827815,0 C3.92685558,0 0.766291391,6.5 0.766291391,6.5 C0.766291391,6.5 3.151257,13 10.0827815,13 C16.3597007,13 19.3984959,6.5251875 19.3984959,6.5251875 C19.3984959,6.5251875 16.3356572,0 10.0827815,0 L10.0827815,0 Z M10.0967422,10.5625 C7.84595517,10.5625 6.21874936,8.78475 6.21874936,6.5 C6.21874936,4.2144375 7.84595517,2.4375 10.0967422,2.4375 C12.3475293,2.4375 13.9747351,4.2144375 13.9747351,6.5 C13.9747351,8.78475 12.3475293,10.5625 10.0967422,10.5625 L10.0967422,10.5625 Z M10.0967422,4.0625 C8.8107998,4.0649375 7.76994651,5.1943125 7.76994651,6.5 C7.76994651,7.804875 8.8107998,8.9375 10.0967422,8.9375 C11.3826847,8.9375 12.423538,7.8040625 12.423538,6.5 C12.423538,5.1935 11.3826847,4.0600625 10.0967422,4.0625 L10.0967422,4.0625 Z" id="Shape" stroke="none" fill="#FFFFFF" fill-rule="evenodd"></path>
</svg>