
<svg width="22px" height="23px" viewBox="0 0 22 23" version="1.1" xmlns="http://www.w3.org/2000/svg" xmlns:xlink="http://www.w3.org/1999/xlink">
    <!-- Generator: Sketch 3.7.2 (28276) - http://www.bohemiancoding.com/sketch -->
    <desc>Created with Sketch.</desc>
    <defs></defs>
    <g id="facebook_icon" stroke="none" stroke-width="1" fill="none" fill-rule="evenodd">
        <path d="M21.999957,18.5625 C21.999957,20.4609883 20.4609883,22 18.562457,22 L3.4375,22 C1.53901172,22 0,20.4609883 0,18.5625 L0,3.4375 C0,1.53901172 1.53901172,0 3.4375,0 L18.562457,0 C20.4609883,0 21.999957,1.53901172 21.999957,3.4375 L21.999957,18.5625 L21.999957,18.5625 Z" id="Shape" fill="#000000"></path>
        <path d="M14.4061758,22 L14.4061758,13.480457 L17.265875,13.480457 L17.6940586,10.1601758 L14.4061758,10.1601758 L14.4061758,8.0403125 C14.4061758,7.07901563 14.6730547,6.42391406 16.0516641,6.42391406 L17.8098164,6.42309766 L17.8098164,3.45352734 C17.5057266,3.41313672 16.4620586,3.32273047 15.2478477,3.32273047 C12.7129492,3.32273047 10.9774844,4.87003516 10.9774844,7.71160156 L10.9774844,10.1601758 L8.1104375,10.1601758 L8.1104375,13.480457 L10.9774844,13.480457 L10.9774844,22 L14.4061758,22 L14.4061758,22 Z" id="f" fill="#FFFFFF"></path>
    </g>
</svg>