
<svg width="27px" height="24px" viewBox="156 57 27 24" version="1.1" xmlns="http://www.w3.org/2000/svg" xmlns:xlink="http://www.w3.org/1999/xlink">
    <!-- Generator: Sketch 3.7.2 (28276) - http://www.bohemiancoding.com/sketch -->
    <desc>Created with Sketch.</desc>
    <defs></defs>
    <g id="Facebook_quote" stroke="none" stroke-width="1" fill="none" fill-rule="evenodd" transform="translate(157.000000, 57.000000)">
        <path d="M1.92,2.00494659 C1.92,0.897645164 2.81702623,0 3.92494659,0 L23.9150534,0 C25.0223548,0 25.92,0.897026226 25.92,2.00494659 L25.92,21.9950534 C25.92,23.1023548 25.0229738,24 23.9150534,24 L3.92494659,24 C2.81764516,24 1.92,23.1029738 1.92,21.9950534 L1.92,2.00494659 Z M2.28588395e-16,12.48 L1.92,10.56 L1.92,14.4 L2.28588395e-16,12.48 Z" id="Combined-Shape" fill="#D1D6D9"></path>
        <path d="M15.6243855,7.30354782 L15.3379384,7.30354782 C15.0667535,7.30354782 14.763759,7.65891177 14.763759,8.13427705 L14.763759,9.78453538 L17.6325676,9.78453538 L17.6325676,12.1365615 L14.763759,12.1365615 L14.763759,19.2 L12.055605,19.2 L12.055605,12.1365615 L9.6,12.1365615 L9.6,9.78453538 L12.055605,9.78453538 L12.055605,8.40004 C12.055605,6.41489794 13.4390015,4.8 15.3380991,4.8 L17.6327282,4.8 L17.6327282,7.30354782 L15.6243855,7.30354782 Z" id="Facebook" fill="#FFFFFF"></path>
    </g>
</svg>