<svg width="161" height="130" viewBox="0 0 161 130" xmlns="http://www.w3.org/2000/svg"><title>icons</title><desc>Created with Sketch.</desc><g fill="none" fill-rule="evenodd"><g><g><path d="M10.574 12L6 7.427 1.427 12 0 10.574 4.573 6 0 1.425 1.426 0 6 4.573 10.575 0 12 1.426 7.427 6 12 10.573 10.574 12z" fill="#fff"/><path d="M10.574 24L6 19.427 1.427 24 0 22.574 4.573 18 0 13.425 1.426 12 6 16.573 10.575 12 12 13.426 7.427 18 12 22.573 10.574 24z" fill="#C0C0C0"/></g><path d="M12 49V0l42 24.5L12 49z" id="path-1" fill="#fff"/><g><g fill="#000"><path d="M60 53c9.374 0 17 7.626 17 17 0 9.374-7.626 17-17 17-9.374 0-17-7.626-17-17 0-9.374 7.626-17 17-17zm0-3c-11.046 0-20 8.954-20 20s8.954 20 20 20 20-8.954 20-20-8.954-20-20-20zM64.096 64.904c-2.538-2.54-6.653-2.54-9.19 0-2.54 2.538-2.54 6.653 0 9.19 2.265 2.268 5.786 2.505 8.322.724l3.962 3.962 2.12-2.12-4.084-4.086c1.322-2.46.947-5.593-1.13-7.67zm-2.12 7.07c-1.365 1.365-3.585 1.365-4.95 0-1.364-1.363-1.364-3.583 0-4.948 1.365-1.364 3.585-1.364 4.95 0 1.363 1.364 1.363 3.584 0 4.95z" id="Shape"/></g><g fill="#BEBEBE"><path d="M20 53c9.374 0 17 7.626 17 17 0 9.374-7.626 17-17 17-9.374 0-17-7.626-17-17 0-9.374 7.626-17 17-17zm0-3C8.954 50 0 58.954 0 70s8.954 20 20 20 20-8.954 20-20-8.954-20-20-20zM24.096 64.904c-2.538-2.54-6.653-2.54-9.19 0-2.54 2.538-2.54 6.653 0 9.19 2.265 2.268 5.786 2.505 8.322.724l3.962 3.962 2.12-2.12-4.084-4.086c1.322-2.46.947-5.593-1.13-7.67zm-2.12 7.07c-1.365 1.365-3.585 1.365-4.95 0-1.364-1.363-1.364-3.583 0-4.948 1.365-1.364 3.585-1.364 4.95 0 1.363 1.364 1.363 3.584 0 4.95z" id="Shape"/></g><g fill="#fff"><path d="M140 53c9.374 0 17 7.626 17 17 0 9.374-7.626 17-17 17-9.374 0-17-7.626-17-17 0-9.374 7.626-17 17-17zm0-3c-11.046 0-20 8.954-20 20s8.954 20 20 20 20-8.954 20-20-8.954-20-20-20zM144.096 64.904c-2.538-2.54-6.653-2.54-9.19 0-2.54 2.538-2.54 6.653 0 9.19 2.265 2.268 5.786 2.505 8.322.724l3.962 3.962 2.12-2.12-4.084-4.086c1.322-2.46.947-5.593-1.13-7.67zm-2.12 7.07c-1.365 1.365-3.585 1.365-4.95 0-1.364-1.363-1.364-3.583 0-4.948 1.365-1.364 3.585-1.364 4.95 0 1.363 1.364 1.363 3.584 0 4.95z" id="Shape"/></g></g><path d="M61.693 46l-5.386-5.6L54 38l2.307-2.4 5.386-5.6L64 32.4 58.615 38 64 43.6 61.693 46z" id="path-1" fill="#000"/><g transform="translate(42 92)"><circle stroke="#FEE078" stroke-width="3" cx="18" cy="18" r="18"/><path d="M25 12.75L19.75 18 25 23.25 23.25 25 18 19.75 12.75 25 11 23.25 16.25 18 11 12.75 12.75 11 18 16.25 23.25 11 25 12.75z" fill="#FEE078"/></g><path d="M150.88 33.05l4.948 4.95-4.95 4.95L153 45.07l7.07-7.07-7.07-7.07-2.12 2.12z" id="Shape" fill="#000"/><g fill="#BEBEBE"><path d="M20 93c9.374 0 17 7.626 17 17 0 9.374-7.626 17-17 17-9.374 0-17-7.626-17-17 0-9.374 7.626-17 17-17zm0-3C8.954 90 0 98.954 0 110s8.954 20 20 20 20-8.954 20-20-8.954-20-20-20z" id="Shape"/><g><path d="M11 109h18v3H11zM11 115h18v3H11zM11 103h18v3H11z"/></g></g><g fill="#FF7070"><path d="M100 53c9.374 0 17 7.626 17 17 0 9.374-7.626 17-17 17-9.374 0-17-7.626-17-17 0-9.374 7.626-17 17-17zm0-3c-11.046 0-20 8.954-20 20s8.954 20 20 20 20-8.954 20-20-8.954-20-20-20zM105.657 66.464l-2.122-2.12L100 67.877l-3.536-3.535-2.12 2.12L97.878 70l-3.537 3.535 2.12 2.122L100 72.12l3.535 3.537 2.122-2.122L102.12 70l3.537-3.536z" id="Shape"/></g><g transform="translate(54)"><ellipse id="Oval" fill="#C0C0C0" cx="15" cy="15" rx="15" ry="15"/><path d="M15.672 9.343l-1.414 1.415L17.5 14H9v2h8.5l-3.242 3.242 1.414 1.415L21.328 15l-5.656-5.657z" id="Shape" fill="#fff"/></g><g transform="translate(84)"><ellipse fill="#000" cx="15" cy="15" rx="15" ry="15"/><path d="M15.672 9.343l-1.414 1.415L17.5 14H9v2h8.5l-3.242 3.242 1.414 1.415L21.328 15l-5.656-5.657z" fill="#fff"/></g></g></g></svg>