<?xml version="1.0" encoding="UTF-8" standalone="no"?>
<svg width="50px" height="50px" viewBox="0 0 50 50" version="1.1" xmlns="http://www.w3.org/2000/svg" xmlns:xlink="http://www.w3.org/1999/xlink">
    <!-- Generator: Sketch 3.7.1 (28215) - http://www.bohemiancoding.com/sketch -->
    <title>Oval-50</title>
    <desc>Created with Sketch.</desc>
    <defs></defs>
    <g id="Symbols" stroke="none" stroke-width="1" fill="none" fill-rule="evenodd">
        <g id="Oval-50">
            <circle fill="#E62A13" cx="25" cy="25" r="25"></circle>
            <path d="M32.3769006,33.950914 C33.1072826,33.794917 33.7041017,33.181725 33.8468582,32.442347 C33.8621809,32.362421 33.8734176,32.281211 33.8864419,32.201028 L33.8864419,17.798972 C33.8739283,17.720074 33.8632024,17.640919 33.8478797,17.562279 C33.6913328,16.755568 33.0301584,16.129526 32.2183107,16.017733 C32.1846008,16.013364 32.151657,16.005911 32.1184578,16 L17.7679841,16 C17.6814108,16.015677 17.5943268,16.027499 17.5090305,16.04703 C16.7165916,16.228726 16.1302429,16.870959 16.0173657,17.678955 C16.0127689,17.712621 16.0058737,17.746031 16,17.779697 L16,32.221074 C16.0163442,32.312564 16.0293685,32.404826 16.0497988,32.495802 C16.2249883,33.275528 16.8864181,33.879983 17.6732387,33.981753 C17.7112901,33.986379 17.7495968,33.993832 17.7876482,34 L32.0987936,34 C32.1917513,33.984066 32.2849644,33.970959 32.3769006,33.950914 L32.3769006,33.950914 Z M17.9350015,23.347002 C17.9350015,26.010765 17.9347461,28.674529 17.9352569,31.338292 C17.9352569,31.721473 18.2649503,32.050942 18.6457194,32.050942 C22.8431173,32.051199 27.04026,32.051199 31.237658,32.050942 C31.6220023,32.050942 31.9499081,31.721987 31.9499081,31.335979 C31.9501635,28.6753 31.9499081,26.014877 31.9499081,23.354455 L31.9499081,23.2992 L30.2424487,23.2992 C30.4835258,24.074557 30.5575855,24.863278 30.4630955,25.667162 C30.3680948,26.471302 30.1106735,27.219674 29.6913423,27.910737 C29.2717557,28.60257 28.7277999,29.175671 28.0617732,29.631839 C26.3354158,30.815049 24.0625488,30.919132 22.2307201,29.884466 C21.3047184,29.361993 20.5776563,28.633409 20.0707304,27.694603 C19.3145552,26.293718 19.1937612,24.823444 19.6373534,23.297915 C19.0709242,23.298429 18.5067935,23.298429 17.9350015,23.298429 L17.9350015,23.347002 L17.9350015,23.347002 Z M21.3190196,24.944746 C21.2904172,26.985551 22.9138571,28.603341 24.8600953,28.645488 C26.8852453,28.689178 28.5232418,27.060851 28.56589,25.08044 C28.6095597,23.038093 26.9725847,21.351171 24.9433486,21.352456 C22.9595699,21.351171 21.3468558,22.957396 21.3190196,24.944746 L21.3190196,24.944746 Z M31.2624297,20.616419 C31.6411557,20.60691 31.9496527,20.280268 31.9496527,19.898629 C31.9499081,19.330411 31.9499081,18.761936 31.9496527,18.193718 C31.9496527,17.786122 31.6291529,17.461793 31.2246337,17.461536 C30.6615245,17.461279 30.0984153,17.461022 29.5350507,17.461536 C29.131553,17.46205 28.8100317,17.78715 28.8097763,18.194746 C28.8095209,18.758081 28.8079887,19.321416 28.8118193,19.885009 C28.8123301,19.969046 28.8281636,20.056425 28.8547229,20.136094 C28.9558527,20.436008 29.2288521,20.620017 29.5631423,20.621559 C29.8348649,20.622073 30.1065874,20.621302 30.3785653,20.621302 C30.6727611,20.617961 30.9679785,20.623615 31.2624297,20.616419 L31.2624297,20.616419 Z" id="Path" fill="#FFFFFF"></path>
        </g>
    </g>
</svg>