
<svg width="22px" height="22px" viewBox="1 0 22 22" version="1.1" xmlns="http://www.w3.org/2000/svg" xmlns:xlink="http://www.w3.org/1999/xlink">
    <!-- Generator: Sketch 3.7.2 (28276) - http://www.bohemiancoding.com/sketch -->
    <desc>Created with Sketch.</desc>
    <defs></defs>
    <path d="M21.0162119,21.9400057 C21.908901,21.7493432 22.6383466,20.9998858 22.8128267,20.0962022 C22.8315544,19.9985151 22.8452881,19.8992576 22.8612067,19.8012564 L22.8612067,2.19874358 C22.8459124,2.10231296 22.832803,2.00556825 22.8140752,1.90945174 C22.6227401,0.923472302 21.814638,0.158309537 20.8223797,0.0216733295 C20.7811787,0.0163335237 20.7409141,0.00722444318 20.7003373,0 L3.16086943,0 C3.05505768,0.0191604797 2.94862167,0.0336093661 2.84437057,0.0574814392 C1.87583412,0.27955454 1.15918582,1.064506 1.02122478,2.05205597 C1.01560645,2.09320388 1.00717897,2.13403769 1,2.17518561 L1,19.8257567 C1.01997626,19.9375785 1.03589484,20.0503427 1.06086517,20.1615363 C1.2749857,21.1145346 2.08339994,21.8533124 3.04506955,21.9776985 C3.09157678,21.9833524 3.13839614,21.9924615 3.18490337,22 L20.6763033,22 C20.7899183,21.9805254 20.9038454,21.964506 21.0162119,21.9400057 Z M3.36500183,8.97966876 C3.36500183,12.2353798 3.3646897,15.4910908 3.36531396,18.7468018 C3.36531396,19.2151342 3.76827257,19.6178184 4.23365698,19.6178184 C9.36381009,19.6181325 14.4936511,19.6181325 19.6238042,19.6178184 C20.0935584,19.6178184 20.4943321,19.2157624 20.4943321,18.7439749 C20.4946442,15.4920331 20.4943321,12.2404055 20.4943321,8.98877784 L20.4943321,8.921245 L18.4074373,8.921245 C18.7020871,9.86890348 18.7926045,10.8328955 18.6771168,11.8154198 C18.5610048,12.7982581 18.2463787,13.7129355 17.7338628,14.5575671 C17.2210347,15.4031411 16.5561998,16.1035979 15.7421673,16.6611365 C13.6321749,18.1072816 10.8542263,18.2344946 8.61532462,16.9699029 C7.48354468,16.331325 6.59491327,15.4408338 5.9753371,14.2934038 C5.05112297,12.5812107 4.90348593,10.784209 5.44565409,8.91967447 C4.75335186,8.92030268 4.06385878,8.92030268 3.36500183,8.92030268 L3.36500183,8.97966876 Z M7.50102391,10.9324672 C7.46606545,13.4267847 9.45026984,15.4040834 11.8290053,15.4555968 C14.3041887,15.5089949 16.3061845,13.5188178 16.35831,11.0983152 C16.4116841,8.60211308 14.4109369,6.54031982 11.9307594,6.54189035 C9.50614094,6.54031982 7.53504597,8.50348372 7.50102391,10.9324672 Z M19.6540807,5.64229012 C20.1169681,5.63066819 20.49402,5.23143918 20.49402,4.76499143 C20.4943321,4.07050257 20.4943321,3.3756996 20.49402,2.68121074 C20.49402,2.18303826 20.102298,1.78663621 19.6078856,1.7863221 C18.919641,1.786008 18.2313965,1.78569389 17.5428398,1.7863221 C17.0496759,1.78695031 16.6567054,2.18429469 16.6563933,2.68246716 C16.6560811,3.37098801 16.6542084,4.05950885 16.6588903,4.7483438 C16.6595146,4.85105654 16.6788666,4.95785266 16.711328,5.05522559 C16.8349311,5.42178755 17.168597,5.64668761 17.577174,5.64857224 C17.9092793,5.64920046 18.2413846,5.64825814 18.573802,5.64825814 C18.9333747,5.64417476 19.2941959,5.65108509 19.6540807,5.64229012 Z" id="Instagram_icon" stroke="none" fill="#000000" fill-rule="evenodd"></path>
</svg>