
<svg width="24px" height="13px" viewBox="0 4 24 13" version="1.1" xmlns="http://www.w3.org/2000/svg" xmlns:xlink="http://www.w3.org/1999/xlink">
    <!-- Generator: Sketch 3.7.2 (28276) - http://www.bohemiancoding.com/sketch -->
    <desc>Created with Sketch.</desc>
    <defs></defs>
    <path d="M22.9939447,15.5921287 C22.5915032,14.8801398 21.8224482,14.0062237 20.687245,12.9701312 L20.6512478,12.9347707 C20.1117122,12.4403882 19.7854528,12.1159938 19.6488241,11.9499115 C19.3988315,11.6335366 19.3428264,11.3132974 19.4794552,10.9888199 C19.5759836,10.7436646 19.9385786,10.22593 20.5663941,9.43490966 C20.8966297,9.01569421 21.1581701,8.67970689 21.3513116,8.42657372 C22.7442905,6.6074388 23.3482066,5.44498748 23.1629329,4.9387627 L23.0909807,4.82046491 C23.0426319,4.74924524 22.9178471,4.68409212 22.7167955,4.62467314 C22.5152787,4.56537881 22.2577144,4.5555726 21.9436375,4.5950883 L18.4655682,4.61868969 C18.4092247,4.59907727 18.3287702,4.60090555 18.223951,4.62467314 C18.1192587,4.64844073 18.0668914,4.66036608 18.0668914,4.66036608 L18.0063602,4.69007557 L17.9583075,4.72576851 C17.9180379,4.74936989 17.8737499,4.79088008 17.8254011,4.85021595 C17.7773061,4.90934407 17.7370788,4.97873547 17.7049309,5.05780842 C17.3262619,6.01478641 16.8957333,6.9045337 16.4125412,7.72700872 C16.1146228,8.21744384 15.8410269,8.64247653 15.5911612,9.0023561 C15.3416339,9.36211102 15.1322916,9.62716953 14.9633457,9.79707457 C14.794146,9.96714582 14.6414432,10.103394 14.5043069,10.2063176 C14.367382,10.3092828 14.2628589,10.3527875 14.1904837,10.3368732 C14.1179393,10.3209588 14.0496249,10.3051692 13.9849483,10.2893795 C13.8723036,10.2181598 13.7816972,10.1213028 13.7133828,9.99872514 C13.6447723,9.87614752 13.5985808,9.72186594 13.5744275,9.53600503 C13.5504012,9.35001947 13.5361884,9.19004529 13.5321276,9.05554232 C13.5283629,8.92120557 13.5300972,8.73118949 13.5382611,8.48603425 C13.5466365,8.24075437 13.5504012,8.07479674 13.5504012,7.98778741 C13.5504012,7.68720216 13.5563655,7.3609795 13.5683364,7.00903631 C13.5805187,6.65709312 13.5903746,6.37823943 13.5986231,6.17280766 C13.6068293,5.96716812 13.6106363,5.74960324 13.6106363,5.52023767 C13.6106363,5.29087209 13.5964235,5.11099464 13.5683364,4.98043909 C13.5405876,4.85004975 13.4979916,4.72348316 13.4418596,4.60078089 C13.3853892,4.47820328 13.3027351,4.38338222 13.1942781,4.31606841 C13.0856096,4.2488377 12.9505036,4.19548528 12.7897216,4.15584492 C12.3629576,4.06098231 11.8195304,4.00966592 11.1591863,4.00168799 C9.66172652,3.98589833 8.69953006,4.08088559 8.27280839,4.28652513 C8.10373558,4.3734098 7.95073674,4.49212311 7.81393877,4.64229107 C7.66897692,4.81635129 7.64875755,4.91133855 7.75340757,4.92696201 C8.23655735,4.99805702 8.57859457,5.16812827 8.77989992,5.43700954 L8.8524443,5.57949044 C8.9088724,5.68228943 8.96521591,5.86428603 9.02160171,6.12523092 C9.07790291,6.38617581 9.11423855,6.67483571 9.13022792,6.99104441 C9.17041286,7.56848886 9.17041286,8.06278829 9.13022792,8.47398425 C9.08991609,8.88534642 9.05184616,9.20558564 9.01551052,9.43495121 C8.97917488,9.66431678 8.92486178,9.85017769 8.8524443,9.99249238 C8.77989992,10.1348486 8.7316357,10.221858 8.70744015,10.2534373 C8.68328689,10.2850166 8.66315212,10.3049199 8.64716275,10.3127316 C8.54251273,10.3521226 8.43367501,10.3721921 8.32103031,10.3721921 C8.2082164,10.3721921 8.07141843,10.3167621 7.91042491,10.2059852 C7.74947368,10.0952083 7.58243127,9.94304582 7.40929766,9.74924853 C7.23616406,9.55540969 7.04090759,9.28453393 6.82344366,8.93657971 C6.60614893,8.58862549 6.38069032,8.17738797 6.14719471,7.70286717 L5.95401094,7.3587357 C5.83324465,7.13734806 5.66827493,6.81498971 5.45893259,6.3919515 C5.24946334,5.96874709 5.06431656,5.5593794 4.90336534,5.16393155 C4.83902715,4.99784926 4.74237181,4.87140734 4.61356853,4.78439801 L4.55312193,4.74870507 C4.512937,4.71712575 4.44842961,4.6835935 4.35993816,4.64785901 C4.27131981,4.61216607 4.17885217,4.5865702 4.08215454,4.57082209 L0.773073481,4.59442348 C0.434927858,4.59442348 0.205493049,4.66967367 0.0846844555,4.81996629 L0.036335638,4.89106131 C0.0121823792,4.93066011 0,4.99390185 0,5.08095273 C0,5.16796206 0.0241532588,5.27475002 0.0725020763,5.40119195 C0.555567252,6.5164405 1.08089006,7.59200714 1.64847049,8.62805808 C2.21605092,9.66410902 2.70926808,10.4986756 3.12782586,11.1310099 C3.54646825,11.7638013 3.97318992,12.3610243 4.40799088,12.9223883 C4.84279184,13.48396 5.13060055,13.8438395 5.27141701,14.0019439 C5.41240267,14.1603391 5.52314388,14.2787615 5.60364064,14.3578345 L5.90561983,14.6425054 C6.0988459,14.8323553 6.38259381,15.0597264 6.75699047,15.3246187 C7.13147173,15.5896772 7.54605333,15.8506221 8.00094675,16.1078689 C8.45592478,16.3647001 8.98522377,16.5742871 9.58913984,16.7363804 C10.1929713,16.8986399 10.7806865,16.9637515 11.35237,16.9323384 L12.7412459,16.9323384 C13.0229211,16.9084461 13.2363242,16.8214368 13.3813707,16.6712688 L13.4294234,16.6118083 C13.4617405,16.5646055 13.491985,16.4912667 13.5199029,16.3925814 C13.5481593,16.2937298 13.5622029,16.1848227 13.5622029,16.0663587 C13.5539544,15.7263409 13.5803072,15.4198968 13.6405423,15.1470681 C13.7007351,14.8743225 13.7693456,14.668683 13.8460777,14.5301911 C13.9227674,14.3918238 14.0093131,14.2750634 14.10563,14.1804086 C14.2021585,14.085546 14.2709382,14.0280799 14.3112923,14.0083013 C14.3513926,13.988398 14.3834137,13.9748937 14.4075669,13.9667911 C14.600793,13.9035494 14.8281974,13.9647966 15.0901186,14.1508237 C15.3518282,14.3366846 15.5972947,14.5661749 15.8268987,14.8389205 C16.0563758,15.1119154 16.3320867,15.4181932 16.6540738,15.758211 C16.9762723,16.0983535 17.2579899,16.3511958 17.4994378,16.5175274 L17.7408858,16.6598837 C17.9021332,16.7548709 18.1114755,16.8418803 18.3691667,16.9209532 C18.6263925,16.9999846 18.8517665,17.0197632 19.0452887,16.9802475 L22.1368635,16.9328786 C22.4426497,16.9328786 22.6805868,16.8831411 22.8493635,16.7844558 C23.0184786,16.6856042 23.118941,16.5766971 23.1513427,16.4582331 C23.1836599,16.3396444 23.1853941,16.2050999 23.1574762,16.0546827 C23.1288391,15.9046393 23.1006251,15.7997212 23.0725379,15.7404269 C23.0444508,15.6809664 23.0182671,15.6316444 22.9939447,15.5921287 Z" id="Shape" stroke="none" fill="#000000" fill-rule="evenodd"></path>
</svg>