
<svg width="18px" height="14px" viewBox="0 4 18 14" version="1.1" xmlns="http://www.w3.org/2000/svg" xmlns:xlink="http://www.w3.org/1999/xlink">
    <!-- Generator: Sketch 3.7.2 (28276) - http://www.bohemiancoding.com/sketch -->
    <desc>Created with Sketch.</desc>
    <defs></defs>
    <path d="M17.2973661,5.65698312 C16.6605598,5.93823396 15.9769378,6.12810636 15.2589091,6.21368001 C15.991791,5.77626194 16.5545194,5.0836209 16.8196204,4.25840623 C16.1337422,4.66324265 15.3741622,4.9574138 14.5660744,5.1160153 C13.9187393,4.42899179 12.9961504,4 11.9757938,4 C10.015927,4 8.42701354,5.58227002 8.42701354,7.53417329 C8.42701354,7.81111735 8.458224,8.08094588 8.51876478,8.33953936 C5.56956387,8.19236016 2.95390129,6.78516973 1.20423511,4.64676457 C0.898710977,5.16882005 0.723481138,5.77588744 0.723481138,6.42358826 C0.723481138,7.64970709 1.34994661,8.73126822 2.30205381,9.36529974 C1.7207119,9.34694915 1.17321266,9.18834764 0.694714866,8.92357489 C0.694338837,8.93818046 0.694338837,8.95278603 0.694338837,8.9677661 C0.694338837,10.6803627 1.91793947,12.1087125 3.54107166,12.4334056 C3.24363217,12.5142979 2.9300234,12.5575529 2.60607382,12.5575529 C2.37763578,12.5575529 2.15559024,12.5354573 1.93843309,12.4940748 C2.39004476,13.898082 3.7010723,14.9200974 5.25369892,14.9483723 C4.03893498,15.8964235 2.50905816,16.4615467 0.846442849,16.4615467 C0.560096235,16.4615467 0.277697932,16.4446941 0,16.4115507 C1.57030002,17.4146537 3.4352193,18 5.44002164,18 C11.9673331,18 15.5369831,12.6141027 15.5369831,7.94350373 C15.5369831,7.79070701 15.5335988,7.63809753 15.5266422,7.48623706 C16.219853,6.9885242 16.8213125,6.36610224 17.2973661,5.65698312 L17.2973661,5.65698312 Z" id="Twitter" stroke="none" fill="#000000" fill-rule="evenodd" opacity="0.9"></path>
</svg>