<svg width="68px" height="11px" viewBox="20 21 68 11" version="1.1" xmlns="http://www.w3.org/2000/svg" xmlns:xlink="http://www.w3.org/1999/xlink">
    <!-- Generator: Sketch 3.7.2 (28276) - http://www.bohemiancoding.com/sketch -->
    <desc>Created with Sketch.</desc>
    <defs></defs>
    <g id="Scroll_button" stroke="none" stroke-width="1" fill="none" fill-rule="evenodd" transform="translate(20.000000, 21.000000)">
        <path d="M50.292761,0.218200622 C49.9968851,-0.0726610383 49.5176187,-0.0726610383 49.2217428,0.218200622 C48.9263046,0.508627512 48.9258669,0.980353822 49.2217428,1.27121548 L57.8747993,9.78185375 C58.1706752,10.0727154 58.6499416,10.0727154 58.9458175,9.78185375 L67.598874,1.27121548 C67.894531,0.980353822 67.8947498,0.509062283 67.598874,0.218200622 C67.3029981,-0.0726610383 66.8237317,-0.0726610383 66.5278558,0.217765851 L58.4103084,7.97951143 L50.292761,0.218200622 L50.292761,0.218200622 Z" id="Chevron-thin-down" fill="#FFFFFF"></path>
        <path d="M18.6007382,9.78185257 C18.8962025,9.49098933 18.8966402,9.01969522 18.6007382,8.72839721 L13.8802304,4.08632295 C12.5690527,2.79693111 9.94669732,0.218147432 9.94669732,0.218147432 C9.65079526,-0.0727158105 9.17170532,-0.0727158105 8.87580326,0.218147432 L0.221762426,8.72839721 C-0.0737019056,9.01969522 -0.0741396306,9.49055455 0.221762426,9.78185257 C0.517664482,10.0727158 0.997192149,10.0727158 1.29309421,9.78185257 L9.410922,2.02049955 L17.5294064,9.78185257 C17.8253084,10.0727158 18.3048361,10.0727158 18.6007382,9.78185257 Z" id="Chevron-thin-up" fill="#4A4A4A"></path>
    </g>
</svg>