
<svg width="19px" height="19px" viewBox="375 17 19 19" version="1.1" xmlns="http://www.w3.org/2000/svg" xmlns:xlink="http://www.w3.org/1999/xlink">
    <!-- Generator: Sketch 3.7.2 (28276) - http://www.bohemiancoding.com/sketch -->
    <desc>Created with Sketch.</desc>
    <defs></defs>
    <g id="Close" stroke="none" stroke-width="1" fill="none" fill-rule="evenodd" transform="translate(375.000000, 17.000000)">
        <path d="M0.81589244,0.81589244 C1.26649739,0.365287488 1.99532777,0.363542894 2.44795251,0.816167626 L18.2213226,16.5895378 C18.6720796,17.0402947 18.6753443,17.7678513 18.2215978,18.2215978 L18.2215978,18.2215978 C17.7709929,18.6722028 17.0421625,18.6739474 16.5895378,18.2213226 L0.816167626,2.44795251 C0.365410693,1.99719557 0.362145953,1.26963893 0.81589244,0.81589244 L0.81589244,0.81589244 L0.81589244,0.81589244 Z" id="Rectangle-327" fill="#FFFFFF"></path>
        <path d="M18.2215978,0.81589244 C18.6722028,1.26649739 18.6739474,1.99532777 18.2213226,2.44795251 L2.44795251,18.2213226 C1.99719557,18.6720796 1.26963893,18.6753443 0.81589244,18.2215978 L0.81589244,18.2215978 C0.365287488,17.7709929 0.363542894,17.0421625 0.816167626,16.5895378 L16.5895378,0.816167626 C17.0402947,0.365410693 17.7678513,0.362145953 18.2215978,0.81589244 L18.2215978,0.81589244 L18.2215978,0.81589244 Z" id="Rectangle-327" fill="#FFFFFF"></path>
    </g>
</svg>