<?xml version="1.0" encoding="UTF-8" standalone="no"?>
<svg width="300px" height="59px" viewBox="0 0 300 59" version="1.1" xmlns="http://www.w3.org/2000/svg" xmlns:xlink="http://www.w3.org/1999/xlink">
    <!-- Generator: Sketch 3.7.1 (28215) - http://www.bohemiancoding.com/sketch -->
    <title>Logo</title>
    <desc>Created with Sketch.</desc>
    <defs></defs>
    <g id="Symbols" stroke="none" stroke-width="1" fill="none" fill-rule="evenodd">
        <g id="Logo">
            <g transform="translate(0.000000, 10.000000)">
                <rect id="Rectangle-1" fill="#E62A13" x="0" y="22" width="300" height="7"></rect>
                <path d="M16.988,37 L23.036,37 L23.036,22.6 L27.452,22.6 L35.324,37 L42.62,37 L33.548,21.928 C38.3,20.872 41.324,17.656 41.324,12.76 C41.324,5.56 35.18,3.016 28.796,3.016 L16.988,3.016 L16.988,37 Z M23.036,17.656 L23.036,8.104 L28.508,8.104 C31.628,8.104 35.276,9.016 35.276,12.712 C35.276,16.84 31.388,17.656 27.98,17.656 L23.036,17.656 Z M50.732,23.176 C50.972,19.96 53.708,17.608 57.116,17.608 C60.86,17.608 62.54,20.2 62.54,23.176 L50.732,23.176 Z M68.3,25.768 C68.3,17.464 63.596,13.288 57.164,13.288 C50.204,13.288 44.972,18.184 44.972,25.624 C44.972,33.112 50.252,37.672 57.356,37.672 C61.724,37.672 64.988,36.136 67.244,33.064 L63.404,29.992 C62.108,31.816 60.188,32.968 57.308,32.968 C53.948,32.968 50.972,30.568 50.732,27.304 L68.252,27.304 C68.3,26.776 68.3,26.296 68.3,25.768 L68.3,25.768 Z M74.78,37 L80.54,37 L80.54,18.568 L85.868,18.568 L85.868,13.96 L80.54,13.96 L80.54,10.216 C80.54,7.912 81.116,5.032 84.428,5.032 C85.244,5.032 86.012,5.176 86.636,5.368 L87.02,0.472 C86.156,0.232 85.34,0.136 84.092,0.136 C76.94,0.136 74.78,5.032 74.78,10.552 L74.78,13.96 L70.412,13.96 L70.412,18.568 L74.78,18.568 L74.78,37 Z M88.076,25.384 C88.076,32.632 93.644,37.672 100.604,37.672 C107.564,37.672 113.132,32.632 113.132,25.384 C113.132,18.136 107.564,13.288 100.604,13.288 C93.644,13.288 88.076,18.136 88.076,25.384 L88.076,25.384 Z M93.932,25.384 C93.932,21.784 96.044,17.992 100.604,17.992 C105.164,17.992 107.276,21.784 107.276,25.384 C107.276,28.984 105.164,32.872 100.604,32.872 C96.044,32.872 93.932,28.984 93.932,25.384 L93.932,25.384 Z M118.7,37 L124.46,37 L124.46,24.664 C124.46,22.984 125.468,18.472 130.652,18.472 C131.18,18.472 131.66,18.52 132.428,18.712 L132.428,13.432 C132.044,13.336 131.468,13.288 131.036,13.288 C128.012,13.288 125.564,15.16 124.316,17.8 L124.22,17.8 L124.22,13.96 L118.7,13.96 L118.7,37 Z M163.676,13.288 C160.22,13.288 157.628,14.872 156.092,17.656 C154.796,15.064 152.444,13.288 148.892,13.288 C145.196,13.288 142.748,15.4 141.74,17.656 L141.644,17.656 L141.644,13.96 L136.172,13.96 L136.172,37 L141.932,37 L141.932,24.328 C141.932,21.256 143.516,18.088 146.972,18.088 C149.9,18.088 151.244,20.248 151.244,23.08 L151.244,37 L157.004,37 L157.004,24.424 C157.004,21.448 158.492,18.088 162.092,18.088 C165.788,18.088 166.412,21.496 166.412,24.232 L166.412,37 L172.172,37 L172.172,22.6 C172.172,17.896 169.676,13.288 163.676,13.288 L163.676,13.288 Z M193.196,37 L198.572,37 L198.572,22.984 C198.572,18.376 196.556,13.288 188.3,13.288 C184.796,13.288 181.148,14.536 178.556,16.936 L181.532,20.44 C183.02,18.952 185.372,17.8 187.82,17.8 C190.7,17.8 193.1,19.192 193.1,22.024 L193.1,22.6 C185.9,22.6 177.26,23.56 177.26,30.424 C177.26,35.8 182.204,37.576 185.9,37.576 C189.164,37.576 191.9,36.088 193.052,34.072 L193.196,34.072 L193.196,37 Z M193.1,27.304 C193.1,30.952 190.988,33.208 187.052,33.208 C185.084,33.208 183.02,32.536 183.02,30.328 C183.02,26.92 188.156,26.488 191.804,26.488 L193.1,26.488 L193.1,27.304 Z M205.532,18.568 L205.532,29.32 C205.532,33.736 206.924,37.48 213.02,37.48 C214.316,37.48 215.852,37.24 216.86,36.856 L216.668,32.344 C215.996,32.68 214.988,32.824 214.22,32.824 C211.676,32.824 211.196,31.336 211.196,29.272 L211.196,18.568 L216.956,18.568 L216.956,13.96 L211.196,13.96 L211.196,7.288 L205.532,7.288 L205.532,13.96 L201.5,13.96 L201.5,18.568 L205.532,18.568 Z M221.228,37 L226.988,37 L226.988,13.96 L221.228,13.96 L221.228,37 Z M220.412,6.136 C220.412,7.96 221.948,9.592 224.06,9.592 C226.172,9.592 227.804,8.104 227.804,6.136 C227.804,4.168 226.172,2.68 224.06,2.68 C221.948,2.68 220.412,4.312 220.412,6.136 L220.412,6.136 Z M232.652,25.384 C232.652,32.632 238.22,37.672 245.18,37.672 C252.14,37.672 257.708,32.632 257.708,25.384 C257.708,18.136 252.14,13.288 245.18,13.288 C238.22,13.288 232.652,18.136 232.652,25.384 L232.652,25.384 Z M238.508,25.384 C238.508,21.784 240.62,17.992 245.18,17.992 C249.74,17.992 251.852,21.784 251.852,25.384 C251.852,28.984 249.74,32.872 245.18,32.872 C240.62,32.872 238.508,28.984 238.508,25.384 L238.508,25.384 Z M263.276,37 L269.036,37 L269.036,24.328 C269.036,21.256 270.764,18.088 274.412,18.088 C278.108,18.088 278.732,21.496 278.732,24.232 L278.732,37 L284.492,37 L284.492,22.6 C284.492,17.896 281.996,13.288 275.996,13.288 C272.588,13.288 269.852,15.352 268.844,17.656 L268.748,17.656 L268.748,13.96 L263.276,13.96 L263.276,37 Z" id="Reformation" fill="#000000"></path>
            </g>
        </g>
    </g>
</svg>