<?xml version="1.0" encoding="UTF-8" standalone="no"?>
<svg width="180px" height="47px" viewBox="0 0 180 47" version="1.1" xmlns="http://www.w3.org/2000/svg" xmlns:xlink="http://www.w3.org/1999/xlink">
    <!-- Generator: Sketch 3.7.1 (28215) - http://www.bohemiancoding.com/sketch -->
    <title>Shape</title>
    <desc>Created with Sketch.</desc>
    <defs></defs>
    <g id="Symbols" stroke="none" stroke-width="1" fill="none" fill-rule="evenodd">
        <g id="Shape" fill="#F9A82B">
            <polygon points="61.5 31.9166667 61.5 17.0333333 61.3416667 17.0333333 61.3416667 16.875 61.1833333 16.875 61.1833333 16.7166667 61.025 16.7166667 61.025 16.5583333 60.55 16.5583333 60.55 16.4 59.6 16.4 59.6 16.5583333 59.125 16.5583333 59.125 16.7166667 58.9666667 16.7166667 58.9666667 16.875 58.8083333 16.875 58.8083333 17.0333333 58.65 17.0333333 58.65 17.5083333 58.4916667 17.5083333 58.4916667 36.5083333 58.65 36.5083333 58.65 36.9833333 58.8083333 36.9833333 58.8083333 37.1416667 58.9666667 37.1416667 58.9666667 37.3 59.125 37.3 59.125 37.4583333 59.4416667 37.4583333 59.4416667 37.6166667 71 37.6166667 71 37.4583333 71.475 37.4583333 71.475 37.3 71.6333333 37.3 71.6333333 37.1416667 71.7916667 37.1416667 71.7916667 36.825 71.95 36.825 71.95 35.7166667 71.7916667 35.7166667 71.7916667 35.4 71.6333333 35.4 71.6333333 35.2416667 71.475 35.2416667 71.475 35.0833333 71.1583333 35.0833333 71.1583333 34.925 61.5 34.925"></polygon>
            <path d="M82.2416667,16.2416667 C68.3390968,18.2277481 70.4284314,39.1557843 84.6166667,38.0916667 C93.506439,37.4249337 98.1321356,26.1926328 92.0583333,19.5666667 C90.1443117,17.4786431 87.7676932,16.381687 84.9333333,16.0833333 C84.0394985,15.9892455 82.2944444,15.3444444 82.2416667,16.2416667 C82.1715394,17.4338307 84.9231254,17.5899972 84.775,18.775 C84.657167,19.717664 82.8642797,18.6326849 81.925,18.775 C81.0999269,18.9000111 80.2847443,19.1710351 79.55,19.5666667 C78.889547,19.9222952 78.2860665,20.4133581 77.8083333,20.9916667 C77.266337,21.6477675 76.8732566,22.4245754 76.5416667,23.2083333 C75.8581789,24.82385 75.8412612,27.6176318 76.0666667,29.0666667 C76.9804406,34.9409275 84.0798055,37.5709079 88.7333333,33.975 C92.6093505,30.9798958 92.4321031,23.2555055 88.7333333,20.2 C87.254061,18.9779924 86.5007323,19.062622 84.775,18.775"></path>
            <path d="M98.55,32.55 C96.8370837,27.411251 96.8469454,22.1453811 101.241667,18.3 C106.146924,14.0078998 115.763466,15.9403373 118.183333,22.1 C121.478292,30.4871666 116.122848,38.3602883 107.258333,38.0916667 C103.986999,37.9925353 101.397541,36.293944 99.6583333,33.975 C99.5241406,33.7960764 98.5072352,32.763824 98.55,32.55 C98.8513554,31.0432229 100.295958,22.3738648 102.983333,20.3583333 C109.702488,15.3189671 116.862365,20.8198992 115.966667,28.4333333 C115.262672,34.4172861 108.843677,37.9030741 103.458333,34.1333333 C100.444002,32.0233017 100.64001,28.0847528 100.766667,24.7916667"></path>
            <polygon points="144.783333 21.625 144.783333 21.3083333 144.625 21.3083333 144.625 19.725 144.466667 19.725 144.466667 18.1416667 144.308333 18.1416667 144.308333 17.1916667 144.15 17.1916667 144.15 16.875 143.991667 16.875 143.991667 16.7166667 143.833333 16.7166667 143.833333 16.5583333 143.516667 16.5583333 143.516667 16.4 142.25 16.4 142.25 16.5583333 141.933333 16.5583333 141.933333 16.7166667 141.775 16.7166667 141.775 16.875 141.616667 16.875 141.616667 17.0333333 141.458333 17.0333333 141.458333 17.1916667 141.3 17.1916667 141.3 17.35 141.141667 17.35 141.141667 17.6666667 140.983333 17.6666667 140.983333 17.9833333 140.825 17.9833333 140.825 18.3 140.666667 18.3 140.666667 18.6166667 140.508333 18.6166667 140.508333 18.9333333 140.35 18.9333333 140.35 19.25 140.191667 19.25 140.191667 19.5666667 140.033333 19.5666667 140.033333 19.8833333 139.875 19.8833333 139.875 20.2 139.716667 20.2 139.716667 20.675 139.558333 20.675 139.558333 20.9916667 139.4 20.9916667 139.4 21.3083333 139.241667 21.3083333 139.241667 21.625 139.083333 21.625 139.083333 21.9416667 138.925 21.9416667 138.925 22.2583333 138.766667 22.2583333 138.766667 22.575 138.608333 22.575 138.608333 22.8916667 138.45 22.8916667 138.45 23.2083333 138.291667 23.2083333 138.291667 23.525 138.133333 23.525 138.133333 23.8416667 137.975 23.8416667 137.975 24.1583333 137.816667 24.1583333 137.816667 24.475 137.658333 24.475 137.658333 24.7916667 137.5 24.7916667 137.5 25.1083333 137.341667 25.1083333 137.341667 25.425 137.183333 25.425 137.183333 25.7416667 137.025 25.7416667 137.025 26.0583333 136.866667 26.0583333 136.866667 26.375 136.708333 26.375 136.708333 26.6916667 136.55 26.6916667 136.55 27.0083333 136.391667 27.0083333 136.391667 27.325 136.233333 27.325 136.233333 27.6416667 136.075 27.6416667 136.075 27.9583333 135.916667 27.9583333 135.916667 28.275 135.758333 28.275 135.758333 28.5916667 135.6 28.5916667 135.6 28.9083333 135.441667 28.9083333 135.441667 29.3833333 135.283333 29.3833333 135.283333 29.7 135.125 29.7 135.125 30.0166667 134.966667 30.0166667 134.966667 30.3333333 134.808333 30.3333333 134.808333 30.65 134.65 30.65 134.65 30.9666667 134.491667 30.9666667 134.491667 31.2833333 134.333333 31.2833333 134.333333 31.6 134.175 31.6 134.175 31.7583333 134.016667 31.7583333 134.016667 31.6 133.858333 31.6 133.858333 31.2833333 133.7 31.2833333 133.7 30.9666667 133.541667 30.9666667 133.541667 30.65 133.383333 30.65 133.383333 30.3333333 133.225 30.3333333 133.225 30.0166667 133.066667 30.0166667 133.066667 29.5416667 132.908333 29.5416667 132.908333 29.225 132.75 29.225 132.75 28.9083333 132.591667 28.9083333 132.591667 28.5916667 132.433333 28.5916667 132.433333 28.275 132.275 28.275 132.275 27.9583333 132.116667 27.9583333 132.116667 27.6416667 131.958333 27.6416667 131.958333 27.325 131.8 27.325 131.8 27.0083333 131.641667 27.0083333 131.641667 26.6916667 131.483333 26.6916667 131.483333 26.375 131.325 26.375 131.325 26.0583333 131.166667 26.0583333 131.166667 25.7416667 131.008333 25.7416667 131.008333 25.2666667 130.85 25.2666667 130.85 24.95 130.691667 24.95 130.691667 24.6333333 130.533333 24.6333333 130.533333 24.3166667 130.375 24.3166667 130.375 24 130.216667 24 130.216667 23.6833333 130.058333 23.6833333 130.058333 23.3666667 129.9 23.3666667 129.9 23.05 129.741667 23.05 129.741667 22.7333333 129.583333 22.7333333 129.583333 22.4166667 129.425 22.4166667 129.425 22.1 129.266667 22.1 129.266667 21.7833333 129.108333 21.7833333 129.108333 21.4666667 128.95 21.4666667 128.95 21.15 128.791667 21.15 128.791667 20.675 128.633333 20.675 128.633333 20.3583333 128.475 20.3583333 128.475 20.0416667 128.316667 20.0416667 128.316667 19.725 128.158333 19.725 128.158333 19.4083333 128 19.4083333 128 19.0916667 127.841667 19.0916667 127.841667 18.775 127.683333 18.775 127.683333 18.4583333 127.525 18.4583333 127.525 18.1416667 127.366667 18.1416667 127.366667 17.825 127.208333 17.825 127.208333 17.5083333 127.05 17.5083333 127.05 17.1916667 126.891667 17.1916667 126.891667 17.0333333 126.733333 17.0333333 126.733333 16.875 126.575 16.875 126.575 16.7166667 126.416667 16.7166667 126.416667 16.5583333 125.941667 16.5583333 125.941667 16.4 124.833333 16.4 124.833333 16.5583333 124.516667 16.5583333 124.516667 16.7166667 124.358333 16.7166667 124.358333 16.875 124.2 16.875 124.2 17.0333333 124.041667 17.0333333 124.041667 17.35 123.883333 17.35 123.883333 18.1416667 123.725 18.1416667 123.725 19.725 123.566667 19.725 123.566667 21.3083333 123.408333 21.3083333 123.408333 22.7333333 123.25 22.7333333 123.25 24.3166667 123.091667 24.3166667 123.091667 25.9 122.933333 25.9 122.933333 27.4833333 122.775 27.4833333 122.775 28.9083333 122.616667 28.9083333 122.616667 30.4916667 122.458333 30.4916667 122.458333 32.075 122.3 32.075 122.3 33.6583333 122.141667 33.6583333 122.141667 35.0833333 121.983333 35.0833333 121.983333 37.3 122.141667 37.3 122.141667 37.4583333 122.3 37.4583333 122.3 37.6166667 122.616667 37.6166667 122.616667 37.775 124.041667 37.775 124.041667 37.6166667 124.358333 37.6166667 124.358333 37.4583333 124.516667 37.4583333 124.516667 37.3 124.675 37.3 124.675 36.9833333 124.833333 36.9833333 124.833333 35.7166667 124.991667 35.7166667 124.991667 33.975 125.15 33.975 125.15 32.3916667 125.308333 32.3916667 125.308333 30.8083333 125.466667 30.8083333 125.466667 29.0666667 125.625 29.0666667 125.625 27.4833333 125.783333 27.4833333 125.783333 25.7416667 125.941667 25.7416667 125.941667 24.1583333 126.1 24.1583333 126.1 22.575 126.258333 22.575 126.258333 22.2583333 126.416667 22.2583333 126.416667 22.4166667 126.575 22.4166667 126.575 22.8916667 126.733333 22.8916667 126.733333 23.2083333 126.891667 23.2083333 126.891667 23.525 127.05 23.525 127.05 23.8416667 127.208333 23.8416667 127.208333 24.1583333 127.366667 24.1583333 127.366667 24.475 127.525 24.475 127.525 24.7916667 127.683333 24.7916667 127.683333 25.1083333 127.841667 25.1083333 127.841667 25.425 128 25.425 128 25.7416667 128.158333 25.7416667 128.158333 26.0583333 128.316667 26.0583333 128.316667 26.5333333 128.475 26.5333333 128.475 26.85 128.633333 26.85 128.633333 27.1666667 128.791667 27.1666667 128.791667 27.4833333 128.95 27.4833333 128.95 27.8 129.108333 27.8 129.108333 28.1166667 129.266667 28.1166667 129.266667 28.4333333 129.425 28.4333333 129.425 28.75 129.583333 28.75 129.583333 29.0666667 129.741667 29.0666667 129.741667 29.3833333 129.9 29.3833333 129.9 29.7 130.058333 29.7 130.058333 30.175 130.216667 30.175 130.216667 30.4916667 130.375 30.4916667 130.375 30.8083333 130.533333 30.8083333 130.533333 31.125 130.691667 31.125 130.691667 31.4416667 130.85 31.4416667 130.85 31.7583333 131.008333 31.7583333 131.008333 32.075 131.166667 32.075 131.166667 32.3916667 131.325 32.3916667 131.325 32.7083333 131.483333 32.7083333 131.483333 33.025 131.641667 33.025 131.641667 33.5 131.8 33.5 131.8 33.8166667 131.958333 33.8166667 131.958333 34.1333333 132.116667 34.1333333 132.116667 34.45 132.275 34.45 132.275 34.7666667 132.433333 34.7666667 132.433333 35.0833333 132.591667 35.0833333 132.591667 35.4 132.75 35.4 132.75 35.7166667 132.908333 35.7166667 132.908333 35.875 133.066667 35.875 133.066667 36.0333333 133.225 36.0333333 133.225 36.1916667 133.541667 36.1916667 133.541667 36.35 134.491667 36.35 134.491667 36.1916667 134.808333 36.1916667 134.808333 36.0333333 134.966667 36.0333333 134.966667 35.875 135.125 35.875 135.125 35.5583333 135.283333 35.5583333 135.283333 35.4 135.441667 35.4 135.441667 35.0833333 135.6 35.0833333 135.6 34.7666667 135.758333 34.7666667 135.758333 34.2916667 135.916667 34.2916667 135.916667 33.975 136.075 33.975 136.075 33.6583333 136.233333 33.6583333 136.233333 33.3416667 136.391667 33.3416667 136.391667 33.025 136.55 33.025 136.55 32.7083333 136.708333 32.7083333 136.708333 32.3916667 136.866667 32.3916667 136.866667 32.075 137.025 32.075 137.025 31.7583333 137.183333 31.7583333 137.183333 31.4416667 137.341667 31.4416667 137.341667 31.125 137.5 31.125 137.5 30.8083333 137.658333 30.8083333 137.658333 30.4916667 137.816667 30.4916667 137.816667 30.175 137.975 30.175 137.975 29.8583333 138.133333 29.8583333 138.133333 29.5416667 138.291667 29.5416667 138.291667 29.225 138.45 29.225 138.45 28.9083333 138.608333 28.9083333 138.608333 28.4333333 138.766667 28.4333333 138.766667 28.1166667 138.925 28.1166667 138.925 27.8 139.083333 27.8 139.083333 27.4833333 139.241667 27.4833333 139.241667 27.1666667 139.4 27.1666667 139.4 26.85 139.558333 26.85 139.558333 26.5333333 139.716667 26.5333333 139.716667 26.2166667 139.875 26.2166667 139.875 25.9 140.033333 25.9 140.033333 25.5833333 140.191667 25.5833333 140.191667 25.2666667 140.35 25.2666667 140.35 24.95 140.508333 24.95 140.508333 24.6333333 140.666667 24.6333333 140.666667 24.3166667 140.825 24.3166667 140.825 24 140.983333 24 140.983333 23.6833333 141.141667 23.6833333 141.141667 23.3666667 141.3 23.3666667 141.3 23.05 141.458333 23.05 141.458333 22.7333333 141.616667 22.7333333 141.616667 22.2583333 141.933333 22.2583333 141.933333 23.525 142.091667 23.525 142.091667 25.425 142.25 25.425 142.25 27.1666667 142.408333 27.1666667 142.408333 28.9083333 142.566667 28.9083333 142.566667 30.8083333 142.725 30.8083333 142.725 32.55 142.883333 32.55 142.883333 34.2916667 143.041667 34.2916667 143.041667 36.1916667 143.2 36.1916667 143.2 36.9833333 143.358333 36.9833333 143.358333 37.3 143.516667 37.3 143.516667 37.4583333 143.675 37.4583333 143.675 37.6166667 143.991667 37.6166667 143.991667 37.775 145.416667 37.775 145.416667 37.6166667 145.733333 37.6166667 145.733333 37.4583333 145.891667 37.4583333 145.891667 37.3 146.05 37.3 146.05 36.825 146.208333 36.825 146.208333 36.1916667 146.05 36.1916667 146.05 34.6083333 145.891667 34.6083333 145.891667 32.8666667 145.733333 32.8666667 145.733333 31.2833333 145.575 31.2833333 145.575 29.5416667 145.416667 29.5416667 145.416667 27.9583333 145.258333 27.9583333 145.258333 26.2166667 145.1 26.2166667 145.1 24.6333333 144.941667 24.6333333 144.941667 23.05 144.783333 23.05"></polygon>
            <polygon points="150.641667 33.975 150.641667 17.6666667 150.8 17.6666667 150.8 17.0333333 150.958333 17.0333333 150.958333 16.875 151.116667 16.875 151.116667 16.7166667 151.275 16.7166667 151.275 16.5583333 151.75 16.5583333 151.75 16.4 152.7 16.4 152.7 16.5583333 153.175 16.5583333 153.175 16.7166667 153.333333 16.7166667 153.333333 16.875 153.491667 16.875 153.491667 17.0333333 153.65 17.0333333 153.65 17.9833333 153.808333 17.9833333 153.808333 36.1916667 153.65 36.1916667 153.65 37.1416667 153.491667 37.1416667 153.491667 37.3 153.333333 37.3 153.333333 37.4583333 153.175 37.4583333 153.175 37.6166667 152.858333 37.6166667 152.858333 37.775 151.591667 37.775 151.591667 37.6166667 151.275 37.6166667 151.275 37.4583333 151.116667 37.4583333 151.116667 37.3 150.958333 37.3 150.958333 37.1416667 150.8 37.1416667 150.8 36.6666667 150.641667 36.6666667"></polygon>
            <path d="M175.341667,36.1916667 C178.881724,35.0116474 180.386582,28.4156297 179.775,24.95 C178.443492,17.4047858 169.467486,13.2966762 162.675,17.825 C156.634454,21.8520304 156.817056,31.419381 162.2,36.0333333 C164.914941,38.3604258 169.71591,38.5612744 173.125,37.4583333 C173.910991,37.2040421 176.085006,36.7104068 175.341667,36.35 C171.361264,34.4201076 166.808785,33.9664419 162.675,32.3916667 C161.196215,31.82832 161.379783,25.5936895 161.408333,25.1083333 C161.776028,18.8575247 169.520663,17.0838747 174.075,20.2 C180.583217,24.6529905 175.917892,39.0188235 165.683333,34.925 C164.041552,34.2682874 163.946536,33.7903562 162.675,32.3916667"></path>
            <polygon points="16.5333333 12.2833333 16.5333333 11.65 16.6916667 11.65 16.6916667 10.7 16.85 10.7 16.85 9.75 17.0083333 9.75 17.0083333 9.11666667 17.1666667 9.11666667 17.1666667 8.325 17.325 8.325 17.325 7.85 17.4833333 7.85 17.4833333 7.21666667 17.6416667 7.21666667 17.6416667 6.74166667 17.8 6.74166667 17.8 6.26666667 17.9583333 6.26666667 17.9583333 5.95 18.1166667 5.95 18.1166667 5.475 18.275 5.475 18.275 5.15833333 18.4333333 5.15833333 18.4333333 4.84166667 18.5916667 4.84166667 18.5916667 4.525 18.75 4.525 18.75 4.20833333 18.9083333 4.20833333 18.9083333 3.89166667 19.0666667 3.89166667 19.0666667 3.575 19.225 3.575 19.225 3.41666667 19.3833333 3.41666667 19.3833333 3.1 19.5416667 3.1 19.5416667 2.94166667 19.7 2.94166667 19.7 2.78333333 19.8583333 2.78333333 19.8583333 2.625 20.0166667 2.625 20.0166667 2.46666667 20.175 2.46666667 20.175 2.30833333 20.3333333 2.30833333 20.3333333 2.15 20.4916667 2.15 20.4916667 1.99166667 20.65 1.99166667 20.65 1.83333333 20.8083333 1.83333333 20.8083333 1.675 20.9666667 1.675 20.9666667 1.51666667 21.2833333 1.51666667 21.2833333 1.35833333 21.6 1.35833333 21.6 1.2 21.9166667 1.2 21.9166667 1.04166667 22.3916667 1.04166667 22.3916667 0.883333333 23.3416667 0.883333333 23.3416667 0.725 23.6583333 0.725 23.6583333 0.883333333 24.6083333 0.883333333 24.6083333 1.04166667 25.0833333 1.04166667 25.0833333 1.2 25.4 1.2 25.4 1.35833333 25.7166667 1.35833333 25.7166667 1.51666667 25.875 1.51666667 25.875 1.675 26.1916667 1.675 26.1916667 1.83333333 26.35 1.83333333 26.35 1.99166667 26.5083333 1.99166667 26.5083333 2.15 26.6666667 2.15 26.6666667 2.30833333 26.825 2.30833333 26.825 2.46666667 26.9833333 2.46666667 26.9833333 2.625 27.1416667 2.625 27.1416667 2.78333333 27.3 2.78333333 27.3 2.94166667 27.4583333 2.94166667 27.4583333 3.25833333 27.6166667 3.25833333 27.6166667 3.41666667 27.775 3.41666667 27.775 3.73333333 27.9333333 3.73333333 27.9333333 3.89166667 28.0916667 3.89166667 28.0916667 4.20833333 28.25 4.20833333 28.25 4.525 28.4083333 4.525 28.4083333 4.84166667 28.5666667 4.84166667 28.5666667 5.15833333 28.725 5.15833333 28.725 5.63333333 28.8833333 5.63333333 28.8833333 5.95 29.0416667 5.95 29.0416667 6.425 29.2 6.425 29.2 6.9 29.3583333 6.9 29.3583333 7.375 29.5166667 7.375 29.5166667 8.00833333 29.675 8.00833333 29.675 8.64166667 29.8333333 8.64166667 29.8333333 9.275 29.9916667 9.275 29.9916667 10.0666667 30.15 10.0666667 30.15 11.0166667 30.3083333 11.0166667 30.3083333 12.125 30.4666667 12.125 30.4666667 13.55 30.625 13.55 30.625 16.2416667 30.7833333 16.2416667 30.7833333 17.825 30.625 17.825 30.625 20.675 30.4666667 20.675 30.4666667 21.9416667 30.3083333 21.9416667 30.3083333 22.8916667 30.15 22.8916667 30.15 23.8416667 29.9916667 23.8416667 29.9916667 24.475 29.8333333 24.475 29.8333333 25.1083333 29.675 25.1083333 29.675 25.7416667 29.5166667 25.7416667 29.5166667 26.2166667 29.3583333 26.2166667 29.3583333 26.6916667 29.2 26.6916667 29.2 27.1666667 29.0416667 27.1666667 29.0416667 27.6416667 28.8833333 27.6416667 28.8833333 28.1166667 28.725 28.1166667 28.725 28.4333333 28.5666667 28.4333333 28.5666667 28.9083333 28.4083333 28.9083333 28.4083333 29.225 28.25 29.225 28.25 29.5416667 28.0916667 29.5416667 28.0916667 29.8583333 27.9333333 29.8583333 27.9333333 30.175 27.775 30.175 27.775 30.4916667 27.4583333 30.4916667 27.4583333 30.3333333 27.3 30.3333333 27.3 30.175 27.1416667 30.175 27.1416667 30.0166667 26.9833333 30.0166667 26.9833333 29.8583333 26.825 29.8583333 26.825 29.7 26.6666667 29.7 26.6666667 29.5416667 26.5083333 29.5416667 26.5083333 29.3833333 26.35 29.3833333 26.35 29.225 26.1916667 29.225 26.1916667 29.0666667 26.0333333 29.0666667 26.0333333 28.75 25.875 28.75 25.875 28.5916667 25.7166667 28.5916667 25.7166667 28.4333333 25.5583333 28.4333333 25.5583333 28.1166667 25.4 28.1166667 25.4 27.9583333 25.2416667 27.9583333 25.2416667 27.4833333 25.4 27.4833333 25.4 27.1666667 25.5583333 27.1666667 25.5583333 26.6916667 25.7166667 26.6916667 25.7166667 26.375 25.875 26.375 25.875 25.9 26.0333333 25.9 26.0333333 25.425 26.1916667 25.425 26.1916667 24.95 26.35 24.95 26.35 24.3166667 26.5083333 24.3166667 26.5083333 23.6833333 26.6666667 23.6833333 26.6666667 23.05 26.825 23.05 26.825 22.1 26.9833333 22.1 26.9833333 20.9916667 27.1416667 20.9916667 27.1416667 19.25 27.3 19.25 27.3 14.6583333 27.1416667 14.6583333 27.1416667 12.9166667 26.9833333 12.9166667 26.9833333 11.65 26.825 11.65 26.825 10.7 26.6666667 10.7 26.6666667 9.90833333 26.5083333 9.90833333 26.5083333 9.275 26.35 9.275 26.35 8.64166667 26.1916667 8.64166667 26.1916667 8.16666667 26.0333333 8.16666667 26.0333333 7.69166667 25.875 7.69166667 25.875 7.21666667 25.7166667 7.21666667 25.7166667 6.74166667 25.5583333 6.74166667 25.5583333 6.425 25.4 6.425 25.4 6.10833333 25.2416667 6.10833333 25.2416667 5.79166667 25.0833333 5.79166667 25.0833333 5.63333333 24.925 5.63333333 24.925 5.31666667 24.7666667 5.31666667 24.7666667 5.15833333 24.6083333 5.15833333 24.6083333 5 24.45 5 24.45 4.84166667 24.2916667 4.84166667 24.2916667 4.68333333 24.1333333 4.68333333 24.1333333 4.525 23.975 4.525 23.975 4.36666667 23.025 4.36666667 23.025 4.525 22.8666667 4.525 22.8666667 4.68333333 22.55 4.68333333 22.55 4.84166667 22.3916667 4.84166667 22.3916667 5.15833333 22.2333333 5.15833333 22.2333333 5.31666667 22.075 5.31666667 22.075 5.475 21.9166667 5.475 21.9166667 5.79166667 21.7583333 5.79166667 21.7583333 6.10833333 21.6 6.10833333 21.6 6.425 21.4416667 6.425 21.4416667 6.74166667 21.2833333 6.74166667 21.2833333 7.21666667 21.125 7.21666667 21.125 7.53333333 20.9666667 7.53333333 20.9666667 8.00833333 20.8083333 8.00833333 20.8083333 8.48333333 20.65 8.48333333 20.65 9.11666667 20.4916667 9.11666667 20.4916667 9.75 20.3333333 9.75 20.3333333 10.5416667 20.175 10.5416667 20.175 11.3333333 20.0166667 11.3333333 20.0166667 12.4416667 19.8583333 12.4416667 19.8583333 13.8666667 19.7 13.8666667 19.7 20.2 19.8583333 20.2 19.8583333 21.4666667 20.0166667 21.4666667 20.0166667 22.4166667 20.175 22.4166667 20.175 23.2083333 20.3333333 23.2083333 20.3333333 23.8416667 20.4916667 23.8416667 20.4916667 24.475 20.65 24.475 20.65 24.95 20.8083333 24.95 20.8083333 25.425 20.9666667 25.425 20.9666667 25.9 21.125 25.9 21.125 26.375 21.2833333 26.375 21.2833333 26.85 21.4416667 26.85 21.4416667 27.1666667 21.6 27.1666667 21.6 27.4833333 21.7583333 27.4833333 21.7583333 27.8 21.9166667 27.8 21.9166667 28.275 22.075 28.275 22.075 28.5916667 22.2333333 28.5916667 22.2333333 28.9083333 22.3916667 28.9083333 22.3916667 29.0666667 22.55 29.0666667 22.55 29.3833333 22.7083333 29.3833333 22.7083333 29.7 22.8666667 29.7 22.8666667 30.0166667 23.025 30.0166667 23.025 30.175 23.1833333 30.175 23.1833333 30.4916667 23.3416667 30.4916667 23.3416667 30.8083333 23.5 30.8083333 23.5 30.9666667 23.6583333 30.9666667 23.6583333 31.125 23.8166667 31.125 23.8166667 31.4416667 23.975 31.4416667 23.975 31.6 24.1333333 31.6 24.1333333 31.9166667 24.2916667 31.9166667 24.2916667 32.075 24.45 32.075 24.45 32.2333333 24.6083333 32.2333333 24.6083333 32.55 24.7666667 32.55 24.7666667 32.7083333 24.925 32.7083333 24.925 32.8666667 25.0833333 32.8666667 25.0833333 33.025 25.2416667 33.025 25.2416667 33.3416667 25.4 33.3416667 25.4 33.5 25.5583333 33.5 25.5583333 33.6583333 25.7166667 33.6583333 25.7166667 33.8166667 25.875 33.8166667 25.875 33.975 26.0333333 33.975 26.0333333 34.1333333 26.1916667 34.1333333 26.1916667 34.2916667 26.35 34.2916667 26.35 34.45 26.5083333 34.45 26.5083333 34.6083333 26.6666667 34.6083333 26.6666667 34.7666667 26.825 34.7666667 26.825 34.925 26.9833333 34.925 26.9833333 35.0833333 27.1416667 35.0833333 27.1416667 35.2416667 27.3 35.2416667 27.3 35.4 27.4583333 35.4 27.4583333 35.5583333 27.6166667 35.5583333 27.6166667 35.7166667 27.9333333 35.7166667 27.9333333 35.875 28.0916667 35.875 28.0916667 36.0333333 28.25 36.0333333 28.25 36.1916667 28.4083333 36.1916667 28.4083333 36.35 28.725 36.35 28.725 36.5083333 28.8833333 36.5083333 28.8833333 36.6666667 29.0416667 36.6666667 29.0416667 36.825 29.3583333 36.825 29.3583333 36.9833333 29.5166667 36.9833333 29.5166667 37.1416667 29.675 37.1416667 29.675 37.3 29.9916667 37.3 29.9916667 37.4583333 30.15 37.4583333 30.15 37.6166667 30.4666667 37.6166667 30.4666667 37.775 30.625 37.775 30.625 37.9333333 30.9416667 37.9333333 30.9416667 38.0916667 31.1 38.0916667 31.1 38.25 31.4166667 38.25 31.4166667 38.4083333 31.7333333 38.4083333 31.7333333 38.5666667 31.8916667 38.5666667 31.8916667 38.725 32.2083333 38.725 32.2083333 38.8833333 32.525 38.8833333 32.525 39.0416667 32.8416667 39.0416667 32.8416667 39.2 33 39.2 33 39.3583333 33.3166667 39.3583333 33.3166667 39.5166667 33.6333333 39.5166667 33.6333333 39.675 33.95 39.675 33.95 39.8333333 34.2666667 39.8333333 34.2666667 39.9916667 34.7416667 39.9916667 34.7416667 40.15 35.0583333 40.15 35.0583333 40.3083333 35.375 40.3083333 35.375 40.4666667 35.6916667 40.4666667 35.6916667 40.625 36.1666667 40.625 36.1666667 40.7833333 36.4833333 40.7833333 36.4833333 40.9416667 36.9583333 40.9416667 36.9583333 41.1 37.4333333 41.1 37.4333333 41.2583333 37.75 41.2583333 37.75 41.4166667 38.225 41.4166667 38.225 41.575 38.7 41.575 38.7 41.7333333 39.3333333 41.7333333 39.3333333 41.8916667 39.8083333 41.8916667 39.8083333 42.05 40.2833333 42.05 40.2833333 42.2083333 40.9166667 42.2083333 40.9166667 42.3666667 41.55 42.3666667 41.55 42.525 42.1833333 42.525 42.1833333 42.6833333 42.8166667 42.6833333 42.8166667 42.8416667 43.6083333 42.8416667 43.6083333 43 44.4 43 44.4 43.1583333 45.1916667 43.1583333 45.1916667 43.3166667 45.5083333 43.3166667 45.5083333 43.475 45.6666667 43.475 45.6666667 43.6333333 45.825 43.6333333 45.825 43.7916667 45.9833333 43.7916667 45.9833333 43.95 46.1416667 43.95 46.1416667 44.5833333 46.3 44.5833333 46.3 44.7416667 46.1416667 44.7416667 46.1416667 44.9 46.3 44.9 46.3 45.5333333 46.1416667 45.5333333 46.1416667 45.85 45.9833333 45.85 45.9833333 46.0083333 45.825 46.0083333 45.825 46.1666667 45.6666667 46.1666667 45.6666667 46.325 45.5083333 46.325 45.5083333 46.4833333 45.1916667 46.4833333 45.1916667 46.6416667 44.4 46.6416667 44.4 46.4833333 44.2416667 46.4833333 44.2416667 46.6416667 43.925 46.6416667 43.925 46.4833333 42.975 46.4833333 42.975 46.325 42.3416667 46.325 42.3416667 46.1666667 41.55 46.1666667 41.55 46.0083333 40.9166667 46.0083333 40.9166667 45.85 40.2833333 45.85 40.2833333 45.6916667 39.65 45.6916667 39.65 45.5333333 39.175 45.5333333 39.175 45.375 38.5416667 45.375 38.5416667 45.2166667 38.0666667 45.2166667 38.0666667 45.0583333 37.5916667 45.0583333 37.5916667 44.9 37.1166667 44.9 37.1166667 44.7416667 36.6416667 44.7416667 36.6416667 44.5833333 36.1666667 44.5833333 36.1666667 44.425 35.85 44.425 35.85 44.2666667 35.375 44.2666667 35.375 44.1083333 34.9 44.1083333 34.9 43.95 34.5833333 43.95 34.5833333 43.7916667 34.2666667 43.7916667 34.2666667 43.6333333 33.7916667 43.6333333 33.7916667 43.475 33.475 43.475 33.475 43.3166667 33.1583333 43.3166667 33.1583333 43.1583333 32.8416667 43.1583333 32.8416667 43 32.525 43 32.525 42.8416667 32.2083333 42.8416667 32.2083333 42.6833333 31.8916667 42.6833333 31.8916667 42.525 31.575 42.525 31.575 42.3666667 31.2583333 42.3666667 31.2583333 42.2083333 30.9416667 42.2083333 30.9416667 42.05 30.625 42.05 30.625 41.8916667 30.4666667 41.8916667 30.4666667 41.7333333 30.15 41.7333333 30.15 41.575 29.8333333 41.575 29.8333333 41.4166667 29.675 41.4166667 29.675 41.2583333 29.3583333 41.2583333 29.3583333 41.1 29.0416667 41.1 29.0416667 40.9416667 28.8833333 40.9416667 28.8833333 40.7833333 28.5666667 40.7833333 28.5666667 40.625 28.4083333 40.625 28.4083333 40.4666667 28.0916667 40.4666667 28.0916667 40.3083333 27.9333333 40.3083333 27.9333333 40.15 27.775 40.15 27.775 39.9916667 27.4583333 39.9916667 27.4583333 39.8333333 27.3 39.8333333 27.3 39.675 26.9833333 39.675 26.9833333 39.5166667 26.825 39.5166667 26.825 39.3583333 26.6666667 39.3583333 26.6666667 39.2 26.5083333 39.2 26.5083333 39.0416667 26.1916667 39.0416667 26.1916667 38.8833333 26.0333333 38.8833333 26.0333333 38.725 25.875 38.725 25.875 38.5666667 25.7166667 38.5666667 25.7166667 38.4083333 25.5583333 38.4083333 25.5583333 38.25 25.2416667 38.25 25.2416667 38.0916667 25.0833333 38.0916667 25.0833333 37.9333333 24.925 37.9333333 24.925 37.775 24.7666667 37.775 24.7666667 37.6166667 24.6083333 37.6166667 24.6083333 37.4583333 24.45 37.4583333 24.45 37.3 24.2916667 37.3 24.2916667 37.1416667 24.1333333 37.1416667 24.1333333 36.9833333 23.975 36.9833333 23.975 36.825 23.8166667 36.825 23.8166667 36.6666667 23.6583333 36.6666667 23.6583333 36.5083333 23.3416667 36.5083333 23.3416667 36.6666667 23.1833333 36.6666667 23.1833333 36.825 23.025 36.825 23.025 36.9833333 22.8666667 36.9833333 22.8666667 37.1416667 22.7083333 37.1416667 22.7083333 37.3 22.55 37.3 22.55 37.4583333 22.3916667 37.4583333 22.3916667 37.6166667 22.2333333 37.6166667 22.2333333 37.775 22.075 37.775 22.075 37.9333333 21.9166667 37.9333333 21.9166667 38.0916667 21.6 38.0916667 21.6 38.25 21.4416667 38.25 21.4416667 38.4083333 21.2833333 38.4083333 21.2833333 38.5666667 21.125 38.5666667 21.125 38.725 20.9666667 38.725 20.9666667 38.8833333 20.65 38.8833333 20.65 39.0416667 20.4916667 39.0416667 20.4916667 39.2 20.3333333 39.2 20.3333333 39.3583333 20.175 39.3583333 20.175 39.5166667 19.8583333 39.5166667 19.8583333 39.675 19.7 39.675 19.7 39.8333333 19.5416667 39.8333333 19.5416667 39.9916667 19.225 39.9916667 19.225 40.15 19.0666667 40.15 19.0666667 40.3083333 18.75 40.3083333 18.75 40.4666667 18.5916667 40.4666667 18.5916667 40.625 18.275 40.625 18.275 40.7833333 18.1166667 40.7833333 18.1166667 40.9416667 17.8 40.9416667 17.8 41.1 17.6416667 41.1 17.6416667 41.2583333 17.325 41.2583333 17.325 41.4166667 17.0083333 41.4166667 17.0083333 41.575 16.85 41.575 16.85 41.7333333 16.5333333 41.7333333 16.5333333 41.8916667 16.2166667 41.8916667 16.2166667 42.05 15.9 42.05 15.9 42.2083333 15.7416667 42.2083333 15.7416667 42.3666667 15.425 42.3666667 15.425 42.525 15.1083333 42.525 15.1083333 42.6833333 14.7916667 42.6833333 14.7916667 42.8416667 14.475 42.8416667 14.475 43 14.1583333 43 14.1583333 43.1583333 13.6833333 43.1583333 13.6833333 43.3166667 13.3666667 43.3166667 13.3666667 43.475 13.05 43.475 13.05 43.6333333 12.7333333 43.6333333 12.7333333 43.7916667 12.2583333 43.7916667 12.2583333 43.95 11.9416667 43.95 11.9416667 44.1083333 11.4666667 44.1083333 11.4666667 44.2666667 11.15 44.2666667 11.15 44.425 10.675 44.425 10.675 44.5833333 10.2 44.5833333 10.2 44.7416667 9.725 44.7416667 9.725 44.9 9.25 44.9 9.25 45.0583333 8.775 45.0583333 8.775 45.2166667 8.3 45.2166667 8.3 45.375 7.825 45.375 7.825 45.5333333 7.19166667 45.5333333 7.19166667 45.6916667 6.55833333 45.6916667 6.55833333 45.85 5.925 45.85 5.925 46.0083333 5.29166667 46.0083333 5.29166667 46.1666667 4.65833333 46.1666667 4.65833333 46.325 3.86666667 46.325 3.86666667 46.4833333 3.075 46.4833333 3.075 46.6416667 2.125 46.6416667 2.125 46.8 1.80833333 46.8 1.80833333 46.6416667 1.33333333 46.6416667 1.33333333 46.4833333 1.01666667 46.4833333 1.01666667 46.325 0.858333333 46.325 0.858333333 46.1666667 0.7 46.1666667 0.7 46.0083333 0.541666667 46.0083333 0.541666667 45.6916667 0.383333333 45.6916667 0.383333333 45.0583333 0.225 45.0583333 0.225 44.9 0.383333333 44.9 0.383333333 44.2666667 0.541666667 44.2666667 0.541666667 43.95 0.7 43.95 0.7 43.7916667 0.858333333 43.7916667 0.858333333 43.6333333 1.01666667 43.6333333 1.01666667 43.475 1.175 43.475 1.175 43.3166667 1.65 43.3166667 1.65 43.1583333 2.44166667 43.1583333 2.44166667 43 3.39166667 43 3.39166667 42.8416667 4.025 42.8416667 4.025 42.6833333 4.81666667 42.6833333 4.81666667 42.525 5.45 42.525 5.45 42.3666667 6.08333333 42.3666667 6.08333333 42.2083333 6.55833333 42.2083333 6.55833333 42.05 7.19166667 42.05 7.19166667 41.8916667 7.66666667 41.8916667 7.66666667 41.7333333 8.14166667 41.7333333 8.14166667 41.575 8.61666667 41.575 8.61666667 41.4166667 9.09166667 41.4166667 9.09166667 41.2583333 9.56666667 41.2583333 9.56666667 41.1 9.88333333 41.1 9.88333333 40.9416667 10.3583333 40.9416667 10.3583333 40.7833333 10.8333333 40.7833333 10.8333333 40.625 11.15 40.625 11.15 40.4666667 11.4666667 40.4666667 11.4666667 40.3083333 11.9416667 40.3083333 11.9416667 40.15 12.2583333 40.15 12.2583333 39.9916667 12.575 39.9916667 12.575 39.8333333 12.8916667 39.8333333 12.8916667 39.675 13.2083333 39.675 13.2083333 39.5166667 13.525 39.5166667 13.525 39.3583333 13.8416667 39.3583333 13.8416667 39.2 14.1583333 39.2 14.1583333 39.0416667 14.475 39.0416667 14.475 38.8833333 14.7916667 38.8833333 14.7916667 38.725 14.95 38.725 14.95 38.5666667 15.2666667 38.5666667 15.2666667 38.4083333 15.5833333 38.4083333 15.5833333 38.25 15.7416667 38.25 15.7416667 38.0916667 16.0583333 38.0916667 16.0583333 37.9333333 16.375 37.9333333 16.375 37.775 16.5333333 37.775 16.5333333 37.6166667 16.85 37.6166667 16.85 37.4583333 17.0083333 37.4583333 17.0083333 37.3 17.1666667 37.3 17.1666667 37.1416667 17.4833333 37.1416667 17.4833333 36.9833333 17.6416667 36.9833333 17.6416667 36.825 17.9583333 36.825 17.9583333 36.6666667 18.1166667 36.6666667 18.1166667 36.5083333 18.275 36.5083333 18.275 36.35 18.4333333 36.35 18.4333333 36.1916667 18.75 36.1916667 18.75 36.0333333 18.9083333 36.0333333 18.9083333 35.875 19.0666667 35.875 19.0666667 35.7166667 19.225 35.7166667 19.225 35.5583333 19.3833333 35.5583333 19.3833333 35.4 19.7 35.4 19.7 35.2416667 19.8583333 35.2416667 19.8583333 35.0833333 20.0166667 35.0833333 20.0166667 34.925 20.175 34.925 20.175 34.7666667 20.3333333 34.7666667 20.3333333 34.6083333 20.4916667 34.6083333 20.4916667 34.45 20.65 34.45 20.65 34.2916667 20.8083333 34.2916667 20.8083333 34.1333333 20.9666667 34.1333333 20.9666667 33.975 21.125 33.975 21.125 33.5 20.9666667 33.5 20.9666667 33.1833333 20.8083333 33.1833333 20.8083333 33.025 20.65 33.025 20.65 32.7083333 20.4916667 32.7083333 20.4916667 32.55 20.3333333 32.55 20.3333333 32.2333333 20.175 32.2333333 20.175 32.075 20.0166667 32.075 20.0166667 31.7583333 19.8583333 31.7583333 19.8583333 31.4416667 19.7 31.4416667 19.7 31.125 19.5416667 31.125 19.5416667 30.9666667 19.3833333 30.9666667 19.3833333 30.65 19.225 30.65 19.225 30.3333333 19.0666667 30.3333333 19.0666667 30.0166667 18.9083333 30.0166667 18.9083333 29.7 18.75 29.7 18.75 29.3833333 18.5916667 29.3833333 18.5916667 28.9083333 18.4333333 28.9083333 18.4333333 28.5916667 18.275 28.5916667 18.275 28.1166667 18.1166667 28.1166667 18.1166667 27.8 17.9583333 27.8 17.9583333 27.325 17.8 27.325 17.8 26.85 17.6416667 26.85 17.6416667 26.375 17.4833333 26.375 17.4833333 25.9 17.325 25.9 17.325 25.425 17.1666667 25.425 17.1666667 24.7916667 17.0083333 24.7916667 17.0083333 24 16.85 24 16.85 23.3666667 16.6916667 23.3666667 16.6916667 22.4166667 16.5333333 22.4166667 16.5333333 21.3083333 16.375 21.3083333 16.375 19.4083333 16.2166667 19.4083333 16.2166667 14.8166667 16.375 14.8166667 16.375 12.9166667 16.5333333 12.9166667"></polygon>
        </g>
    </g>
</svg>