<?xml version="1.0" encoding="UTF-8" standalone="no"?>
<svg width="47px" height="47px" viewBox="0 0 47 47" version="1.1" xmlns="http://www.w3.org/2000/svg" xmlns:xlink="http://www.w3.org/1999/xlink">
    <!-- Generator: Sketch 3.7.1 (28215) - http://www.bohemiancoding.com/sketch -->
    <title>Loomio_icon</title>
    <desc>Created with Sketch.</desc>
    <defs></defs>
    <g id="Symbols" stroke="none" stroke-width="1" fill="none" fill-rule="evenodd">
        <g id="Loomio_icon" fill="#F9A82B">
            <polygon id="Shape" points="16.3083333 11.5583333 16.3083333 10.925 16.4666667 10.925 16.4666667 9.975 16.625 9.975 16.625 9.025 16.7833333 9.025 16.7833333 8.39166667 16.9416667 8.39166667 16.9416667 7.6 17.1 7.6 17.1 7.125 17.2583333 7.125 17.2583333 6.49166667 17.4166667 6.49166667 17.4166667 6.01666667 17.575 6.01666667 17.575 5.54166667 17.7333333 5.54166667 17.7333333 5.225 17.8916667 5.225 17.8916667 4.75 18.05 4.75 18.05 4.43333333 18.2083333 4.43333333 18.2083333 4.11666667 18.3666667 4.11666667 18.3666667 3.8 18.525 3.8 18.525 3.48333333 18.6833333 3.48333333 18.6833333 3.16666667 18.8416667 3.16666667 18.8416667 2.85 19 2.85 19 2.69166667 19.1583333 2.69166667 19.1583333 2.375 19.3166667 2.375 19.3166667 2.21666667 19.475 2.21666667 19.475 2.05833333 19.6333333 2.05833333 19.6333333 1.9 19.7916667 1.9 19.7916667 1.74166667 19.95 1.74166667 19.95 1.58333333 20.1083333 1.58333333 20.1083333 1.425 20.2666667 1.425 20.2666667 1.26666667 20.425 1.26666667 20.425 1.10833333 20.5833333 1.10833333 20.5833333 0.95 20.7416667 0.95 20.7416667 0.791666667 21.0583333 0.791666667 21.0583333 0.633333333 21.375 0.633333333 21.375 0.475 21.6916667 0.475 21.6916667 0.316666667 22.1666667 0.316666667 22.1666667 0.158333333 23.1166667 0.158333333 23.1166667 0 23.4333333 0 23.4333333 0.158333333 24.3833333 0.158333333 24.3833333 0.316666667 24.8583333 0.316666667 24.8583333 0.475 25.175 0.475 25.175 0.633333333 25.4916667 0.633333333 25.4916667 0.791666667 25.65 0.791666667 25.65 0.95 25.9666667 0.95 25.9666667 1.10833333 26.125 1.10833333 26.125 1.26666667 26.2833333 1.26666667 26.2833333 1.425 26.4416667 1.425 26.4416667 1.58333333 26.6 1.58333333 26.6 1.74166667 26.7583333 1.74166667 26.7583333 1.9 26.9166667 1.9 26.9166667 2.05833333 27.075 2.05833333 27.075 2.21666667 27.2333333 2.21666667 27.2333333 2.53333333 27.3916667 2.53333333 27.3916667 2.69166667 27.55 2.69166667 27.55 3.00833333 27.7083333 3.00833333 27.7083333 3.16666667 27.8666667 3.16666667 27.8666667 3.48333333 28.025 3.48333333 28.025 3.8 28.1833333 3.8 28.1833333 4.11666667 28.3416667 4.11666667 28.3416667 4.43333333 28.5 4.43333333 28.5 4.90833333 28.6583333 4.90833333 28.6583333 5.225 28.8166667 5.225 28.8166667 5.7 28.975 5.7 28.975 6.175 29.1333333 6.175 29.1333333 6.65 29.2916667 6.65 29.2916667 7.28333333 29.45 7.28333333 29.45 7.91666667 29.6083333 7.91666667 29.6083333 8.55 29.7666667 8.55 29.7666667 9.34166667 29.925 9.34166667 29.925 10.2916667 30.0833333 10.2916667 30.0833333 11.4 30.2416667 11.4 30.2416667 12.825 30.4 12.825 30.4 15.5166667 30.5583333 15.5166667 30.5583333 17.1 30.4 17.1 30.4 19.95 30.2416667 19.95 30.2416667 21.2166667 30.0833333 21.2166667 30.0833333 22.1666667 29.925 22.1666667 29.925 23.1166667 29.7666667 23.1166667 29.7666667 23.75 29.6083333 23.75 29.6083333 24.3833333 29.45 24.3833333 29.45 25.0166667 29.2916667 25.0166667 29.2916667 25.4916667 29.1333333 25.4916667 29.1333333 25.9666667 28.975 25.9666667 28.975 26.4416667 28.8166667 26.4416667 28.8166667 26.9166667 28.6583333 26.9166667 28.6583333 27.3916667 28.5 27.3916667 28.5 27.7083333 28.3416667 27.7083333 28.3416667 28.1833333 28.1833333 28.1833333 28.1833333 28.5 28.025 28.5 28.025 28.8166667 27.8666667 28.8166667 27.8666667 29.1333333 27.7083333 29.1333333 27.7083333 29.45 27.55 29.45 27.55 29.7666667 27.2333333 29.7666667 27.2333333 29.6083333 27.075 29.6083333 27.075 29.45 26.9166667 29.45 26.9166667 29.2916667 26.7583333 29.2916667 26.7583333 29.1333333 26.6 29.1333333 26.6 28.975 26.4416667 28.975 26.4416667 28.8166667 26.2833333 28.8166667 26.2833333 28.6583333 26.125 28.6583333 26.125 28.5 25.9666667 28.5 25.9666667 28.3416667 25.8083333 28.3416667 25.8083333 28.025 25.65 28.025 25.65 27.8666667 25.4916667 27.8666667 25.4916667 27.7083333 25.3333333 27.7083333 25.3333333 27.3916667 25.175 27.3916667 25.175 27.2333333 25.0166667 27.2333333 25.0166667 26.7583333 25.175 26.7583333 25.175 26.4416667 25.3333333 26.4416667 25.3333333 25.9666667 25.4916667 25.9666667 25.4916667 25.65 25.65 25.65 25.65 25.175 25.8083333 25.175 25.8083333 24.7 25.9666667 24.7 25.9666667 24.225 26.125 24.225 26.125 23.5916667 26.2833333 23.5916667 26.2833333 22.9583333 26.4416667 22.9583333 26.4416667 22.325 26.6 22.325 26.6 21.375 26.7583333 21.375 26.7583333 20.2666667 26.9166667 20.2666667 26.9166667 18.525 27.075 18.525 27.075 13.9333333 26.9166667 13.9333333 26.9166667 12.1916667 26.7583333 12.1916667 26.7583333 10.925 26.6 10.925 26.6 9.975 26.4416667 9.975 26.4416667 9.18333333 26.2833333 9.18333333 26.2833333 8.55 26.125 8.55 26.125 7.91666667 25.9666667 7.91666667 25.9666667 7.44166667 25.8083333 7.44166667 25.8083333 6.96666667 25.65 6.96666667 25.65 6.49166667 25.4916667 6.49166667 25.4916667 6.01666667 25.3333333 6.01666667 25.3333333 5.7 25.175 5.7 25.175 5.38333333 25.0166667 5.38333333 25.0166667 5.06666667 24.8583333 5.06666667 24.8583333 4.90833333 24.7 4.90833333 24.7 4.59166667 24.5416667 4.59166667 24.5416667 4.43333333 24.3833333 4.43333333 24.3833333 4.275 24.225 4.275 24.225 4.11666667 24.0666667 4.11666667 24.0666667 3.95833333 23.9083333 3.95833333 23.9083333 3.8 23.75 3.8 23.75 3.64166667 22.8 3.64166667 22.8 3.8 22.6416667 3.8 22.6416667 3.95833333 22.325 3.95833333 22.325 4.11666667 22.1666667 4.11666667 22.1666667 4.43333333 22.0083333 4.43333333 22.0083333 4.59166667 21.85 4.59166667 21.85 4.75 21.6916667 4.75 21.6916667 5.06666667 21.5333333 5.06666667 21.5333333 5.38333333 21.375 5.38333333 21.375 5.7 21.2166667 5.7 21.2166667 6.01666667 21.0583333 6.01666667 21.0583333 6.49166667 20.9 6.49166667 20.9 6.80833333 20.7416667 6.80833333 20.7416667 7.28333333 20.5833333 7.28333333 20.5833333 7.75833333 20.425 7.75833333 20.425 8.39166667 20.2666667 8.39166667 20.2666667 9.025 20.1083333 9.025 20.1083333 9.81666667 19.95 9.81666667 19.95 10.6083333 19.7916667 10.6083333 19.7916667 11.7166667 19.6333333 11.7166667 19.6333333 13.1416667 19.475 13.1416667 19.475 19.475 19.6333333 19.475 19.6333333 20.7416667 19.7916667 20.7416667 19.7916667 21.6916667 19.95 21.6916667 19.95 22.4833333 20.1083333 22.4833333 20.1083333 23.1166667 20.2666667 23.1166667 20.2666667 23.75 20.425 23.75 20.425 24.225 20.5833333 24.225 20.5833333 24.7 20.7416667 24.7 20.7416667 25.175 20.9 25.175 20.9 25.65 21.0583333 25.65 21.0583333 26.125 21.2166667 26.125 21.2166667 26.4416667 21.375 26.4416667 21.375 26.7583333 21.5333333 26.7583333 21.5333333 27.075 21.6916667 27.075 21.6916667 27.55 21.85 27.55 21.85 27.8666667 22.0083333 27.8666667 22.0083333 28.1833333 22.1666667 28.1833333 22.1666667 28.3416667 22.325 28.3416667 22.325 28.6583333 22.4833333 28.6583333 22.4833333 28.975 22.6416667 28.975 22.6416667 29.2916667 22.8 29.2916667 22.8 29.45 22.9583333 29.45 22.9583333 29.7666667 23.1166667 29.7666667 23.1166667 30.0833333 23.275 30.0833333 23.275 30.2416667 23.4333333 30.2416667 23.4333333 30.4 23.5916667 30.4 23.5916667 30.7166667 23.75 30.7166667 23.75 30.875 23.9083333 30.875 23.9083333 31.1916667 24.0666667 31.1916667 24.0666667 31.35 24.225 31.35 24.225 31.5083333 24.3833333 31.5083333 24.3833333 31.825 24.5416667 31.825 24.5416667 31.9833333 24.7 31.9833333 24.7 32.1416667 24.8583333 32.1416667 24.8583333 32.3 25.0166667 32.3 25.0166667 32.6166667 25.175 32.6166667 25.175 32.775 25.3333333 32.775 25.3333333 32.9333333 25.4916667 32.9333333 25.4916667 33.0916667 25.65 33.0916667 25.65 33.25 25.8083333 33.25 25.8083333 33.4083333 25.9666667 33.4083333 25.9666667 33.5666667 26.125 33.5666667 26.125 33.725 26.2833333 33.725 26.2833333 33.8833333 26.4416667 33.8833333 26.4416667 34.0416667 26.6 34.0416667 26.6 34.2 26.7583333 34.2 26.7583333 34.3583333 26.9166667 34.3583333 26.9166667 34.5166667 27.075 34.5166667 27.075 34.675 27.2333333 34.675 27.2333333 34.8333333 27.3916667 34.8333333 27.3916667 34.9916667 27.7083333 34.9916667 27.7083333 35.15 27.8666667 35.15 27.8666667 35.3083333 28.025 35.3083333 28.025 35.4666667 28.1833333 35.4666667 28.1833333 35.625 28.5 35.625 28.5 35.7833333 28.6583333 35.7833333 28.6583333 35.9416667 28.8166667 35.9416667 28.8166667 36.1 29.1333333 36.1 29.1333333 36.2583333 29.2916667 36.2583333 29.2916667 36.4166667 29.45 36.4166667 29.45 36.575 29.7666667 36.575 29.7666667 36.7333333 29.925 36.7333333 29.925 36.8916667 30.2416667 36.8916667 30.2416667 37.05 30.4 37.05 30.4 37.2083333 30.7166667 37.2083333 30.7166667 37.3666667 30.875 37.3666667 30.875 37.525 31.1916667 37.525 31.1916667 37.6833333 31.5083333 37.6833333 31.5083333 37.8416667 31.6666667 37.8416667 31.6666667 38 31.9833333 38 31.9833333 38.1583333 32.3 38.1583333 32.3 38.3166667 32.6166667 38.3166667 32.6166667 38.475 32.775 38.475 32.775 38.6333333 33.0916667 38.6333333 33.0916667 38.7916667 33.4083333 38.7916667 33.4083333 38.95 33.725 38.95 33.725 39.1083333 34.0416667 39.1083333 34.0416667 39.2666667 34.5166667 39.2666667 34.5166667 39.425 34.8333333 39.425 34.8333333 39.5833333 35.15 39.5833333 35.15 39.7416667 35.4666667 39.7416667 35.4666667 39.9 35.9416667 39.9 35.9416667 40.0583333 36.2583333 40.0583333 36.2583333 40.2166667 36.7333333 40.2166667 36.7333333 40.375 37.2083333 40.375 37.2083333 40.5333333 37.525 40.5333333 37.525 40.6916667 38 40.6916667 38 40.85 38.475 40.85 38.475 41.0083333 39.1083333 41.0083333 39.1083333 41.1666667 39.5833333 41.1666667 39.5833333 41.325 40.0583333 41.325 40.0583333 41.4833333 40.6916667 41.4833333 40.6916667 41.6416667 41.325 41.6416667 41.325 41.8 41.9583333 41.8 41.9583333 41.9583333 42.5916667 41.9583333 42.5916667 42.1166667 43.3833333 42.1166667 43.3833333 42.275 44.175 42.275 44.175 42.4333333 44.9666667 42.4333333 44.9666667 42.5916667 45.2833333 42.5916667 45.2833333 42.75 45.4416667 42.75 45.4416667 42.9083333 45.6 42.9083333 45.6 43.0666667 45.7583333 43.0666667 45.7583333 43.225 45.9166667 43.225 45.9166667 43.8583333 46.075 43.8583333 46.075 44.0166667 45.9166667 44.0166667 45.9166667 44.175 46.075 44.175 46.075 44.8083333 45.9166667 44.8083333 45.9166667 45.125 45.7583333 45.125 45.7583333 45.2833333 45.6 45.2833333 45.6 45.4416667 45.4416667 45.4416667 45.4416667 45.6 45.2833333 45.6 45.2833333 45.7583333 44.9666667 45.7583333 44.9666667 45.9166667 44.175 45.9166667 44.175 45.7583333 44.0166667 45.7583333 44.0166667 45.9166667 43.7 45.9166667 43.7 45.7583333 42.75 45.7583333 42.75 45.6 42.1166667 45.6 42.1166667 45.4416667 41.325 45.4416667 41.325 45.2833333 40.6916667 45.2833333 40.6916667 45.125 40.0583333 45.125 40.0583333 44.9666667 39.425 44.9666667 39.425 44.8083333 38.95 44.8083333 38.95 44.65 38.3166667 44.65 38.3166667 44.4916667 37.8416667 44.4916667 37.8416667 44.3333333 37.3666667 44.3333333 37.3666667 44.175 36.8916667 44.175 36.8916667 44.0166667 36.4166667 44.0166667 36.4166667 43.8583333 35.9416667 43.8583333 35.9416667 43.7 35.625 43.7 35.625 43.5416667 35.15 43.5416667 35.15 43.3833333 34.675 43.3833333 34.675 43.225 34.3583333 43.225 34.3583333 43.0666667 34.0416667 43.0666667 34.0416667 42.9083333 33.5666667 42.9083333 33.5666667 42.75 33.25 42.75 33.25 42.5916667 32.9333333 42.5916667 32.9333333 42.4333333 32.6166667 42.4333333 32.6166667 42.275 32.3 42.275 32.3 42.1166667 31.9833333 42.1166667 31.9833333 41.9583333 31.6666667 41.9583333 31.6666667 41.8 31.35 41.8 31.35 41.6416667 31.0333333 41.6416667 31.0333333 41.4833333 30.7166667 41.4833333 30.7166667 41.325 30.4 41.325 30.4 41.1666667 30.2416667 41.1666667 30.2416667 41.0083333 29.925 41.0083333 29.925 40.85 29.6083333 40.85 29.6083333 40.6916667 29.45 40.6916667 29.45 40.5333333 29.1333333 40.5333333 29.1333333 40.375 28.8166667 40.375 28.8166667 40.2166667 28.6583333 40.2166667 28.6583333 40.0583333 28.3416667 40.0583333 28.3416667 39.9 28.1833333 39.9 28.1833333 39.7416667 27.8666667 39.7416667 27.8666667 39.5833333 27.7083333 39.5833333 27.7083333 39.425 27.55 39.425 27.55 39.2666667 27.2333333 39.2666667 27.2333333 39.1083333 27.075 39.1083333 27.075 38.95 26.7583333 38.95 26.7583333 38.7916667 26.6 38.7916667 26.6 38.6333333 26.4416667 38.6333333 26.4416667 38.475 26.2833333 38.475 26.2833333 38.3166667 25.9666667 38.3166667 25.9666667 38.1583333 25.8083333 38.1583333 25.8083333 38 25.65 38 25.65 37.8416667 25.4916667 37.8416667 25.4916667 37.6833333 25.3333333 37.6833333 25.3333333 37.525 25.0166667 37.525 25.0166667 37.3666667 24.8583333 37.3666667 24.8583333 37.2083333 24.7 37.2083333 24.7 37.05 24.5416667 37.05 24.5416667 36.8916667 24.3833333 36.8916667 24.3833333 36.7333333 24.225 36.7333333 24.225 36.575 24.0666667 36.575 24.0666667 36.4166667 23.9083333 36.4166667 23.9083333 36.2583333 23.75 36.2583333 23.75 36.1 23.5916667 36.1 23.5916667 35.9416667 23.4333333 35.9416667 23.4333333 35.7833333 23.1166667 35.7833333 23.1166667 35.9416667 22.9583333 35.9416667 22.9583333 36.1 22.8 36.1 22.8 36.2583333 22.6416667 36.2583333 22.6416667 36.4166667 22.4833333 36.4166667 22.4833333 36.575 22.325 36.575 22.325 36.7333333 22.1666667 36.7333333 22.1666667 36.8916667 22.0083333 36.8916667 22.0083333 37.05 21.85 37.05 21.85 37.2083333 21.6916667 37.2083333 21.6916667 37.3666667 21.375 37.3666667 21.375 37.525 21.2166667 37.525 21.2166667 37.6833333 21.0583333 37.6833333 21.0583333 37.8416667 20.9 37.8416667 20.9 38 20.7416667 38 20.7416667 38.1583333 20.425 38.1583333 20.425 38.3166667 20.2666667 38.3166667 20.2666667 38.475 20.1083333 38.475 20.1083333 38.6333333 19.95 38.6333333 19.95 38.7916667 19.6333333 38.7916667 19.6333333 38.95 19.475 38.95 19.475 39.1083333 19.3166667 39.1083333 19.3166667 39.2666667 19 39.2666667 19 39.425 18.8416667 39.425 18.8416667 39.5833333 18.525 39.5833333 18.525 39.7416667 18.3666667 39.7416667 18.3666667 39.9 18.05 39.9 18.05 40.0583333 17.8916667 40.0583333 17.8916667 40.2166667 17.575 40.2166667 17.575 40.375 17.4166667 40.375 17.4166667 40.5333333 17.1 40.5333333 17.1 40.6916667 16.7833333 40.6916667 16.7833333 40.85 16.625 40.85 16.625 41.0083333 16.3083333 41.0083333 16.3083333 41.1666667 15.9916667 41.1666667 15.9916667 41.325 15.675 41.325 15.675 41.4833333 15.5166667 41.4833333 15.5166667 41.6416667 15.2 41.6416667 15.2 41.8 14.8833333 41.8 14.8833333 41.9583333 14.5666667 41.9583333 14.5666667 42.1166667 14.25 42.1166667 14.25 42.275 13.9333333 42.275 13.9333333 42.4333333 13.4583333 42.4333333 13.4583333 42.5916667 13.1416667 42.5916667 13.1416667 42.75 12.825 42.75 12.825 42.9083333 12.5083333 42.9083333 12.5083333 43.0666667 12.0333333 43.0666667 12.0333333 43.225 11.7166667 43.225 11.7166667 43.3833333 11.2416667 43.3833333 11.2416667 43.5416667 10.925 43.5416667 10.925 43.7 10.45 43.7 10.45 43.8583333 9.975 43.8583333 9.975 44.0166667 9.5 44.0166667 9.5 44.175 9.025 44.175 9.025 44.3333333 8.55 44.3333333 8.55 44.4916667 8.075 44.4916667 8.075 44.65 7.6 44.65 7.6 44.8083333 6.96666667 44.8083333 6.96666667 44.9666667 6.33333333 44.9666667 6.33333333 45.125 5.7 45.125 5.7 45.2833333 5.06666667 45.2833333 5.06666667 45.4416667 4.43333333 45.4416667 4.43333333 45.6 3.64166667 45.6 3.64166667 45.7583333 2.85 45.7583333 2.85 45.9166667 1.9 45.9166667 1.9 46.075 1.58333333 46.075 1.58333333 45.9166667 1.10833333 45.9166667 1.10833333 45.7583333 0.791666667 45.7583333 0.791666667 45.6 0.633333333 45.6 0.633333333 45.4416667 0.475 45.4416667 0.475 45.2833333 0.316666667 45.2833333 0.316666667 44.9666667 0.158333333 44.9666667 0.158333333 44.3333333 0 44.3333333 0 44.175 0.158333333 44.175 0.158333333 43.5416667 0.316666667 43.5416667 0.316666667 43.225 0.475 43.225 0.475 43.0666667 0.633333333 43.0666667 0.633333333 42.9083333 0.791666667 42.9083333 0.791666667 42.75 0.95 42.75 0.95 42.5916667 1.425 42.5916667 1.425 42.4333333 2.21666667 42.4333333 2.21666667 42.275 3.16666667 42.275 3.16666667 42.1166667 3.8 42.1166667 3.8 41.9583333 4.59166667 41.9583333 4.59166667 41.8 5.225 41.8 5.225 41.6416667 5.85833333 41.6416667 5.85833333 41.4833333 6.33333333 41.4833333 6.33333333 41.325 6.96666667 41.325 6.96666667 41.1666667 7.44166667 41.1666667 7.44166667 41.0083333 7.91666667 41.0083333 7.91666667 40.85 8.39166667 40.85 8.39166667 40.6916667 8.86666667 40.6916667 8.86666667 40.5333333 9.34166667 40.5333333 9.34166667 40.375 9.65833333 40.375 9.65833333 40.2166667 10.1333333 40.2166667 10.1333333 40.0583333 10.6083333 40.0583333 10.6083333 39.9 10.925 39.9 10.925 39.7416667 11.2416667 39.7416667 11.2416667 39.5833333 11.7166667 39.5833333 11.7166667 39.425 12.0333333 39.425 12.0333333 39.2666667 12.35 39.2666667 12.35 39.1083333 12.6666667 39.1083333 12.6666667 38.95 12.9833333 38.95 12.9833333 38.7916667 13.3 38.7916667 13.3 38.6333333 13.6166667 38.6333333 13.6166667 38.475 13.9333333 38.475 13.9333333 38.3166667 14.25 38.3166667 14.25 38.1583333 14.5666667 38.1583333 14.5666667 38 14.725 38 14.725 37.8416667 15.0416667 37.8416667 15.0416667 37.6833333 15.3583333 37.6833333 15.3583333 37.525 15.5166667 37.525 15.5166667 37.3666667 15.8333333 37.3666667 15.8333333 37.2083333 16.15 37.2083333 16.15 37.05 16.3083333 37.05 16.3083333 36.8916667 16.625 36.8916667 16.625 36.7333333 16.7833333 36.7333333 16.7833333 36.575 16.9416667 36.575 16.9416667 36.4166667 17.2583333 36.4166667 17.2583333 36.2583333 17.4166667 36.2583333 17.4166667 36.1 17.7333333 36.1 17.7333333 35.9416667 17.8916667 35.9416667 17.8916667 35.7833333 18.05 35.7833333 18.05 35.625 18.2083333 35.625 18.2083333 35.4666667 18.525 35.4666667 18.525 35.3083333 18.6833333 35.3083333 18.6833333 35.15 18.8416667 35.15 18.8416667 34.9916667 19 34.9916667 19 34.8333333 19.1583333 34.8333333 19.1583333 34.675 19.475 34.675 19.475 34.5166667 19.6333333 34.5166667 19.6333333 34.3583333 19.7916667 34.3583333 19.7916667 34.2 19.95 34.2 19.95 34.0416667 20.1083333 34.0416667 20.1083333 33.8833333 20.2666667 33.8833333 20.2666667 33.725 20.425 33.725 20.425 33.5666667 20.5833333 33.5666667 20.5833333 33.4083333 20.7416667 33.4083333 20.7416667 33.25 20.9 33.25 20.9 32.775 20.7416667 32.775 20.7416667 32.4583333 20.5833333 32.4583333 20.5833333 32.3 20.425 32.3 20.425 31.9833333 20.2666667 31.9833333 20.2666667 31.825 20.1083333 31.825 20.1083333 31.5083333 19.95 31.5083333 19.95 31.35 19.7916667 31.35 19.7916667 31.0333333 19.6333333 31.0333333 19.6333333 30.7166667 19.475 30.7166667 19.475 30.4 19.3166667 30.4 19.3166667 30.2416667 19.1583333 30.2416667 19.1583333 29.925 19 29.925 19 29.6083333 18.8416667 29.6083333 18.8416667 29.2916667 18.6833333 29.2916667 18.6833333 28.975 18.525 28.975 18.525 28.6583333 18.3666667 28.6583333 18.3666667 28.1833333 18.2083333 28.1833333 18.2083333 27.8666667 18.05 27.8666667 18.05 27.3916667 17.8916667 27.3916667 17.8916667 27.075 17.7333333 27.075 17.7333333 26.6 17.575 26.6 17.575 26.125 17.4166667 26.125 17.4166667 25.65 17.2583333 25.65 17.2583333 25.175 17.1 25.175 17.1 24.7 16.9416667 24.7 16.9416667 24.0666667 16.7833333 24.0666667 16.7833333 23.275 16.625 23.275 16.625 22.6416667 16.4666667 22.6416667 16.4666667 21.6916667 16.3083333 21.6916667 16.3083333 20.5833333 16.15 20.5833333 16.15 18.6833333 15.9916667 18.6833333 15.9916667 14.0916667 16.15 14.0916667 16.15 12.1916667 16.3083333 12.1916667"></polygon>
        </g>
    </g>
</svg>