<?xml version="1.0" encoding="UTF-8" standalone="no"?>
<svg width="80px" height="40px" viewBox="0 0 80 40" version="1.1" xmlns="http://www.w3.org/2000/svg" xmlns:xlink="http://www.w3.org/1999/xlink">
    <!-- Generator: Sketch 3.7.1 (28215) - http://www.bohemiancoding.com/sketch -->
    <title>Group 3</title>
    <desc>Created with Sketch.</desc>
    <defs></defs>
    <g id="Symbols" stroke="none" stroke-width="1" fill="none" fill-rule="evenodd">
        <g id="Group-3">
            <g>
                <rect id="Rectangle-5" fill="#E62A13" x="0" y="0" width="80" height="40"></rect>
                <path d="M54.3230926,26.2672354 C53.82738,25.3909413 52.8800864,24.3153523 51.4817851,23.0401615 L51.437445,22.9966408 C50.772865,22.38817 50.3709908,21.9889154 50.2026965,21.7845064 C49.8947649,21.3951219 49.8257798,21.0009814 49.9940741,20.6016244 C50.1129743,20.2998949 50.5596054,19.6626831 51.3329254,18.6891196 C51.7396973,18.1731621 52.0618532,17.7596392 52.2997578,17.4480907 C54.0155778,15.2091554 54.7594593,13.7784461 54.531246,13.1554002 L54.442618,13.009803 C54.3830637,12.922148 54.2293584,12.8419595 53.9817105,12.7688285 C53.7334895,12.6958508 53.4162314,12.6837817 53.0293629,12.7324164 L48.7452056,12.7614642 C48.6758037,12.7373259 48.5767029,12.7395761 48.4475904,12.7688285 C48.3186343,12.7980809 48.2541302,12.8127583 48.2541302,12.8127583 L48.1795701,12.8493238 L48.1203805,12.8932535 C48.070778,12.9223014 48.0162256,12.9733909 47.9566713,13.0464196 C47.8974297,13.1191927 47.8478792,13.2045975 47.8082806,13.3019181 C47.3418501,14.4797371 46.8115408,15.5748107 46.2163627,16.5870877 C45.8493978,17.1907001 45.5123924,17.7138173 45.2046171,18.156746 C44.8972586,18.5995213 44.6393984,18.9257471 44.4312971,19.134861 C44.2228831,19.3441795 44.0347895,19.5118695 43.86587,19.6385447 C43.697211,19.7652711 43.5684633,19.8188153 43.4793142,19.7992285 C43.3899567,19.7796416 43.3058096,19.7602082 43.2261433,19.7407748 C43.0873917,19.6531198 42.9757861,19.5339111 42.8916389,19.3830463 C42.8071271,19.2321816 42.7502301,19.0422965 42.720479,18.8135446 C42.6908842,18.5846393 42.6733774,18.387748 42.6683755,18.2222059 C42.6637383,18.0568684 42.6658745,17.8230024 42.6759305,17.5212729 C42.686247,17.21939 42.6908842,17.0151344 42.6908842,16.908046 C42.6908842,16.538095 42.6982308,16.1365902 42.7129761,15.7034293 C42.7279819,15.2702685 42.740122,14.9270639 42.7502822,14.6742248 C42.7603902,14.42113 42.7650796,14.1533578 42.7650796,13.8710617 C42.7650796,13.5887657 42.7475728,13.367378 42.7129761,13.2066943 C42.6787962,13.0462151 42.626328,12.8904408 42.5571866,12.7394226 C42.4876285,12.5885579 42.3858183,12.471855 42.2522249,12.3890073 C42.118371,12.3062618 41.9519525,12.2405973 41.7539071,12.1918091 C41.228235,12.0750552 40.5588615,12.0118965 39.7454739,12.0020775 C37.9009582,11.9826441 36.7157601,12.0995515 36.1901401,12.3526463 C35.9818825,12.4595813 35.7934241,12.60569 35.6249215,12.7905121 C35.4463628,13.00474 35.4214573,13.1216475 35.5503614,13.1408763 C36.1454874,13.2283779 36.5667962,13.4376963 36.8147568,13.7686271 L36.9041142,13.9439882 C36.9736203,14.0705101 37.0430221,14.2945059 37.1124761,14.6156688 C37.1818258,14.9368318 37.2265827,15.2921055 37.2462779,15.6812854 C37.2957762,16.3919863 37.2957762,17.0003548 37.2462779,17.5064422 C37.1966232,18.0127341 37.1497301,18.4068746 37.1049732,18.6891707 C37.0602163,18.9714668 36.9933154,19.2002187 36.9041142,19.3753752 C36.8147568,19.5505829 36.7553067,19.6576713 36.7255035,19.6965382 C36.6957524,19.735405 36.6709511,19.7599014 36.651256,19.7695158 C36.522352,19.8179971 36.3882897,19.842698 36.2495381,19.842698 C36.1105781,19.842698 35.9420754,19.7744764 35.7437695,19.6381356 C35.5455157,19.5017948 35.3397591,19.3145179 35.1264995,19.0759982 C34.9132399,18.8374273 34.6727302,18.5040418 34.4048661,18.0757904 C34.1372105,17.6475391 33.8594989,17.1414006 33.5718876,16.557375 L33.333931,16.1338286 C33.1851755,15.8613515 32.9819719,15.4646027 32.7241117,14.9439403 C32.4660952,14.4230733 32.2380383,13.9192362 32.0397845,13.4325311 C31.9605351,13.2281222 31.8414786,13.0725013 31.6828235,12.9654129 L31.6083676,12.9214832 C31.5588693,12.8826163 31.4794115,12.8413458 31.370411,12.7973649 C31.2612541,12.7534352 31.1473559,12.7219326 31.0282473,12.7025503 L26.9522434,12.7315981 C26.5357281,12.7315981 26.2531188,12.8242137 26.1043112,13.0091893 L26.0447569,13.0966908 C26.0150058,13.1454278 26,13.2232638 26,13.3304034 C26,13.4374918 26.0297511,13.5689231 26.0893054,13.7245439 C26.6843272,15.0971575 27.3314005,16.4209319 28.0305251,17.6960715 C28.7296498,18.9712111 29.3371765,19.99837 29.8527405,20.7766276 C30.3684087,21.5554477 30.8940287,22.2904915 31.4296005,22.9814009 C31.9651723,23.6725661 32.3196844,24.1154948 32.493137,24.3100848 C32.6667979,24.5050327 32.8032048,24.6507834 32.9023578,24.748104 L33.2743246,25.0984682 C33.5123333,25.3321296 33.8618435,25.6119709 34.3230115,25.9379922 C34.7842837,26.2642181 35.29495,26.585381 35.855271,26.9019925 C36.4156961,27.2180925 37.0676671,27.4760457 37.8115486,27.6755451 C38.555326,27.8752491 39.2792518,27.9553865 39.9834305,27.9167242 L41.6941965,27.9167242 C42.0411537,27.8873183 42.3040158,27.7802299 42.4826786,27.5954078 L42.5418682,27.5222256 C42.5816753,27.4641299 42.6189293,27.3738667 42.6533176,27.2524078 C42.6881227,27.1307443 42.7054211,26.9967048 42.7054211,26.850903 C42.6952609,26.4324195 42.7277214,26.0552576 42.8019167,25.7194685 C42.87606,25.3837816 42.9605719,25.1306868 43.0550876,24.9602352 C43.1495512,24.789937 43.256155,24.6462319 43.3747946,24.5297336 C43.4936948,24.4129797 43.578415,24.3422522 43.6281218,24.3179093 C43.6775159,24.2934129 43.7169582,24.2767922 43.7467093,24.2668198 C43.9847181,24.1889838 44.2648264,24.2643651 44.5874512,24.4933215 C44.9098155,24.7220734 45.2121721,25.0045229 45.4949898,25.3402098 C45.7776513,25.6762035 46.1172618,26.0531608 46.5138736,26.4716443 C46.9107459,26.8902813 47.2577551,27.2014718 47.5551618,27.4061876 L47.8525686,27.5813953 C48.0511871,27.6983027 48.3090472,27.8053911 48.6264617,27.9027116 C48.943303,27.9999811 49.2209104,28.024324 49.4592839,27.9756893 L53.2673717,27.917389 C53.6440278,27.917389 53.9371099,27.8561737 54.1450029,27.7347148 C54.3533126,27.6130513 54.4770584,27.4790118 54.5169697,27.33321 C54.5567768,27.1872547 54.558913,27.0216615 54.5245247,26.8365325 C54.4892506,26.6518638 54.4544976,26.5227338 54.4199009,26.4497562 C54.3853042,26.376574 54.3530521,26.3158701 54.3230926,26.2672354 Z" id="Shape" fill="#FFFFFF"></path>
            </g>
        </g>
    </g>
</svg>