<?xml version="1.0" encoding="UTF-8" standalone="no"?>
<svg width="80px" height="40px" viewBox="0 0 80 40" version="1.1" xmlns="http://www.w3.org/2000/svg" xmlns:xlink="http://www.w3.org/1999/xlink">
    <!-- Generator: Sketch 3.7.1 (28215) - http://www.bohemiancoding.com/sketch -->
    <title>Group 2</title>
    <desc>Created with Sketch.</desc>
    <defs></defs>
    <g id="Symbols" stroke="none" stroke-width="1" fill="none" fill-rule="evenodd">
        <g id="Group-2">
            <g>
                <rect id="Rectangle-5" fill="#E62A13" x="0" y="0" width="80" height="40"></rect>
                <path d="M51.0745611,13.1304069 C50.2618813,13.4920151 49.3894563,13.7361367 48.473122,13.84616 C49.4084116,13.2837653 50.1265547,12.3932269 50.4648713,11.3322366 C49.589567,11.8527406 48.6202058,12.2309606 47.5889399,12.4348768 C46.7628234,11.5515609 45.5854335,11 44.2832744,11 C41.7821306,11 39.7543902,13.0343472 39.7543902,15.5439371 C39.7543902,15.900008 39.7942204,16.2469304 39.8714814,16.5794078 C36.1077687,16.3901774 32.7697112,14.5809325 30.5368213,11.8315544 C30.1469174,12.5027686 29.9232925,13.2832838 29.9232925,14.1160421 C29.9232925,15.6924805 30.7227755,17.0830591 31.9378362,17.8982425 C31.1959389,17.8746489 30.4972311,17.6707327 29.8865816,17.3303106 C29.8861017,17.3490892 29.8861017,17.3678677 29.8861017,17.3871278 C29.8861017,19.5890378 31.4476369,21.4254875 33.5190466,21.84295 C33.1394601,21.9469545 32.7392387,22.002568 32.3258206,22.002568 C32.0342924,22.002568 31.7509222,21.9741594 31.4737905,21.9209534 C32.0501285,23.7261054 33.7232362,25.0401252 35.704668,25.0764786 C34.15441,26.2954017 32.2020111,27.0219886 30.0802138,27.0219886 C29.7147839,27.0219886 29.3543927,27.000321 29,26.957708 C31.0039862,28.2474119 33.3839598,29 35.9424495,29 C44.272477,29 48.8279946,22.0752749 48.8279946,16.0702191 C48.8279946,15.8737662 48.8236757,15.677554 48.8147979,15.4823048 C49.6994599,14.8423883 50.4670308,14.0421315 51.0745611,13.1304069 L51.0745611,13.1304069 Z" id="Twitter" fill="#FFFFFF"></path>
            </g>
        </g>
    </g>
</svg>