
<svg width="200px" height="50px" viewBox="0 316 200 50" version="1.1" xmlns="http://www.w3.org/2000/svg" xmlns:xlink="http://www.w3.org/1999/xlink">
    <!-- Generator: Sketch 3.7.2 (28276) - http://www.bohemiancoding.com/sketch -->
    <desc>Created with Sketch.</desc>
    <defs></defs>
    <g id="Share_Action" stroke="none" stroke-width="1" fill="none" fill-rule="evenodd" transform="translate(0.000000, 316.000000)">
        <rect id="Rectangle-354" fill="#E62A13" x="0" y="0" width="50" height="50"></rect>
        <rect id="Rectangle-354" fill="#E62A13" x="50" y="0" width="50" height="50"></rect>
        <rect id="Rectangle-354" fill="#E62A13" x="100" y="0" width="50" height="50"></rect>
        <rect id="Rectangle-354" fill="#E62A13" x="150" y="0" width="50" height="50"></rect>
        <g id="Rectangle-327-+-Rectangle-327" transform="translate(15.000000, 15.000000)" fill="#FFFFFF">
            <path d="M0.81589244,0.81589244 C1.26649739,0.365287488 1.99532777,0.363542894 2.44795251,0.816167626 L18.2213226,16.5895378 C18.6720796,17.0402947 18.6753443,17.7678513 18.2215978,18.2215978 L18.2215978,18.2215978 C17.7709929,18.6722028 17.0421625,18.6739474 16.5895378,18.2213226 L0.816167626,2.44795251 C0.365410693,1.99719557 0.362145953,1.26963893 0.81589244,0.81589244 L0.81589244,0.81589244 L0.81589244,0.81589244 Z" id="Rectangle-327"></path>
            <path d="M18.2215978,0.81589244 C18.6722028,1.26649739 18.6739474,1.99532777 18.2213226,2.44795251 L2.44795251,18.2213226 C1.99719557,18.6720796 1.26963893,18.6753443 0.81589244,18.2215978 L0.81589244,18.2215978 C0.365287488,17.7709929 0.363542894,17.0421625 0.816167626,16.5895378 L16.5895378,0.816167626 C17.0402947,0.365410693 17.7678513,0.362145953 18.2215978,0.81589244 L18.2215978,0.81589244 L18.2215978,0.81589244 Z" id="Rectangle-327"></path>
        </g>
        <path d="M80.0736176,17.4771497 L76.9102647,17.4771497 C76.5364119,17.4771497 76.1187067,17.9707108 76.1187067,18.6309403 L76.1187067,20.9229658 L80.0736176,20.9229658 L80.0736176,24.1896688 L76.1187067,24.1896688 L76.1187067,34 L72.3852726,34 L72.3852726,24.1896688 L69,24.1896688 L69,20.9229658 L72.3852726,20.9229658 L72.3852726,19.0000556 C72.3852726,16.2429138 74.2924092,14 76.9104862,14 L80.0738391,14 L80.0738391,17.4771497 L80.0736176,17.4771497 Z" id="Facebook" fill="#FFFFFF"></path>
        <path d="M133.473122,18.84616 C134.408412,18.2837653 135.126555,17.3932269 135.464871,16.3322366 C134.589567,16.8527406 133.620206,17.2309606 132.58894,17.4348768 C131.762823,16.5515609 130.585434,16 129.283274,16 C126.782131,16 124.75439,18.0343472 124.75439,20.5439371 C124.75439,20.900008 124.79422,21.2469304 124.871481,21.5794078 C121.107769,21.3901774 117.769711,19.5809325 115.536821,16.8315544 C115.146917,17.5027686 114.923293,18.2832838 114.923293,19.1160421 C114.923293,20.6924805 115.722776,22.0830591 116.937836,22.8982425 C116.195939,22.8746489 115.497231,22.6707327 114.886582,22.3303106 C114.886102,22.3490892 114.886102,22.3678677 114.886102,22.3871278 C114.886102,24.5890378 116.447637,26.4254875 118.519047,26.84295 C118.13946,26.9469545 117.739239,27.002568 117.325821,27.002568 C117.034292,27.002568 116.750922,26.9741594 116.47379,26.9209534 C117.050128,28.7261054 118.723236,30.0401252 120.704668,30.0764786 C119.15441,31.2954017 117.202011,32.0219886 115.080214,32.0219886 C114.714784,32.0219886 114.354393,32.000321 114,31.957708 C116.003986,33.2474119 118.38396,34 120.942449,34 C129.272477,34 133.827995,27.0752749 133.827995,21.0702191 C133.827995,20.8737662 133.823676,20.677554 133.814798,20.4823048 C134.69946,19.8423883 135.467031,19.0421315 136.074561,18.1304069 C135.261881,18.4920151 134.389456,18.7361367 133.473122,18.84616 Z" id="Twitter" fill="#FFFFFF"></path>
        <path d="M189.30024,31.2672354 C188.804927,30.3909413 187.858398,29.3153523 186.461225,28.0401615 L186.41692,27.9966408 C185.752877,27.38817 185.351327,26.9889154 185.183168,26.7845064 C184.875485,26.3951219 184.806556,26.0009814 184.974714,25.6016244 C185.093518,25.2998949 185.539789,24.6626831 186.312485,23.6891196 C186.718929,23.1731621 187.040825,22.7596392 187.278537,22.4480907 C188.992973,20.2091554 189.736254,18.7784461 189.508225,18.1554002 L189.419669,18.009803 C189.360162,17.922148 189.206581,17.8419595 188.959133,17.7688285 C188.711112,17.6958508 188.39411,17.6837817 188.007554,17.7324164 L183.726853,17.7614642 C183.657507,17.7373259 183.558486,17.7395761 183.429478,17.7688285 C183.300626,17.7980809 183.236174,17.8127583 183.236174,17.8127583 L183.161674,17.8493238 L183.102532,17.8932535 C183.05297,17.9223014 182.998461,17.9733909 182.938955,18.0464196 C182.879761,18.1191927 182.830251,18.2045975 182.790684,18.3019181 C182.32463,19.4797371 181.794749,20.5748107 181.200051,21.5870877 C180.833382,22.1907001 180.496648,22.7138173 180.189121,23.156746 C179.882011,23.5995213 179.624359,23.9257471 179.416425,24.134861 C179.20818,24.3441795 179.020238,24.5118695 178.851455,24.6385447 C178.682932,24.7652711 178.554288,24.8188153 178.465211,24.7992285 C178.375925,24.7796416 178.291846,24.7602082 178.212244,24.7407748 C178.073604,24.6531198 177.962089,24.5339111 177.87801,24.3830463 C177.793566,24.2321816 177.736715,24.0422965 177.706988,23.8135446 C177.677417,23.5846393 177.659924,23.387748 177.654926,23.2222059 C177.650293,23.0568684 177.652427,22.8230024 177.662475,22.5212729 C177.672783,22.21939 177.677417,22.0151344 177.677417,21.908046 C177.677417,21.538095 177.684758,21.1365902 177.699491,20.7034293 C177.714485,20.2702685 177.726615,19.9270639 177.736767,19.6742248 C177.746867,19.42113 177.751552,19.1533578 177.751552,18.8710617 C177.751552,18.5887657 177.73406,18.367378 177.699491,18.2066943 C177.665339,18.0462151 177.612913,17.8904408 177.543827,17.7394226 C177.474325,17.5885579 177.372597,17.471855 177.239111,17.3890073 C177.105366,17.3062618 176.939081,17.2405973 176.741196,17.1918091 C176.215948,17.0750552 175.547114,17.0118965 174.734383,17.0020775 C172.891356,16.9826441 171.707114,17.0995515 171.181918,17.3526463 C170.973828,17.4595813 170.785522,17.60569 170.617155,17.7905121 C170.438741,18.00474 170.413855,18.1216475 170.542655,18.1408763 C171.137301,18.2283779 171.55827,18.4376963 171.806031,18.7686271 L171.895316,18.9439882 C171.964766,19.0705101 172.034112,19.2945059 172.10351,19.6156688 C172.172804,19.9368318 172.217524,20.2921055 172.237204,20.6812854 C172.286662,21.3919863 172.286662,22.0003548 172.237204,22.5064422 C172.187589,23.0127341 172.140734,23.4068746 172.096013,23.6891707 C172.051292,23.9714668 171.984445,24.2002187 171.895316,24.3753752 C171.806031,24.5505829 171.746629,24.6576713 171.716849,24.6965382 C171.687122,24.735405 171.662341,24.7599014 171.642662,24.7695158 C171.513862,24.8179971 171.379908,24.842698 171.241268,24.842698 C171.10242,24.842698 170.934053,24.7744764 170.735908,24.6381356 C170.537814,24.5017948 170.332223,24.3145179 170.119136,24.0759982 C169.906048,23.8374273 169.665732,23.5040418 169.398085,23.0757904 C169.130645,22.6475391 168.853157,22.1414006 168.565778,21.557375 L168.328013,21.1338286 C168.179378,20.8613515 167.976338,20.4646027 167.718686,19.9439403 C167.460878,19.4230733 167.233005,18.9192362 167.034911,18.4325311 C166.955726,18.2281222 166.836765,18.0725013 166.678238,17.9654129 L166.603842,17.9214832 C166.554384,17.8826163 166.47499,17.8413458 166.366078,17.7973649 C166.257009,17.7534352 166.143203,17.7219326 166.02419,17.7025503 L161.951475,17.7315981 C161.535296,17.7315981 161.252915,17.8242137 161.104227,18.0091893 L161.044721,18.0966908 C161.014994,18.1454278 161,18.2232638 161,18.3304034 C161,18.4374918 161.029727,18.5689231 161.089233,18.7245439 C161.683775,20.0971575 162.330326,21.4209319 163.028887,22.6960715 C163.727447,23.9712111 164.334484,24.99837 164.849632,25.7766276 C165.364884,26.5554477 165.89008,27.2904915 166.42522,27.9814009 C166.960359,28.6725661 167.314585,29.1154948 167.487898,29.3100848 C167.661419,29.5050327 167.797716,29.6507834 167.896788,29.748104 L168.268455,30.0984682 C168.506272,30.3321296 168.8555,30.6119709 169.316296,30.9379922 C169.777196,31.2642181 170.28745,31.585381 170.847319,31.9019925 C171.407292,32.2180925 172.058737,32.4760457 172.802018,32.6755451 C173.545195,32.8752491 174.268537,32.9553865 174.972148,32.9167242 L176.681533,32.9167242 C177.028211,32.8873183 177.290861,32.7802299 177.469379,32.5954078 L177.528521,32.5222256 C177.568296,32.4641299 177.60552,32.3738667 177.639881,32.2524078 C177.674658,32.1307443 177.691942,31.9967048 177.691942,31.850903 C177.68179,31.4324195 177.714224,31.0552576 177.78836,30.7194685 C177.862443,30.3837816 177.946887,30.1306868 178.041326,29.9602352 C178.135714,29.789937 178.242232,29.6462319 178.360775,29.5297336 C178.47958,29.4129797 178.564232,29.3422522 178.613898,29.3179093 C178.663252,29.2934129 178.702663,29.2767922 178.73239,29.2668198 C178.970207,29.1889838 179.250089,29.2643651 179.572454,29.4933215 C179.894558,29.7220734 180.19667,30.0045229 180.47926,30.3402098 C180.761693,30.6762035 181.10103,31.0531608 181.497322,31.4716443 C181.893874,31.8902813 182.240603,32.2014718 182.53777,32.4061876 L182.834936,32.5813953 C183.033395,32.6983027 183.291047,32.8053911 183.608205,32.9027116 C183.924791,32.9999811 184.202174,33.024324 184.440355,32.9756893 L188.245371,32.917389 C188.621723,32.917389 188.914568,32.8561737 189.122294,32.7347148 C189.330435,32.6130513 189.454081,32.4790118 189.49396,32.33321 C189.533735,32.1872547 189.53587,32.0216615 189.501509,31.8365325 C189.466264,31.6518638 189.431539,31.5227338 189.39697,31.4497562 C189.362401,31.376574 189.330175,31.3158701 189.30024,31.2672354 Z" id="Shape" fill="#FFFFFF"></path>
    </g>
</svg>