<svg width="50px" height="50px" viewBox="346 578 50 50" version="1.1" xmlns="http://www.w3.org/2000/svg" xmlns:xlink="http://www.w3.org/1999/xlink">
    <!-- Generator: Sketch 3.7.2 (28276) - http://www.bohemiancoding.com/sketch -->
    <desc>Created with Sketch.</desc>
    <defs></defs>
    <g id="Share_button" stroke="none" stroke-width="1" fill="none" fill-rule="evenodd" transform="translate(346.000000, 578.000000)">
        <circle id="Oval-50" fill="#E62A13" cx="25" cy="25" r="25"></circle>
        <g id="Download" transform="translate(17.000000, 16.000000)" fill="#FFFFFF">
            <g id="Shape-+-Shape">
                <path d="M14.868153,11.6375002 L14.868153,16.1000002 L1.13184699,16.1 L1.13184699,11.6375 C1.13184699,11.2856 0.878313264,11 0.565923495,11 C0.253533726,11 0,11.2856 0,11.6375 L0,16.7375 C0,17.0894 0.253533726,17.375 0.565923495,17.375 L15.4340765,17.3750002 C15.7464663,17.3750002 16,17.0894002 16,16.7375002 L16,11.6375002 C16,11.2856002 15.7464663,11.0000002 15.4340765,11.0000002 C15.1216867,11.0000002 14.868153,11.2856002 14.868153,11.6375002 Z" id="Shape"></path>
                <path d="M8.45203125,12.4851633 L12.8264062,8.08641331 C13.0732812,7.83715081 13.0726562,7.43361331 12.8264062,7.18498831 C12.5801562,6.93572581 12.1801562,6.93572581 11.9339062,7.18498831 L8.63703125,10.4999883 L8.63703108,0.6375 C8.63703108,0.2856 8.35453108,2.88657986e-14 8.00578108,2.88657986e-14 C7.65703108,2.88657986e-14 7.37453108,0.2856 7.37453108,0.6375 L7.37453125,10.4999883 L4.07765625,7.18498831 C3.83078125,6.93572581 3.43140625,6.93572581 3.18515625,7.18498831 C2.93828125,7.43425081 2.93828125,7.83778831 3.18515625,8.08641331 L7.55890625,12.4851633 C7.80203125,12.7306008 8.20890625,12.7331508 8.45203125,12.4851633 Z" id="Shape" transform="translate(8.005664, 6.335099) rotate(-180.000000) translate(-8.005664, -6.335099) "></path>
            </g>
        </g>
    </g>
</svg>