
<svg width="171px" height="172px" viewBox="229 1443 171 172" version="1.1" xmlns="http://www.w3.org/2000/svg" xmlns:xlink="http://www.w3.org/1999/xlink">
    <!-- Generator: Sketch 3.7.2 (28276) - http://www.bohemiancoding.com/sketch -->
    <desc>Created with Sketch.</desc>
    <defs></defs>
    <g id="Share_button_action" stroke="none" stroke-width="1" fill="none" fill-rule="evenodd" transform="translate(229.000000, 1443.000000)">
        <ellipse id="Oval-50" fill="#E62A13" cx="146" cy="147" rx="25" ry="25"></ellipse>
        <ellipse id="Oval-50" fill="#E62A13" cx="25" cy="147" rx="25" ry="25"></ellipse>
        <ellipse id="Oval-50" fill="#E62A13" cx="50" cy="91" rx="25" ry="25"></ellipse>
        <ellipse id="Oval-50" fill="#E62A13" cx="92" cy="49" rx="25" ry="25"></ellipse>
        <ellipse id="Oval-50" fill="#E62A13" cx="146" cy="25" rx="25" ry="25"></ellipse>
        <path d="M55.9750807,83.7602119 L52.5542107,83.7602119 C52.1499239,83.7602119 51.6982149,84.293952 51.6982149,85.0079284 L51.6982149,87.4865394 L55.9750807,87.4865394 L55.9750807,91.0191728 L51.6982149,91.0191728 L51.6982149,101.628128 L47.6608554,101.628128 L47.6608554,91.0191728 L44,91.0191728 L44,87.4865394 L47.6608554,87.4865394 L47.6608554,85.407092 C47.6608554,82.4255013 49.723245,80 52.5544502,80 L55.9753202,80 L55.9753202,83.7602119 L55.9750807,83.7602119 Z" id="Facebook" fill="#FFFFFF"></path>
        <path d="M103.034589,42.1304069 C102.223381,42.4920151 101.352536,42.7361367 100.437861,42.84616 C101.371457,42.2837653 102.088299,41.3932269 102.426003,40.3322366 C101.552284,40.8527406 100.584678,41.2309606 99.5552797,41.4348768 C98.7306591,40.5515609 97.5554012,40 96.2555999,40 C93.7589852,40 91.7349166,42.0343472 91.7349166,44.5439371 C91.7349166,44.900008 91.7746746,45.2469304 91.8517957,45.5794078 C88.0948982,45.3901774 84.7628851,43.5809325 82.5340385,40.8315544 C82.1448406,41.5027686 81.9216206,42.2832838 81.9216206,43.1160421 C81.9216206,44.6924805 82.719656,46.0830591 83.9325164,46.8982425 C83.1919626,46.8746489 82.49452,46.6707327 81.8849762,46.3303106 C81.8844972,46.3490892 81.8844972,46.3678677 81.8844972,46.3871278 C81.8844972,48.5890378 83.4432048,50.4254875 85.5108636,50.84295 C85.1319645,50.9469545 84.7324678,51.002568 84.3197983,51.002568 C84.028798,51.002568 83.7459409,50.9741594 83.469311,50.9209534 C84.0446054,52.7261054 85.7146836,54.0401252 87.6925275,54.0764786 C86.1450766,55.2954017 84.196213,56.0219886 82.0782578,56.0219886 C81.7134896,56.0219886 81.353751,56.000321 81,55.957708 C83.0003575,57.2474119 85.3760215,58 87.9298783,58 C96.2448221,58 100.792091,51.0752749 100.792091,45.0702191 C100.792091,44.8737662 100.78778,44.677554 100.778918,44.4823048 C101.661978,43.8423883 102.428159,43.0421315 103.034589,42.1304069 L103.034589,42.1304069 Z" id="Twitter" fill="#FFFFFF"></path>
        <g id="Rectangle-327-+-Rectangle-327" transform="translate(140.000000, 141.000000)" fill="#FFFFFF">
            <rect id="Rectangle-327" transform="translate(6.187184, 6.187184) rotate(-315.000000) translate(-6.187184, -6.187184) " x="-1.81281566" y="5.43718434" width="16" height="1.5" rx="2"></rect>
            <rect id="Rectangle-327" transform="translate(6.187184, 6.187184) rotate(-225.000000) translate(-6.187184, -6.187184) " x="-1.81281566" y="5.43718434" width="16" height="1.5" rx="2"></rect>
        </g>
        <path d="M159.531475,31.3755332 C159.067119,30.5540074 158.179748,29.5456427 156.869898,28.3501514 L156.828363,28.3093508 C156.205822,27.7389094 155.829369,27.3646082 155.67172,27.1729748 C155.383267,26.8079268 155.318646,26.43842 155.476294,26.0640229 C155.587673,25.7811515 156.006052,25.1837654 156.730455,24.2710496 C157.111496,23.7873395 157.413273,23.3996618 157.636129,23.1075851 C159.243412,21.0085832 159.940238,19.6672932 159.726461,19.0831877 L159.643439,18.9466903 C159.587652,18.8645137 159.44367,18.7893371 159.211687,18.7207767 C158.979168,18.6523602 158.681978,18.6410453 158.319582,18.6866404 L154.306425,18.7138727 C154.241413,18.691243 154.148581,18.6933526 154.027636,18.7207767 C153.906837,18.7482008 153.846413,18.7619609 153.846413,18.7619609 L153.776569,18.796241 L153.721124,18.8374252 C153.674659,18.8646576 153.623558,18.9125539 153.56777,18.9810184 C153.512276,19.0492432 153.46586,19.1293102 153.428766,19.2205482 C152.991841,20.3247535 152.495077,21.351385 151.937548,22.3003947 C151.593796,22.8662814 151.278108,23.3567037 150.989801,23.7719494 C150.701885,24.1870512 150.460336,24.4928879 150.265399,24.6889322 C150.070168,24.8851683 149.893973,25.0423776 149.735739,25.1611357 C149.577748,25.2799417 149.457145,25.3301394 149.373635,25.3117767 C149.28993,25.293414 149.211106,25.2751952 149.136479,25.2569764 C149.006504,25.1747998 148.901958,25.0630416 148.823134,24.9216059 C148.743968,24.7801702 148.69067,24.602153 148.662801,24.3876981 C148.635078,24.1730994 148.618679,23.9885138 148.613993,23.8333181 C148.60965,23.6783141 148.611651,23.4590648 148.621071,23.1761934 C148.630734,22.8931781 148.635078,22.7016885 148.635078,22.6012932 C148.635078,22.254464 148.64196,21.8780533 148.655773,21.471965 C148.669829,21.0658767 148.681201,20.7441224 148.690719,20.5070858 C148.700188,20.2698094 148.70458,20.018773 148.70458,19.7541204 C148.70458,19.4894678 148.688181,19.2819169 148.655773,19.1312759 C148.623755,18.9808266 148.574606,18.8347883 148.509838,18.6932087 C148.44468,18.551773 148.34931,18.4423641 148.224167,18.3646943 C148.09878,18.2871204 147.942889,18.2255599 147.757371,18.1798211 C147.264951,18.0703642 146.63792,18.011153 145.875984,18.0019477 C144.148146,17.9837288 143.037919,18.0933295 142.545548,18.3306059 C142.350464,18.4308575 142.173927,18.5678344 142.016083,18.7411051 C141.84882,18.9419438 141.825489,19.0515445 141.94624,19.0695715 C142.50372,19.1516043 142.898378,19.3478403 143.130654,19.6580879 L143.214359,19.822489 C143.279468,19.9411032 143.34448,20.1510993 143.40954,20.4521895 C143.474503,20.7532798 143.516429,21.0863489 143.534878,21.4512051 C143.581246,22.1174871 143.581246,22.6878326 143.534878,23.1622895 C143.488365,23.6369382 143.444438,24.006445 143.402512,24.2710976 C143.360586,24.5357501 143.297917,24.750205 143.214359,24.9144143 C143.130654,25.0786715 143.074964,25.1790669 143.047046,25.2155045 C143.019177,25.2519422 142.995945,25.2749075 142.977495,25.2839211 C142.856745,25.3293723 142.731163,25.3525294 142.601189,25.3525294 C142.471019,25.3525294 142.313175,25.2885717 142.127413,25.1607521 C141.9417,25.0329326 141.748959,24.8573606 141.54919,24.6337483 C141.34942,24.4100881 141.124124,24.0975392 140.873204,23.6960535 C140.62248,23.2945679 140.362335,22.820063 140.092917,22.272539 L139.870013,21.8754643 C139.730667,21.620017 139.540317,21.248065 139.298768,20.759944 C139.057073,20.2716313 138.843442,19.7992839 138.657729,19.3429979 C138.583493,19.1513645 138.471967,19.00547 138.323348,18.9050746 L138.253602,18.8638905 C138.207235,18.8274528 138.132803,18.7887617 138.030698,18.7475296 C137.928446,18.7063455 137.821753,18.6768118 137.710178,18.6586409 L133.892008,18.6858732 C133.50184,18.6858732 133.237107,18.7727004 133.097713,18.946115 L133.041926,19.0281477 C133.014057,19.0738386 133,19.1468098 133,19.2472532 C133,19.3476485 133.027869,19.4708654 133.083656,19.6167599 C133.641039,20.9035852 134.247181,22.1446236 134.902081,23.340067 C135.556982,24.5355104 136.126079,25.4984719 136.60903,26.2280883 C137.092079,26.9582322 137.58445,27.6473358 138.086143,28.2950634 C138.587837,28.9430307 138.919924,29.3582764 139.082404,29.5407045 C139.24508,29.7234682 139.372858,29.8601095 139.465739,29.9513475 L139.814177,30.2798139 C140.03713,30.4988715 140.364531,30.7612227 140.796527,31.0668677 C141.228621,31.3727045 141.706985,31.6737947 142.231862,31.9706179 C142.756836,32.2669617 143.367566,32.5087928 144.064392,32.6958235 C144.761121,32.8830461 145.439254,32.9581748 146.098889,32.9219289 L147.701438,32.9219289 C148.026447,32.8943609 148.272682,32.7939655 148.440043,32.6206948 L148.495489,32.5520865 C148.532778,32.4976218 148.567675,32.4130001 148.599888,32.2991323 C148.632491,32.1850728 148.648696,32.0594108 148.648696,31.9227216 C148.639178,31.5303933 148.669585,31.176804 148.739087,30.8620017 C148.808541,30.5472952 148.887706,30.3100189 148.976243,30.1502205 C149.064732,29.9905659 149.164592,29.8558424 149.275727,29.7466253 C149.387106,29.6371684 149.466467,29.5708614 149.51303,29.54804 C149.559299,29.5250746 149.596247,29.5094927 149.624116,29.5001436 C149.847069,29.4271724 150.109459,29.4978423 150.411675,29.7124889 C150.713648,29.9269438 150.996878,30.1917402 151.261806,30.5064467 C151.526587,30.8214408 151.844715,31.1748383 152.216239,31.5671666 C152.588007,31.9596387 152.913065,32.2513798 153.191659,32.4433009 L153.470253,32.6075581 C153.656307,32.7171588 153.897856,32.8175541 154.195192,32.9087922 C154.491991,32.9999822 154.752038,33.0228037 154.975333,32.9772087 L158.542535,32.9225522 C158.895365,32.9225522 159.169908,32.8651628 159.36465,32.7512951 C159.559783,32.6372356 159.675701,32.5115736 159.713088,32.3748843 C159.750377,32.2380513 159.752378,32.0828076 159.720165,31.9092492 C159.687122,31.7361223 159.654567,31.6150629 159.622159,31.5466464 C159.589751,31.4780381 159.559539,31.4211282 159.531475,31.3755332 Z" id="Shape" fill="#FFFFFF"></path>
        <path d="M32.3769006,155.950914 C33.1072826,155.794917 33.7041017,155.181725 33.8468582,154.442347 C33.8621809,154.362421 33.8734176,154.281211 33.8864419,154.201028 L33.8864419,139.798972 C33.8739283,139.720074 33.8632024,139.640919 33.8478797,139.562279 C33.6913328,138.755568 33.0301584,138.129526 32.2183107,138.017733 C32.1846008,138.013364 32.151657,138.005911 32.1184578,138 L17.7679841,138 C17.6814108,138.015677 17.5943268,138.027499 17.5090305,138.04703 C16.7165916,138.228726 16.1302429,138.870959 16.0173657,139.678955 C16.0127689,139.712621 16.0058737,139.746031 16,139.779697 L16,154.221074 C16.0163442,154.312564 16.0293685,154.404826 16.0497988,154.495802 C16.2249883,155.275528 16.8864181,155.879983 17.6732387,155.981753 C17.7112901,155.986379 17.7495968,155.993832 17.7876482,156 L32.0987936,156 C32.1917513,155.984066 32.2849644,155.970959 32.3769006,155.950914 Z M17.9350015,145.347002 C17.9350015,148.010765 17.9347461,150.674529 17.9352569,153.338292 C17.9352569,153.721473 18.2649503,154.050942 18.6457194,154.050942 C22.8431173,154.051199 27.04026,154.051199 31.237658,154.050942 C31.6220023,154.050942 31.9499081,153.721987 31.9499081,153.335979 C31.9501635,150.6753 31.9499081,148.014877 31.9499081,145.354455 L31.9499081,145.2992 L30.2424487,145.2992 C30.4835258,146.074557 30.5575855,146.863278 30.4630955,147.667162 C30.3680948,148.471302 30.1106735,149.219674 29.6913423,149.910737 C29.2717557,150.60257 28.7277999,151.175671 28.0617732,151.631839 C26.3354158,152.815049 24.0625488,152.919132 22.2307201,151.884466 C21.3047184,151.361993 20.5776563,150.633409 20.0707304,149.694603 C19.3145552,148.293718 19.1937612,146.823444 19.6373534,145.297915 C19.0709242,145.298429 18.5067935,145.298429 17.9350015,145.298429 L17.9350015,145.347002 Z M21.3190196,146.944746 C21.2904172,148.985551 22.9138571,150.603341 24.8600953,150.645488 C26.8852453,150.689178 28.5232418,149.060851 28.56589,147.08044 C28.6095597,145.038093 26.9725847,143.351171 24.9433486,143.352456 C22.9595699,143.351171 21.3468558,144.957396 21.3190196,146.944746 Z M31.2624297,142.616419 C31.6411557,142.60691 31.9496527,142.280268 31.9496527,141.898629 C31.9499081,141.330411 31.9499081,140.761936 31.9496527,140.193718 C31.9496527,139.786122 31.6291529,139.461793 31.2246337,139.461536 C30.6615245,139.461279 30.0984153,139.461022 29.5350507,139.461536 C29.131553,139.46205 28.8100317,139.78715 28.8097763,140.194746 C28.8095209,140.758081 28.8079887,141.321416 28.8118193,141.885009 C28.8123301,141.969046 28.8281636,142.056425 28.8547229,142.136094 C28.9558527,142.436008 29.2288521,142.620017 29.5631423,142.621559 C29.8348649,142.622073 30.1065874,142.621302 30.3785653,142.621302 C30.6727611,142.617961 30.9679785,142.623615 31.2624297,142.616419 Z" id="Path" fill="#FFFFFF"></path>
    </g>
</svg>