<?xml version="1.0" encoding="UTF-8" standalone="no"?>
<svg width="50px" height="50px" viewBox="0 0 50 50" version="1.1" xmlns="http://www.w3.org/2000/svg" xmlns:xlink="http://www.w3.org/1999/xlink">
    <!-- Generator: Sketch 3.7.1 (28215) - http://www.bohemiancoding.com/sketch -->
    <title>Open_gallery_button</title>
    <desc>Created with Sketch.</desc>
    <defs></defs>
    <g id="Symbols" stroke="none" stroke-width="1" fill="none" fill-rule="evenodd">
        <g id="Open_gallery_button">
            <g>
                <ellipse id="Oval-45" fill="#E62A13" cx="25" cy="25" rx="25" ry="25"></ellipse>
                <g id="Shape-+-Shape" transform="translate(10.000000, 10.000000)" fill="#FFFFFF">
                    <path d="M21.4463672,15.1500638 L25.8207422,10.7513138 C26.0676172,10.5020513 26.0669922,10.0985138 25.8207422,9.84988885 C25.5744922,9.60062635 25.1744922,9.60062635 24.9282422,9.84988885 L21.6313672,13.1648888 L21.631367,3.30240054 C21.631367,2.95050054 21.348867,2.66490054 21.000117,2.66490054 C20.651367,2.66490054 20.368867,2.95050054 20.368867,3.30240054 L20.3688672,13.1648888 L17.0719922,9.84988885 C16.8251172,9.60062635 16.4257422,9.60062635 16.1794922,9.84988885 C15.9326172,10.0991513 15.9326172,10.5026888 16.1794922,10.7513138 L20.5532422,15.1500638 C20.7963672,15.3955013 21.2032422,15.3980513 21.4463672,15.1500638 Z" id="Shape" transform="translate(21.000000, 9.000000) rotate(-135.000000) translate(-21.000000, -9.000000) "></path>
                    <path d="M9.44636715,27.1500638 L13.8207422,22.7513138 C14.0676172,22.5020513 14.0669922,22.0985138 13.8207422,21.8498888 C13.5744922,21.6006263 13.1744922,21.6006263 12.9282422,21.8498888 L9.63136715,25.1648888 L9.63136698,15.3024005 C9.63136698,14.9505005 9.34886698,14.6649005 9.00011698,14.6649005 C8.65136698,14.6649005 8.36886698,14.9505005 8.36886698,15.3024005 L8.36886715,25.1648888 L5.07199215,21.8498888 C4.82511715,21.6006263 4.42574215,21.6006263 4.17949215,21.8498888 C3.93261715,22.0991513 3.93261715,22.5026888 4.17949215,22.7513138 L8.55324215,27.1500638 C8.79636715,27.3955013 9.20324215,27.3980513 9.44636715,27.1500638 Z" id="Shape" transform="translate(9.000000, 21.000000) rotate(-315.000000) translate(-9.000000, -21.000000) "></path>
                </g>
            </g>
        </g>
    </g>
</svg>