<?xml version="1.0" encoding="UTF-8" standalone="no"?>
<svg width="124px" height="136px" viewBox="0 0 124 136" version="1.1" xmlns="http://www.w3.org/2000/svg" xmlns:xlink="http://www.w3.org/1999/xlink">
    <!-- Generator: Sketch 3.7.1 (28215) - http://www.bohemiancoding.com/sketch -->
    <title>Group 2</title>
    <desc>Created with Sketch.</desc>
    <defs></defs>
    <g id="Page-1" stroke="none" stroke-width="1" fill="none" fill-rule="evenodd">
        <g id="Group-2">
            <g id="Social_icons_reform">
                <g id="Page-1">
                    <g id="Artboard-1">
                        <path d="M49.5754473,4.86800964 L45.1260761,4.86800964 C44.6002384,4.86800964 44.0127208,5.5589951 44.0127208,6.48331648 L44.0127208,9.69215214 L49.5754473,9.69215214 L49.5754473,14.2655363 L44.0127208,14.2655363 L44.0127208,28 L38.7615095,28 L38.7615095,14.2655363 L34,14.2655363 L34,9.69215214 L38.7615095,9.69215214 L38.7615095,7.00007778 C38.7615095,3.14007933 41.4439667,0 45.1263876,0 L49.5757588,0 L49.5757588,4.86800964 L49.5754473,4.86800964 L49.5754473,4.86800964 Z" id="Facebook" fill="#E62A13"></path>
                        <path d="M28.3380772,7.72218656 C27.2948048,8.1842415 26.1748347,8.49617473 24.9984964,8.63676002 C26.1991685,7.91814461 27.12108,6.78023433 27.5553919,5.42452452 C26.4317255,6.08961293 25.1873143,6.5728941 23.8634332,6.83345371 C22.8029115,5.70477222 21.2914447,5 19.6198062,5 C16.4089788,5 13.80588,7.5994436 13.80588,10.8061418 C13.80588,11.2611214 13.8570117,11.7044111 13.956195,12.1292432 C9.12455285,11.8874488 4.83934273,9.57563598 1.97288462,6.0625418 C1.47234793,6.92020437 1.18527088,7.91752936 1.18527088,8.98160929 C1.18527088,10.9959474 2.21160211,12.7727978 3.77142845,13.814421 C2.81902264,13.7842736 1.92206089,13.523714 1.13814343,13.0887302 C1.13752738,13.112725 1.13752738,13.1367199 1.13752738,13.16133 C1.13752738,15.9748816 3.14213832,18.3214563 5.80129725,18.8548806 C5.31400553,18.9877752 4.80022387,19.0588369 4.26950096,19.0588369 C3.89525353,19.0588369 3.53147886,19.022537 3.17571279,18.9545515 C3.91558302,21.2611347 6.06342446,22.94016 8.60707492,22.9866116 C6.61694103,24.5441243 4.11056131,25.472541 1.38671765,25.472541 C0.917599262,25.472541 0.454949349,25.4448546 0,25.3904047 C2.57260458,27.0383597 5.62788053,28 8.91232529,28 C19.6059452,28 25.4540618,19.1517401 25.4540618,11.4786133 C25.4540618,11.2275901 25.4485174,10.9768745 25.4371206,10.7273895 C26.5727998,9.90971832 27.5581641,8.88716796 28.3380772,7.72218656 L28.3380772,7.72218656 L28.3380772,7.72218656 Z" id="Twitter" fill="#E62A13"></path>
                        <path d="M123.551934,25.5091509 C122.857936,24.2494781 121.531725,22.7033189 119.574103,20.8702321 L119.512027,20.8076712 C118.581615,19.9329944 118.018991,19.3590659 117.783379,19.065228 C117.352275,18.5054878 117.255696,17.9389107 117.491308,17.3648351 C117.657768,16.931099 118.283052,16.015107 119.3657,14.6156094 C119.935181,13.8739205 120.386199,13.2794814 120.719265,12.8316304 C123.121413,9.61316095 124.162847,7.55651631 123.843349,6.66088785 L123.71927,6.45159177 C123.635894,6.32558773 123.420706,6.21031683 123.073999,6.10519094 C122.72649,6.00028559 122.282328,5.98293615 121.740712,6.05284854 L115.742892,6.09460483 C115.64573,6.05990594 115.506988,6.06314058 115.326231,6.10519094 C115.145692,6.14724129 115.055387,6.16833999 115.055387,6.16833999 L114.951002,6.22090293 L114.868137,6.28405198 C114.798694,6.32580827 114.72232,6.39924937 114.638944,6.50422822 C114.556006,6.60883951 114.486635,6.7316089 114.431197,6.8715072 C113.778195,8.56462211 113.035762,10.1387904 112.202512,11.5939385 C111.688761,12.4616314 111.216954,13.2136123 110.786068,13.8503223 C110.355766,14.4868118 109.994762,14.9557615 109.70342,15.2563627 C109.411641,15.557258 109.14831,15.7983124 108.911822,15.9804081 C108.6757,16.1625773 108.495453,16.2395471 108.370644,16.211391 C108.245544,16.1832349 108.127738,16.1552993 108.016205,16.1273638 C107.821953,16.0013597 107.665705,15.8299972 107.547899,15.6131291 C107.429582,15.396261 107.349926,15.1233013 107.308275,14.7944704 C107.266842,14.4654191 107.242333,14.1823878 107.23533,13.944421 C107.228838,13.7067483 107.231829,13.370566 107.245907,12.9368298 C107.26035,12.5028731 107.266842,12.2092558 107.266842,12.0553162 C107.266842,11.5235115 107.277127,10.9463483 107.297771,10.3236796 C107.318779,9.7010109 107.335775,9.20765437 107.349999,8.84419816 C107.364151,8.48037437 107.370716,8.09545189 107.370716,7.68965126 C107.370716,7.28385063 107.346206,6.9656059 107.297771,6.734623 C107.249919,6.50393417 107.176464,6.28000867 107.079666,6.06292004 C106.982284,5.84605195 106.83975,5.67829162 106.652719,5.55919795 C106.465324,5.44025132 106.232338,5.34585856 105.955074,5.27572563 C105.219133,5.10789178 104.28201,5.01710124 103.143268,5.00298644 C100.560946,4.97505089 98.9016685,5.14310528 98.1658005,5.50692907 C97.8742398,5.66064811 97.6103982,5.87067934 97.3744944,6.13636113 C97.1245123,6.44431382 97.0896446,6.61236821 97.2701103,6.6400097 C98.1032868,6.7657932 98.6931191,7.06668848 99.0402638,7.5424015 L99.1653643,7.79448309 C99.2626728,7.97635823 99.3598354,8.2983522 99.4570709,8.76002393 C99.5541606,9.22169566 99.6168202,9.73240164 99.6443934,10.2918478 C99.713691,11.3134803 99.713691,12.18801 99.6443934,12.9155106 C99.5748769,13.6433052 99.5092265,14.2098823 99.4465668,14.6156829 C99.3839072,15.0214835 99.290246,15.3503144 99.1653643,15.6021019 C99.0402638,15.8539629 98.9570337,16.0079025 98.9153092,16.0637736 C98.8736577,16.1196447 98.8389359,16.1548582 98.8113628,16.168679 C98.6308971,16.2383708 98.4432099,16.2738784 98.2489577,16.2738784 C98.0544137,16.2738784 97.8185099,16.1758099 97.5408817,15.97982 C97.2633264,15.78383 96.975267,15.5146195 96.6767036,15.1717474 C96.3781402,14.8288018 96.0414266,14.34956 95.6664169,13.7339487 C95.2916991,13.1183374 94.9029028,12.3907633 94.500247,11.5512265 L94.1671077,10.9423786 C93.9588501,10.5506927 93.674365,9.98036641 93.3133608,9.2319142 C92.9521377,8.48316792 92.632858,7.75890202 92.3553027,7.05926351 C92.2443535,6.76542562 92.0776744,6.54172067 91.8555572,6.38778109 L91.751319,6.32463204 C91.6820214,6.26876094 91.5707804,6.20943465 91.4181797,6.14621209 C91.2653602,6.08306304 91.1059026,6.03777804 90.9391506,6.00991601 L85.2327451,6.0516723 C84.6496237,6.0516723 84.2539706,6.18480726 84.04564,6.45070959 L83.962264,6.57649308 C83.9206125,6.6465525 83.8996044,6.75844173 83.8996044,6.91245484 C83.8996044,7.06639442 83.9412559,7.25532696 84.0246319,7.47903191 C84.8576625,9.45216396 85.7635651,11.3550896 86.7423395,13.1881028 C87.721114,15.021116 88.5716514,16.4976568 89.2934411,17.6164021 C90.0153766,18.7359561 90.7512446,19.7925815 91.5010451,20.7857639 C92.2508456,21.7793138 92.7471626,22.4160238 92.9899961,22.6957469 C93.2331214,22.9759845 93.4240911,23.1855012 93.5629053,23.3253995 L94.0836588,23.829048 C94.416871,24.1649363 94.9061853,24.5672082 95.5518205,25.0358638 C96.1976016,25.5048135 96.9125344,25.9664852 97.6969837,26.4216142 C98.4815789,26.8760079 99.3943383,27.2468156 100.435772,27.5335961 C101.477061,27.8206706 102.490557,27.935868 103.476407,27.880291 L105.871479,27.880291 C106.357219,27.8380201 106.725226,27.6840805 106.975354,27.4183987 L107.05822,27.3131993 C107.11395,27.2296867 107.166105,27.0999334 107.214249,26.9253362 C107.262976,26.750445 107.287194,26.5577632 107.287194,26.3481731 C107.27297,25.746603 107.318414,25.2044328 107.422288,24.7217359 C107.526088,24.239186 107.644405,23.8753622 107.776727,23.6303381 C107.908976,23.3855344 108.058221,23.1789584 108.224317,23.0114921 C108.390777,22.8436582 108.509385,22.7419875 108.578975,22.7069946 C108.648127,22.6717811 108.703346,22.6478889 108.744997,22.6335535 C109.07821,22.5216643 109.470361,22.6300248 109.922036,22.9591497 C110.373346,23.2879805 110.796645,23.6940017 111.19259,24.1765516 C111.588316,24.6595426 112.063771,25.2014187 112.619027,25.8029887 C113.174649,26.4047793 113.660462,26.8521157 114.076831,27.1463947 L114.4932,27.3982557 C114.771266,27.5663101 115.13227,27.7202497 115.576651,27.860148 C116.020229,27.9999728 116.408879,28.0349657 116.742602,27.9650533 L122.073925,27.8812467 C122.601243,27.8812467 123.011558,27.7932497 123.302608,27.6186525 C123.594242,27.4437613 123.767486,27.2510795 123.823362,27.0414893 C123.879092,26.8316786 123.882083,26.5936383 123.833939,26.3275155 C123.784555,26.0620542 123.735901,25.8764298 123.687466,25.7715245 C123.63903,25.6663251 123.593877,25.5790633 123.551934,25.5091509 L123.551934,25.5091509 Z" id="Shape" fill="#E62A13"></path>
                        <path d="M76.2965774,27.9372787 C77.2357684,27.7379497 78.0032122,26.954426 78.1867814,26.0096659 C78.2064847,25.9075385 78.2209338,25.8037693 78.2376816,25.7013135 L78.2376816,7.29868646 C78.2215906,7.19787264 78.2077983,7.09673044 78.1880949,6.996245 C77.9867928,5.96544832 77.1365951,5.16550543 76.0926481,5.02265848 C76.0493008,5.01707596 76.0069387,5.00755283 75.9642482,5 L57.511115,5 C57.3997913,5.02003141 57.2878108,5.03513706 57.1781291,5.06009423 C56.1591397,5.29226156 55.4051597,6.11289263 55.260012,7.14533124 C55.254101,7.18834951 55.2452345,7.23103941 55.2376816,7.27405768 L55.2376816,25.7269275 C55.2586985,25.8438321 55.2754463,25.9617219 55.3017174,26.0779697 C55.5269918,27.0742861 56.377518,27.8466448 57.3892829,27.9766848 C57.4382127,27.9825957 57.487471,27.9921188 57.5364009,28 L75.9389623,28 C76.0584957,27.9796402 76.1783575,27.9628926 76.2965774,27.9372787 L76.2965774,27.9372787 Z M57.725881,14.3878355 C57.725881,17.7915334 57.7255526,21.1952313 57.7262094,24.5989292 C57.7262094,25.0885494 58.1501589,25.5095374 58.6397861,25.5095374 C64.037179,25.5098658 69.4342435,25.5098658 74.8316364,25.5095374 C75.325861,25.5095374 75.7475118,25.0892062 75.7475118,24.5959737 C75.7478402,21.1962164 75.7475118,17.7967875 75.7475118,14.3973587 L75.7475118,14.3267561 L73.5519065,14.3267561 C73.8619053,15.31749 73.9571379,16.3252998 73.8356342,17.3524843 C73.7134737,18.3799971 73.3824581,19.3362507 72.8432442,20.2192747 C72.303702,21.1032838 71.6042345,21.8355797 70.7477974,22.4184609 C68.5278913,23.9303398 65.605234,24.0633352 63.2497035,22.7412621 C62.0589669,22.0736579 61.1240449,21.1426899 60.4721938,19.9431039 C59.4998355,18.153084 59.3445078,16.2744003 59.9149186,14.3251142 C59.1865529,14.325771 58.4611428,14.325771 57.725881,14.325771 L57.725881,14.3878355 L57.725881,14.3878355 Z M62.0773566,16.4293975 C62.0405771,19.0370931 64.1281426,21.104269 66.6307912,21.1581239 C69.2349117,21.2139492 71.3411954,19.1333095 71.3960362,16.6027841 C71.4521907,13.9931182 69.3472206,11.8376071 66.7378458,11.839249 C64.1869242,11.8376071 62.113151,13.8900057 62.0773566,16.4293975 L62.0773566,16.4293975 Z M74.8634901,10.8987579 C75.3504902,10.8866077 75.7471835,10.4692319 75.7471835,9.98158195 C75.7475118,9.25552541 75.7475118,8.52914049 75.7471835,7.80308395 C75.7471835,7.28226728 75.3350559,6.86784694 74.8148886,6.86751856 C74.090792,6.86719018 73.3666954,6.86686179 72.6422705,6.86751856 C72.1234167,6.86817533 71.7099756,7.28358081 71.7096472,7.80439749 C71.7093188,8.52421473 71.7073485,9.24403198 71.7122743,9.96417761 C71.7129311,10.0715591 71.7332912,10.1832096 71.7674436,10.2850086 C71.8974854,10.6682324 72.2485327,10.9033552 72.6783932,10.9053255 C73.0277985,10.9059823 73.3772039,10.9049971 73.7269376,10.9049971 C74.1052411,10.9007282 74.4848582,10.9079526 74.8634901,10.8987579 L74.8634901,10.8987579 Z" id="Path" fill="#E62A13"></path>
                        <path d="M49.5754473,76.8680096 L45.1260761,76.8680096 C44.6002384,76.8680096 44.0127208,77.5589951 44.0127208,78.4833165 L44.0127208,81.6921521 L49.5754473,81.6921521 L49.5754473,86.2655363 L44.0127208,86.2655363 L44.0127208,100 L38.7615095,100 L38.7615095,86.2655363 L34,86.2655363 L34,81.6921521 L38.7615095,81.6921521 L38.7615095,79.0000778 C38.7615095,75.1400793 41.4439667,72 45.1263876,72 L49.5757588,72 L49.5757588,76.8680096 L49.5754473,76.8680096 L49.5754473,76.8680096 Z" id="Facebook" fill="#000000"></path>
                        <path d="M28.3380772,79.7221866 C27.2948048,80.1842415 26.1748347,80.4961747 24.9984964,80.63676 C26.1991685,79.9181446 27.12108,78.7802343 27.5553919,77.4245245 C26.4317255,78.0896129 25.1873143,78.5728941 23.8634332,78.8334537 C22.8029115,77.7047722 21.2914447,77 19.6198062,77 C16.4089788,77 13.80588,79.5994436 13.80588,82.8061418 C13.80588,83.2611214 13.8570117,83.7044111 13.956195,84.1292432 C9.12455285,83.8874488 4.83934273,81.575636 1.97288462,78.0625418 C1.47234793,78.9202044 1.18527088,79.9175294 1.18527088,80.9816093 C1.18527088,82.9959474 2.21160211,84.7727978 3.77142845,85.814421 C2.81902264,85.7842736 1.92206089,85.523714 1.13814343,85.0887302 C1.13752738,85.112725 1.13752738,85.1367199 1.13752738,85.16133 C1.13752738,87.9748816 3.14213832,90.3214563 5.80129725,90.8548806 C5.31400553,90.9877752 4.80022387,91.0588369 4.26950096,91.0588369 C3.89525353,91.0588369 3.53147886,91.022537 3.17571279,90.9545515 C3.91558302,93.2611347 6.06342446,94.94016 8.60707492,94.9866116 C6.61694103,96.5441243 4.11056131,97.472541 1.38671765,97.472541 C0.917599262,97.472541 0.454949349,97.4448546 0,97.3904047 C2.57260458,99.0383597 5.62788053,100 8.91232529,100 C19.6059452,100 25.4540618,91.1517401 25.4540618,83.4786133 C25.4540618,83.2275901 25.4485174,82.9768745 25.4371206,82.7273895 C26.5727998,81.9097183 27.5581641,80.887168 28.3380772,79.7221866 L28.3380772,79.7221866 L28.3380772,79.7221866 Z" id="Twitter" fill="#000000"></path>
                        <path d="M123.65233,97.5091509 C122.958332,96.2494781 121.632121,94.7033189 119.674499,92.8702321 L119.612423,92.8076712 C118.682011,91.9329944 118.119387,91.3590659 117.883775,91.065228 C117.452671,90.5054878 117.356092,89.9389107 117.591704,89.3648351 C117.758164,88.931099 118.383448,88.015107 119.466096,86.6156094 C120.035576,85.8739205 120.486595,85.2794814 120.819661,84.8316304 C123.221809,81.6131609 124.263243,79.5565163 123.943744,78.6608879 L123.819665,78.4515918 C123.736289,78.3255877 123.521102,78.2103168 123.174395,78.1051909 C122.826885,78.0002856 122.382724,77.9829361 121.841108,78.0528485 L115.843288,78.0946048 C115.746125,78.0599059 115.607384,78.0631406 115.426627,78.1051909 C115.246088,78.1472413 115.155782,78.16834 115.155782,78.16834 L115.051398,78.2209029 L114.968533,78.284052 C114.899089,78.3258083 114.822716,78.3992494 114.73934,78.5042282 C114.656402,78.6088395 114.587031,78.7316089 114.531593,78.8715072 C113.87859,80.5646221 113.136157,82.1387904 112.302908,83.5939385 C111.789157,84.4616314 111.317349,85.2136123 110.886464,85.8503223 C110.456162,86.4868118 110.095158,86.9557615 109.803816,87.2563627 C109.512036,87.557258 109.248705,87.7983124 109.012218,87.9804081 C108.776095,88.1625773 108.595849,88.2395471 108.47104,88.211391 C108.345939,88.1832349 108.228133,88.1552993 108.116601,88.1273638 C107.922348,88.0013597 107.7661,87.8299972 107.648295,87.6131291 C107.529978,87.396261 107.450322,87.1233013 107.408671,86.7944704 C107.367238,86.4654191 107.342728,86.1823878 107.335726,85.944421 C107.329234,85.7067483 107.332224,85.370566 107.346303,84.9368298 C107.360746,84.5028731 107.367238,84.2092558 107.367238,84.0553162 C107.367238,83.5235115 107.377523,82.9463483 107.398166,82.3236796 C107.419175,81.7010109 107.436171,81.2076544 107.450395,80.8441982 C107.464546,80.4803744 107.471111,80.0954519 107.471111,79.6896513 C107.471111,79.2838506 107.446602,78.9656059 107.398166,78.734623 C107.350315,78.5039342 107.276859,78.2800087 107.180061,78.06292 C107.08268,77.8460519 106.940146,77.6782916 106.753115,77.559198 C106.565719,77.4402513 106.332733,77.3458586 106.05547,77.2757256 C105.319529,77.1078918 104.382406,77.0171012 103.243663,77.0029864 C100.661342,76.9750509 99.0020642,77.1431053 98.2661962,77.5069291 C97.9746355,77.6606481 97.7107938,77.8706793 97.47489,78.1363611 C97.2249079,78.4443138 97.1900403,78.6123682 97.3705059,78.6400097 C98.2036824,78.7657932 98.7935147,79.0666885 99.1406595,79.5424015 L99.2657599,79.7944831 C99.3630684,79.9763582 99.460231,80.2983522 99.5574665,80.7600239 C99.6545562,81.2216957 99.7172158,81.7324016 99.744789,82.2918478 C99.8140867,83.3134803 99.8140867,84.18801 99.744789,84.9155106 C99.6752725,85.6433052 99.6096221,86.2098823 99.5469625,86.6156829 C99.4843028,87.0214835 99.3906416,87.3503144 99.2657599,87.6021019 C99.1406595,87.8539629 99.0574293,88.0079025 99.0157049,88.0637736 C98.9740533,88.1196447 98.9393316,88.1548582 98.9117584,88.168679 C98.7312928,88.2383708 98.5436056,88.2738784 98.3493533,88.2738784 C98.1548093,88.2738784 97.9189056,88.1758099 97.6412773,87.97982 C97.363722,87.78383 97.0756627,87.5146195 96.7770993,87.1717474 C96.4785358,86.8288018 96.1418222,86.34956 95.7668126,85.7339487 C95.3920947,85.1183374 95.0032984,84.3907633 94.6006427,83.5512265 L94.2675034,82.9423786 C94.0592457,82.5506927 93.7747607,81.9803664 93.4137564,81.2319142 C93.0525333,80.4831679 92.7332536,79.758902 92.4556983,79.0592635 C92.3447491,78.7654256 92.1780701,78.5417207 91.9559529,78.3877811 L91.8517146,78.324632 C91.782417,78.2687609 91.671176,78.2094347 91.5185753,78.1462121 C91.3657558,78.083063 91.2062983,78.037778 91.0395463,78.009916 L85.3331407,78.0516723 C84.7500193,78.0516723 84.3543663,78.1848073 84.1460357,78.4507096 L84.0626597,78.5764931 C84.0210081,78.6465525 84,78.7584417 84,78.9124548 C84,79.0663944 84.0416515,79.255327 84.1250275,79.4790319 C84.9580581,81.452164 85.8639607,83.3550896 86.8427352,85.1881028 C87.8215097,87.021116 88.672047,88.4976568 89.3938367,89.6164021 C90.1157722,90.7359561 90.8516402,91.7925815 91.6014407,92.7857639 C92.3512412,93.7793138 92.8475582,94.4160238 93.0903917,94.6957469 C93.3335171,94.9759845 93.5244868,95.1855012 93.6633009,95.3253995 L94.1840544,95.829048 C94.5172667,96.1649363 95.006581,96.5672082 95.6522162,97.0358638 C96.2979972,97.5048135 97.0129301,97.9664852 97.7973794,98.4216142 C98.5819746,98.8760079 99.4947339,99.2468156 100.536168,99.5335961 C101.577456,99.8206706 102.590953,99.935868 103.576803,99.880291 L105.971875,99.880291 C106.457615,99.8380201 106.825622,99.6840805 107.07575,99.4183987 L107.158615,99.3131993 C107.214345,99.2296867 107.266501,99.0999334 107.314645,98.9253362 C107.363372,98.750445 107.387589,98.5577632 107.387589,98.3481731 C107.373365,97.746603 107.41881,97.2044328 107.522683,96.7217359 C107.626484,96.239186 107.744801,95.8753622 107.877123,95.6303381 C108.009372,95.3855344 108.158617,95.1789584 108.324712,95.0114921 C108.491173,94.8436582 108.609781,94.7419875 108.67937,94.7069946 C108.748522,94.6717811 108.803742,94.6478889 108.845393,94.6335535 C109.178605,94.5216643 109.570757,94.6300248 110.022432,94.9591497 C110.473742,95.2879805 110.897041,95.6940017 111.292986,96.1765516 C111.688712,96.6595426 112.164167,97.2014187 112.719423,97.8029887 C113.275044,98.4047793 113.760857,98.8521157 114.177227,99.1463947 L114.593596,99.3982557 C114.871662,99.5663101 115.232666,99.7202497 115.677046,99.860148 C116.120624,99.9999728 116.509275,100.034966 116.842997,99.9650533 L122.17432,99.8812467 C122.701639,99.8812467 123.111954,99.7932497 123.403004,99.6186525 C123.694638,99.4437613 123.867882,99.2510795 123.923758,99.0414893 C123.979487,98.8316786 123.982478,98.5936383 123.934335,98.3275155 C123.884951,98.0620542 123.836297,97.8764298 123.787861,97.7715245 C123.739426,97.6663251 123.694273,97.5790633 123.65233,97.5091509 L123.65233,97.5091509 Z" id="Shape" fill="#000000"></path>
                        <path d="M76.0588958,99.9372787 C76.9980868,99.7379497 77.7655306,98.954426 77.9490998,98.0096659 C77.9688031,97.9075385 77.9832522,97.8037693 78,97.7013135 L78,79.2986865 C77.983909,79.1978726 77.9701166,79.0967304 77.9504133,78.996245 C77.7491112,77.9654483 76.8989135,77.1655054 75.8549665,77.0226585 C75.8116192,77.017076 75.7692571,77.0075528 75.7265666,77 L57.2734334,77 C57.1621097,77.0200314 57.0501292,77.0351371 56.9404475,77.0600942 C55.921458,77.2922616 55.1674781,78.1128926 55.0223304,79.1453312 C55.0164194,79.1883495 55.0075529,79.2310394 55,79.2740577 L55,97.7269275 C55.0210169,97.8438321 55.0377647,97.9617219 55.0640358,98.0779697 C55.2893102,99.0742861 56.1398364,99.8466448 57.1516013,99.9766848 C57.2005311,99.9825957 57.2497894,99.9921188 57.2987193,100 L75.7012807,100 C75.8208141,99.9796402 75.9406759,99.9628926 76.0588958,99.9372787 L76.0588958,99.9372787 Z M57.4881994,86.3878355 C57.4881994,89.7915334 57.487871,93.1952313 57.4885278,96.5989292 C57.4885278,97.0885494 57.9124773,97.5095374 58.4021045,97.5095374 C63.7994974,97.5098658 69.1965619,97.5098658 74.5939548,97.5095374 C75.0881794,97.5095374 75.5098302,97.0892062 75.5098302,96.5959737 C75.5101586,93.1962164 75.5098302,89.7967875 75.5098302,86.3973587 L75.5098302,86.3267561 L73.3142249,86.3267561 C73.6242236,87.31749 73.7194563,88.3252998 73.5979526,89.3524843 C73.4757921,90.3799971 73.1447765,91.3362507 72.6055626,92.2192747 C72.0660204,93.1032838 71.3665529,93.8355797 70.5101158,94.4184609 C68.2902097,95.9303398 65.3675524,96.0633352 63.0120219,94.7412621 C61.8212853,94.0736579 60.8863633,93.1426899 60.2345122,91.9431039 C59.2621539,90.153084 59.1068262,88.2744003 59.677237,86.3251142 C58.9488713,86.325771 58.2234612,86.325771 57.4881994,86.325771 L57.4881994,86.3878355 L57.4881994,86.3878355 Z M61.839675,88.4293975 C61.8028955,91.0370931 63.890461,93.104269 66.3931096,93.1581239 C68.9972301,93.2139492 71.1035138,91.1333095 71.1583546,88.6027841 C71.2145091,85.9931182 69.109539,83.8376071 66.5001642,83.839249 C63.9492426,83.8376071 61.8754694,85.8900057 61.839675,88.4293975 L61.839675,88.4293975 Z M74.6258085,82.8987579 C75.1128086,82.8866077 75.5095018,82.4692319 75.5095018,81.981582 C75.5098302,81.2555254 75.5098302,80.5291405 75.5095018,79.803084 C75.5095018,79.2822673 75.0973743,78.8678469 74.577207,78.8675186 C73.8531104,78.8671902 73.1290138,78.8668618 72.4045889,78.8675186 C71.8857351,78.8681753 71.472294,79.2835808 71.4719656,79.8043975 C71.4716372,80.5242147 71.4696669,81.244032 71.4745927,81.9641776 C71.4752495,82.0715591 71.4956096,82.1832096 71.529762,82.2850086 C71.6598038,82.6682324 72.0108511,82.9033552 72.4407116,82.9053255 C72.7901169,82.9059823 73.1395223,82.9049971 73.489256,82.9049971 C73.8675595,82.9007282 74.2471766,82.9079526 74.6258085,82.8987579 L74.6258085,82.8987579 Z" id="Path" fill="#000000"></path>
                        <path d="M49.5754473,40.8680096 L45.1260761,40.8680096 C44.6002384,40.8680096 44.0127208,41.5589951 44.0127208,42.4833165 L44.0127208,45.6921521 L49.5754473,45.6921521 L49.5754473,50.2655363 L44.0127208,50.2655363 L44.0127208,64 L38.7615095,64 L38.7615095,50.2655363 L34,50.2655363 L34,45.6921521 L38.7615095,45.6921521 L38.7615095,43.0000778 C38.7615095,39.1400793 41.4439667,36 45.1263876,36 L49.5757588,36 L49.5757588,40.8680096 L49.5754473,40.8680096 L49.5754473,40.8680096 Z" id="Facebook" fill="#DBDBDB"></path>
                        <path d="M28.3380772,43.7221866 C27.2948048,44.1842415 26.1748347,44.4961747 24.9984964,44.63676 C26.1991685,43.9181446 27.12108,42.7802343 27.5553919,41.4245245 C26.4317255,42.0896129 25.1873143,42.5728941 23.8634332,42.8334537 C22.8029115,41.7047722 21.2914447,41 19.6198062,41 C16.4089788,41 13.80588,43.5994436 13.80588,46.8061418 C13.80588,47.2611214 13.8570117,47.7044111 13.956195,48.1292432 C9.12455285,47.8874488 4.83934273,45.575636 1.97288462,42.0625418 C1.47234793,42.9202044 1.18527088,43.9175294 1.18527088,44.9816093 C1.18527088,46.9959474 2.21160211,48.7727978 3.77142845,49.814421 C2.81902264,49.7842736 1.92206089,49.523714 1.13814343,49.0887302 C1.13752738,49.112725 1.13752738,49.1367199 1.13752738,49.16133 C1.13752738,51.9748816 3.14213832,54.3214563 5.80129725,54.8548806 C5.31400553,54.9877752 4.80022387,55.0588369 4.26950096,55.0588369 C3.89525353,55.0588369 3.53147886,55.022537 3.17571279,54.9545515 C3.91558302,57.2611347 6.06342446,58.94016 8.60707492,58.9866116 C6.61694103,60.5441243 4.11056131,61.472541 1.38671765,61.472541 C0.917599262,61.472541 0.454949349,61.4448546 0,61.3904047 C2.57260458,63.0383597 5.62788053,64 8.91232529,64 C19.6059452,64 25.4540618,55.1517401 25.4540618,47.4786133 C25.4540618,47.2275901 25.4485174,46.9768745 25.4371206,46.7273895 C26.5727998,45.9097183 27.5581641,44.887168 28.3380772,43.7221866 L28.3380772,43.7221866 L28.3380772,43.7221866 Z" id="Twitter" fill="#DBDBDB"></path>
                        <path d="M123.65233,61.5091509 C122.958332,60.2494781 121.632121,58.7033189 119.674499,56.8702321 L119.612423,56.8076712 C118.682011,55.9329944 118.119387,55.3590659 117.883775,55.065228 C117.452671,54.5054878 117.356092,53.9389107 117.591704,53.3648351 C117.758164,52.931099 118.383448,52.015107 119.466096,50.6156094 C120.035576,49.8739205 120.486595,49.2794814 120.819661,48.8316304 C123.221809,45.6131609 124.263243,43.5565163 123.943744,42.6608879 L123.819665,42.4515918 C123.736289,42.3255877 123.521102,42.2103168 123.174395,42.1051909 C122.826885,42.0002856 122.382724,41.9829361 121.841108,42.0528485 L115.843288,42.0946048 C115.746125,42.0599059 115.607384,42.0631406 115.426627,42.1051909 C115.246088,42.1472413 115.155782,42.16834 115.155782,42.16834 L115.051398,42.2209029 L114.968533,42.284052 C114.899089,42.3258083 114.822716,42.3992494 114.73934,42.5042282 C114.656402,42.6088395 114.587031,42.7316089 114.531593,42.8715072 C113.87859,44.5646221 113.136157,46.1387904 112.302908,47.5939385 C111.789157,48.4616314 111.317349,49.2136123 110.886464,49.8503223 C110.456162,50.4868118 110.095158,50.9557615 109.803816,51.2563627 C109.512036,51.557258 109.248705,51.7983124 109.012218,51.9804081 C108.776095,52.1625773 108.595849,52.2395471 108.47104,52.211391 C108.345939,52.1832349 108.228133,52.1552993 108.116601,52.1273638 C107.922348,52.0013597 107.7661,51.8299972 107.648295,51.6131291 C107.529978,51.396261 107.450322,51.1233013 107.408671,50.7944704 C107.367238,50.4654191 107.342728,50.1823878 107.335726,49.944421 C107.329234,49.7067483 107.332224,49.370566 107.346303,48.9368298 C107.360746,48.5028731 107.367238,48.2092558 107.367238,48.0553162 C107.367238,47.5235115 107.377523,46.9463483 107.398166,46.3236796 C107.419175,45.7010109 107.436171,45.2076544 107.450395,44.8441982 C107.464546,44.4803744 107.471111,44.0954519 107.471111,43.6896513 C107.471111,43.2838506 107.446602,42.9656059 107.398166,42.734623 C107.350315,42.5039342 107.276859,42.2800087 107.180061,42.06292 C107.08268,41.8460519 106.940146,41.6782916 106.753115,41.559198 C106.565719,41.4402513 106.332733,41.3458586 106.05547,41.2757256 C105.319529,41.1078918 104.382406,41.0171012 103.243663,41.0029864 C100.661342,40.9750509 99.0020642,41.1431053 98.2661962,41.5069291 C97.9746355,41.6606481 97.7107938,41.8706793 97.47489,42.1363611 C97.2249079,42.4443138 97.1900403,42.6123682 97.3705059,42.6400097 C98.2036824,42.7657932 98.7935147,43.0666885 99.1406595,43.5424015 L99.2657599,43.7944831 C99.3630684,43.9763582 99.460231,44.2983522 99.5574665,44.7600239 C99.6545562,45.2216957 99.7172158,45.7324016 99.744789,46.2918478 C99.8140867,47.3134803 99.8140867,48.18801 99.744789,48.9155106 C99.6752725,49.6433052 99.6096221,50.2098823 99.5469625,50.6156829 C99.4843028,51.0214835 99.3906416,51.3503144 99.2657599,51.6021019 C99.1406595,51.8539629 99.0574293,52.0079025 99.0157049,52.0637736 C98.9740533,52.1196447 98.9393316,52.1548582 98.9117584,52.168679 C98.7312928,52.2383708 98.5436056,52.2738784 98.3493533,52.2738784 C98.1548093,52.2738784 97.9189056,52.1758099 97.6412773,51.97982 C97.363722,51.78383 97.0756627,51.5146195 96.7770993,51.1717474 C96.4785358,50.8288018 96.1418222,50.34956 95.7668126,49.7339487 C95.3920947,49.1183374 95.0032984,48.3907633 94.6006427,47.5512265 L94.2675034,46.9423786 C94.0592457,46.5506927 93.7747607,45.9803664 93.4137564,45.2319142 C93.0525333,44.4831679 92.7332536,43.758902 92.4556983,43.0592635 C92.3447491,42.7654256 92.1780701,42.5417207 91.9559529,42.3877811 L91.8517146,42.324632 C91.782417,42.2687609 91.671176,42.2094347 91.5185753,42.1462121 C91.3657558,42.083063 91.2062983,42.037778 91.0395463,42.009916 L85.3331407,42.0516723 C84.7500193,42.0516723 84.3543663,42.1848073 84.1460357,42.4507096 L84.0626597,42.5764931 C84.0210081,42.6465525 84,42.7584417 84,42.9124548 C84,43.0663944 84.0416515,43.255327 84.1250275,43.4790319 C84.9580581,45.452164 85.8639607,47.3550896 86.8427352,49.1881028 C87.8215097,51.021116 88.672047,52.4976568 89.3938367,53.6164021 C90.1157722,54.7359561 90.8516402,55.7925815 91.6014407,56.7857639 C92.3512412,57.7793138 92.8475582,58.4160238 93.0903917,58.6957469 C93.3335171,58.9759845 93.5244868,59.1855012 93.6633009,59.3253995 L94.1840544,59.829048 C94.5172667,60.1649363 95.006581,60.5672082 95.6522162,61.0358638 C96.2979972,61.5048135 97.0129301,61.9664852 97.7973794,62.4216142 C98.5819746,62.8760079 99.4947339,63.2468156 100.536168,63.5335961 C101.577456,63.8206706 102.590953,63.935868 103.576803,63.880291 L105.971875,63.880291 C106.457615,63.8380201 106.825622,63.6840805 107.07575,63.4183987 L107.158615,63.3131993 C107.214345,63.2296867 107.266501,63.0999334 107.314645,62.9253362 C107.363372,62.750445 107.387589,62.5577632 107.387589,62.3481731 C107.373365,61.746603 107.41881,61.2044328 107.522683,60.7217359 C107.626484,60.239186 107.744801,59.8753622 107.877123,59.6303381 C108.009372,59.3855344 108.158617,59.1789584 108.324712,59.0114921 C108.491173,58.8436582 108.609781,58.7419875 108.67937,58.7069946 C108.748522,58.6717811 108.803742,58.6478889 108.845393,58.6335535 C109.178605,58.5216643 109.570757,58.6300248 110.022432,58.9591497 C110.473742,59.2879805 110.897041,59.6940017 111.292986,60.1765516 C111.688712,60.6595426 112.164167,61.2014187 112.719423,61.8029887 C113.275044,62.4047793 113.760857,62.8521157 114.177227,63.1463947 L114.593596,63.3982557 C114.871662,63.5663101 115.232666,63.7202497 115.677046,63.860148 C116.120624,63.9999728 116.509275,64.0349657 116.842997,63.9650533 L122.17432,63.8812467 C122.701639,63.8812467 123.111954,63.7932497 123.403004,63.6186525 C123.694638,63.4437613 123.867882,63.2510795 123.923758,63.0414893 C123.979487,62.8316786 123.982478,62.5936383 123.934335,62.3275155 C123.884951,62.0620542 123.836297,61.8764298 123.787861,61.7715245 C123.739426,61.6663251 123.694273,61.5790633 123.65233,61.5091509 L123.65233,61.5091509 Z" id="Shape" fill="#DBDBDB"></path>
                        <path d="M76.0588958,63.9372787 C76.9980868,63.7379497 77.7655306,62.954426 77.9490998,62.0096659 C77.9688031,61.9075385 77.9832522,61.8037693 78,61.7013135 L78,43.2986865 C77.983909,43.1978726 77.9701166,43.0967304 77.9504133,42.996245 C77.7491112,41.9654483 76.8989135,41.1655054 75.8549665,41.0226585 C75.8116192,41.017076 75.7692571,41.0075528 75.7265666,41 L57.2734334,41 C57.1621097,41.0200314 57.0501292,41.0351371 56.9404475,41.0600942 C55.921458,41.2922616 55.1674781,42.1128926 55.0223304,43.1453312 C55.0164194,43.1883495 55.0075529,43.2310394 55,43.2740577 L55,61.7269275 C55.0210169,61.8438321 55.0377647,61.9617219 55.0640358,62.0779697 C55.2893102,63.0742861 56.1398364,63.8466448 57.1516013,63.9766848 C57.2005311,63.9825957 57.2497894,63.9921188 57.2987193,64 L75.7012807,64 C75.8208141,63.9796402 75.9406759,63.9628926 76.0588958,63.9372787 L76.0588958,63.9372787 Z M57.4881994,50.3878355 C57.4881994,53.7915334 57.487871,57.1952313 57.4885278,60.5989292 C57.4885278,61.0885494 57.9124773,61.5095374 58.4021045,61.5095374 C63.7994974,61.5098658 69.1965619,61.5098658 74.5939548,61.5095374 C75.0881794,61.5095374 75.5098302,61.0892062 75.5098302,60.5959737 C75.5101586,57.1962164 75.5098302,53.7967875 75.5098302,50.3973587 L75.5098302,50.3267561 L73.3142249,50.3267561 C73.6242236,51.31749 73.7194563,52.3252998 73.5979526,53.3524843 C73.4757921,54.3799971 73.1447765,55.3362507 72.6055626,56.2192747 C72.0660204,57.1032838 71.3665529,57.8355797 70.5101158,58.4184609 C68.2902097,59.9303398 65.3675524,60.0633352 63.0120219,58.7412621 C61.8212853,58.0736579 60.8863633,57.1426899 60.2345122,55.9431039 C59.2621539,54.153084 59.1068262,52.2744003 59.677237,50.3251142 C58.9488713,50.325771 58.2234612,50.325771 57.4881994,50.325771 L57.4881994,50.3878355 L57.4881994,50.3878355 Z M61.839675,52.4293975 C61.8028955,55.0370931 63.890461,57.104269 66.3931096,57.1581239 C68.9972301,57.2139492 71.1035138,55.1333095 71.1583546,52.6027841 C71.2145091,49.9931182 69.109539,47.8376071 66.5001642,47.839249 C63.9492426,47.8376071 61.8754694,49.8900057 61.839675,52.4293975 L61.839675,52.4293975 Z M74.6258085,46.8987579 C75.1128086,46.8866077 75.5095018,46.4692319 75.5095018,45.981582 C75.5098302,45.2555254 75.5098302,44.5291405 75.5095018,43.803084 C75.5095018,43.2822673 75.0973743,42.8678469 74.577207,42.8675186 C73.8531104,42.8671902 73.1290138,42.8668618 72.4045889,42.8675186 C71.8857351,42.8681753 71.472294,43.2835808 71.4719656,43.8043975 C71.4716372,44.5242147 71.4696669,45.244032 71.4745927,45.9641776 C71.4752495,46.0715591 71.4956096,46.1832096 71.529762,46.2850086 C71.6598038,46.6682324 72.0108511,46.9033552 72.4407116,46.9053255 C72.7901169,46.9059823 73.1395223,46.9049971 73.489256,46.9049971 C73.8675595,46.9007282 74.2471766,46.9079526 74.6258085,46.8987579 L74.6258085,46.8987579 Z" id="Path" fill="#DBDBDB"></path>
                    </g>
                </g>
            </g>
            <g id="Group" transform="translate(0.000000, 108.000000)" fill="#FFFFFF">
                <path d="M49.5754473,4.8680096 L45.1260761,4.8680096 C44.6002384,4.8680096 44.0127208,5.5589951 44.0127208,6.4833165 L44.0127208,9.6921521 L49.5754473,9.6921521 L49.5754473,14.2655363 L44.0127208,14.2655363 L44.0127208,28 L38.7615095,28 L38.7615095,14.2655363 L34,14.2655363 L34,9.6921521 L38.7615095,9.6921521 L38.7615095,7.0000778 C38.7615095,3.1400793 41.4439667,0 45.1263876,0 L49.5757588,0 L49.5757588,4.8680096 L49.5754473,4.8680096 L49.5754473,4.8680096 Z" id="Facebook"></path>
                <path d="M28.3380772,7.7221866 C27.2948048,8.1842415 26.1748347,8.4961747 24.9984964,8.63676 C26.1991685,7.9181446 27.12108,6.7802343 27.5553919,5.4245245 C26.4317255,6.0896129 25.1873143,6.5728941 23.8634332,6.8334537 C22.8029115,5.7047722 21.2914447,5 19.6198062,5 C16.4089788,5 13.80588,7.5994436 13.80588,10.8061418 C13.80588,11.2611214 13.8570117,11.7044111 13.956195,12.1292432 C9.12455285,11.8874488 4.83934273,9.575636 1.97288462,6.0625418 C1.47234793,6.9202044 1.18527088,7.9175294 1.18527088,8.9816093 C1.18527088,10.9959474 2.21160211,12.7727978 3.77142845,13.814421 C2.81902264,13.7842736 1.92206089,13.523714 1.13814343,13.0887302 C1.13752738,13.112725 1.13752738,13.1367199 1.13752738,13.16133 C1.13752738,15.9748816 3.14213832,18.3214563 5.80129725,18.8548806 C5.31400553,18.9877752 4.80022387,19.0588369 4.26950096,19.0588369 C3.89525353,19.0588369 3.53147886,19.022537 3.17571279,18.9545515 C3.91558302,21.2611347 6.06342446,22.94016 8.60707492,22.9866116 C6.61694103,24.5441243 4.11056131,25.472541 1.38671765,25.472541 C0.917599262,25.472541 0.454949349,25.4448546 0,25.3904047 C2.57260458,27.0383597 5.62788053,28 8.91232529,28 C19.6059452,28 25.4540618,19.1517401 25.4540618,11.4786133 C25.4540618,11.2275901 25.4485174,10.9768745 25.4371206,10.7273895 C26.5727998,9.9097183 27.5581641,8.887168 28.3380772,7.7221866 L28.3380772,7.7221866 L28.3380772,7.7221866 Z" id="Twitter"></path>
                <path d="M123.65233,25.5091509 C122.958332,24.2494781 121.632121,22.7033189 119.674499,20.8702321 L119.612423,20.8076712 C118.682011,19.9329944 118.119387,19.3590659 117.883775,19.065228 C117.452671,18.5054878 117.356092,17.9389107 117.591704,17.3648351 C117.758164,16.931099 118.383448,16.015107 119.466096,14.6156094 C120.035576,13.8739205 120.486595,13.2794814 120.819661,12.8316304 C123.221809,9.6131609 124.263243,7.5565163 123.943744,6.6608879 L123.819665,6.4515918 C123.736289,6.3255877 123.521102,6.2103168 123.174395,6.1051909 C122.826885,6.0002856 122.382724,5.9829361 121.841108,6.0528485 L115.843288,6.0946048 C115.746125,6.0599059 115.607384,6.0631406 115.426627,6.1051909 C115.246088,6.1472413 115.155782,6.16834 115.155782,6.16834 L115.051398,6.2209029 L114.968533,6.284052 C114.899089,6.3258083 114.822716,6.3992494 114.73934,6.5042282 C114.656402,6.6088395 114.587031,6.7316089 114.531593,6.8715072 C113.87859,8.5646221 113.136157,10.1387904 112.302908,11.5939385 C111.789157,12.4616314 111.317349,13.2136123 110.886464,13.8503223 C110.456162,14.4868118 110.095158,14.9557615 109.803816,15.2563627 C109.512036,15.557258 109.248705,15.7983124 109.012218,15.9804081 C108.776095,16.1625773 108.595849,16.2395471 108.47104,16.211391 C108.345939,16.1832349 108.228133,16.1552993 108.116601,16.1273638 C107.922348,16.0013597 107.7661,15.8299972 107.648295,15.6131291 C107.529978,15.396261 107.450322,15.1233013 107.408671,14.7944704 C107.367238,14.4654191 107.342728,14.1823878 107.335726,13.944421 C107.329234,13.7067483 107.332224,13.370566 107.346303,12.9368298 C107.360746,12.5028731 107.367238,12.2092558 107.367238,12.0553162 C107.367238,11.5235115 107.377523,10.9463483 107.398166,10.3236796 C107.419175,9.7010109 107.436171,9.2076544 107.450395,8.8441982 C107.464546,8.4803744 107.471111,8.0954519 107.471111,7.6896513 C107.471111,7.2838506 107.446602,6.9656059 107.398166,6.734623 C107.350315,6.5039342 107.276859,6.2800087 107.180061,6.06292 C107.08268,5.8460519 106.940146,5.6782916 106.753115,5.559198 C106.565719,5.4402513 106.332733,5.3458586 106.05547,5.2757256 C105.319529,5.1078918 104.382406,5.0171012 103.243663,5.0029864 C100.661342,4.9750509 99.0020642,5.1431053 98.2661962,5.5069291 C97.9746355,5.6606481 97.7107938,5.8706793 97.47489,6.1363611 C97.2249079,6.4443138 97.1900403,6.6123682 97.3705059,6.6400097 C98.2036824,6.7657932 98.7935147,7.0666885 99.1406595,7.5424015 L99.2657599,7.7944831 C99.3630684,7.9763582 99.460231,8.2983522 99.5574665,8.7600239 C99.6545562,9.2216957 99.7172158,9.7324016 99.744789,10.2918478 C99.8140867,11.3134803 99.8140867,12.18801 99.744789,12.9155106 C99.6752725,13.6433052 99.6096221,14.2098823 99.5469625,14.6156829 C99.4843028,15.0214835 99.3906416,15.3503144 99.2657599,15.6021019 C99.1406595,15.8539629 99.0574293,16.0079025 99.0157049,16.0637736 C98.9740533,16.1196447 98.9393316,16.1548582 98.9117584,16.168679 C98.7312928,16.2383708 98.5436056,16.2738784 98.3493533,16.2738784 C98.1548093,16.2738784 97.9189056,16.1758099 97.6412773,15.97982 C97.363722,15.78383 97.0756627,15.5146195 96.7770993,15.1717474 C96.4785358,14.8288018 96.1418222,14.34956 95.7668126,13.7339487 C95.3920947,13.1183374 95.0032984,12.3907633 94.6006427,11.5512265 L94.2675034,10.9423786 C94.0592457,10.5506927 93.7747607,9.9803664 93.4137564,9.2319142 C93.0525333,8.4831679 92.7332536,7.758902 92.4556983,7.0592635 C92.3447491,6.7654256 92.1780701,6.5417207 91.9559529,6.3877811 L91.8517146,6.324632 C91.782417,6.2687609 91.671176,6.2094347 91.5185753,6.1462121 C91.3657558,6.083063 91.2062983,6.037778 91.0395463,6.009916 L85.3331407,6.0516723 C84.7500193,6.0516723 84.3543663,6.1848073 84.1460357,6.4507096 L84.0626597,6.5764931 C84.0210081,6.6465525 84,6.7584417 84,6.9124548 C84,7.0663944 84.0416515,7.255327 84.1250275,7.4790319 C84.9580581,9.452164 85.8639607,11.3550896 86.8427352,13.1881028 C87.8215097,15.021116 88.672047,16.4976568 89.3938367,17.6164021 C90.1157722,18.7359561 90.8516402,19.7925815 91.6014407,20.7857639 C92.3512412,21.7793138 92.8475582,22.4160238 93.0903917,22.6957469 C93.3335171,22.9759845 93.5244868,23.1855012 93.6633009,23.3253995 L94.1840544,23.829048 C94.5172667,24.1649363 95.006581,24.5672082 95.6522162,25.0358638 C96.2979972,25.5048135 97.0129301,25.9664852 97.7973794,26.4216142 C98.5819746,26.8760079 99.4947339,27.2468156 100.536168,27.5335961 C101.577456,27.8206706 102.590953,27.935868 103.576803,27.880291 L105.971875,27.880291 C106.457615,27.8380201 106.825622,27.6840805 107.07575,27.4183987 L107.158615,27.3131993 C107.214345,27.2296867 107.266501,27.0999334 107.314645,26.9253362 C107.363372,26.750445 107.387589,26.5577632 107.387589,26.3481731 C107.373365,25.746603 107.41881,25.2044328 107.522683,24.7217359 C107.626484,24.239186 107.744801,23.8753622 107.877123,23.6303381 C108.009372,23.3855344 108.158617,23.1789584 108.324712,23.0114921 C108.491173,22.8436582 108.609781,22.7419875 108.67937,22.7069946 C108.748522,22.6717811 108.803742,22.6478889 108.845393,22.6335535 C109.178605,22.5216643 109.570757,22.6300248 110.022432,22.9591497 C110.473742,23.2879805 110.897041,23.6940017 111.292986,24.1765516 C111.688712,24.6595426 112.164167,25.2014187 112.719423,25.8029887 C113.275044,26.4047793 113.760857,26.8521157 114.177227,27.1463947 L114.593596,27.3982557 C114.871662,27.5663101 115.232666,27.7202497 115.677046,27.860148 C116.120624,27.9999728 116.509275,28.0349657 116.842997,27.9650533 L122.17432,27.8812467 C122.701639,27.8812467 123.111954,27.7932497 123.403004,27.6186525 C123.694638,27.4437613 123.867882,27.2510795 123.923758,27.0414893 C123.979487,26.8316786 123.982478,26.5936383 123.934335,26.3275155 C123.884951,26.0620542 123.836297,25.8764298 123.787861,25.7715245 C123.739426,25.6663251 123.694273,25.5790633 123.65233,25.5091509 L123.65233,25.5091509 Z" id="Shape"></path>
                <path d="M76.0588958,27.9372787 C76.9980868,27.7379497 77.7655306,26.954426 77.9490998,26.0096659 C77.9688031,25.9075385 77.9832522,25.8037693 78,25.7013135 L78,7.2986865 C77.983909,7.1978726 77.9701166,7.0967304 77.9504133,6.996245 C77.7491112,5.9654483 76.8989135,5.1655054 75.8549665,5.0226585 C75.8116192,5.017076 75.7692571,5.0075528 75.7265666,5 L57.2734334,5 C57.1621097,5.0200314 57.0501292,5.0351371 56.9404475,5.0600942 C55.921458,5.2922616 55.1674781,6.1128926 55.0223304,7.1453312 C55.0164194,7.1883495 55.0075529,7.2310394 55,7.2740577 L55,25.7269275 C55.0210169,25.8438321 55.0377647,25.9617219 55.0640358,26.0779697 C55.2893102,27.0742861 56.1398364,27.8466448 57.1516013,27.9766848 C57.2005311,27.9825957 57.2497894,27.9921188 57.2987193,28 L75.7012807,28 C75.8208141,27.9796402 75.9406759,27.9628926 76.0588958,27.9372787 L76.0588958,27.9372787 Z M57.4881994,14.3878355 C57.4881994,17.7915334 57.487871,21.1952313 57.4885278,24.5989292 C57.4885278,25.0885494 57.9124773,25.5095374 58.4021045,25.5095374 C63.7994974,25.5098658 69.1965619,25.5098658 74.5939548,25.5095374 C75.0881794,25.5095374 75.5098302,25.0892062 75.5098302,24.5959737 C75.5101586,21.1962164 75.5098302,17.7967875 75.5098302,14.3973587 L75.5098302,14.3267561 L73.3142249,14.3267561 C73.6242236,15.31749 73.7194563,16.3252998 73.5979526,17.3524843 C73.4757921,18.3799971 73.1447765,19.3362507 72.6055626,20.2192747 C72.0660204,21.1032838 71.3665529,21.8355797 70.5101158,22.4184609 C68.2902097,23.9303398 65.3675524,24.0633352 63.0120219,22.7412621 C61.8212853,22.0736579 60.8863633,21.1426899 60.2345122,19.9431039 C59.2621539,18.153084 59.1068262,16.2744003 59.677237,14.3251142 C58.9488713,14.325771 58.2234612,14.325771 57.4881994,14.325771 L57.4881994,14.3878355 L57.4881994,14.3878355 Z M61.839675,16.4293975 C61.8028955,19.0370931 63.890461,21.104269 66.3931096,21.1581239 C68.9972301,21.2139492 71.1035138,19.1333095 71.1583546,16.6027841 C71.2145091,13.9931182 69.109539,11.8376071 66.5001642,11.839249 C63.9492426,11.8376071 61.8754694,13.8900057 61.839675,16.4293975 L61.839675,16.4293975 Z M74.6258085,10.8987579 C75.1128086,10.8866077 75.5095018,10.4692319 75.5095018,9.981582 C75.5098302,9.2555254 75.5098302,8.5291405 75.5095018,7.803084 C75.5095018,7.2822673 75.0973743,6.8678469 74.577207,6.8675186 C73.8531104,6.8671902 73.1290138,6.8668618 72.4045889,6.8675186 C71.8857351,6.8681753 71.472294,7.2835808 71.4719656,7.8043975 C71.4716372,8.5242147 71.4696669,9.244032 71.4745927,9.9641776 C71.4752495,10.0715591 71.4956096,10.1832096 71.529762,10.2850086 C71.6598038,10.6682324 72.0108511,10.9033552 72.4407116,10.9053255 C72.7901169,10.9059823 73.1395223,10.9049971 73.489256,10.9049971 C73.8675595,10.9007282 74.2471766,10.9079526 74.6258085,10.8987579 L74.6258085,10.8987579 Z" id="Path"></path>
            </g>
        </g>
    </g>
</svg>