<svg width="92px" height="18px" viewBox="848 0 92 18" version="1.1" xmlns="http://www.w3.org/2000/svg" xmlns:xlink="http://www.w3.org/1999/xlink">
    <!-- Generator: Sketch 3.7.2 (28276) - http://www.bohemiancoding.com/sketch -->
    <desc>Created with Sketch.</desc>
    <defs></defs>
    <g id="Path-+-Path-+-VK" stroke="none" stroke-width="1" fill="none" fill-rule="evenodd" transform="translate(848.000000, 0.000000)">
        <path d="M42.720691,5.48230689 L42.764087,6.21110765 L42.0408213,6.12186674 C39.4081341,5.77977659 37.1081492,4.61964477 35.1553318,2.67121825 L34.2006211,1.70444173 L33.9547107,2.418369 C33.4339594,4.00983189 33.7666616,5.69053568 34.8515602,6.82092053 C35.4301728,7.4456069 35.2999849,7.53484781 34.3018783,7.16301069 C33.9547107,7.04402281 33.6509391,6.9547819 33.6220085,6.99940235 C33.5207513,7.10351675 33.8679188,8.45700387 34.1427598,8.99244933 C34.518858,9.73612358 35.2855196,10.4649243 36.1245078,10.8962554 L36.8333082,11.2383456 L35.99432,11.253219 C35.1842624,11.253219 35.1553318,11.2680925 35.2421237,11.5804357 C35.53143,12.5472122 36.6741898,13.5734827 37.9471374,14.0196872 L38.8439869,14.3320304 L38.0628599,14.8079819 C36.9056348,15.4921622 35.5458953,15.8788728 34.1861557,15.9086198 C33.5352166,15.9234933 33,15.9829872 33,16.0276077 C33,16.1763425 34.7647683,17.0092577 35.7918056,17.3364744 C38.8729175,18.3032509 42.5326419,17.8867933 45.2810516,16.2358365 C47.233869,15.0608312 49.1866864,12.725694 50.0980012,10.4649243 C50.5898218,9.26017206 51.0816425,7.05889629 51.0816425,6.00287887 C51.0816425,5.31869856 51.1250385,5.22945765 51.935096,4.41141598 C52.4124514,3.93546446 52.8608761,3.41489249 52.947668,3.26615764 C53.0923212,2.98356143 53.0778558,2.98356143 52.3401248,3.23641067 C51.1105731,3.68261522 50.9369894,3.62312128 51.5445326,2.95381446 C51.9929573,2.47786294 52.5281739,1.61520082 52.5281739,1.36235158 C52.5281739,1.31773112 52.3111942,1.39209855 52.0652839,1.52595991 C51.8049082,1.67469476 51.2262956,1.89779703 50.7923362,2.0316584 L50.0112093,2.28450764 L49.3024089,1.79368264 C48.9118454,1.52595991 48.3621635,1.22849021 48.0728572,1.1392493 C47.3351262,0.931020514 46.2068317,0.960767484 45.5414272,1.19874324 C43.733263,1.86805006 42.5905032,3.59337431 42.720691,5.48230689 Z" id="Path" fill="#CCCCCC"></path>
        <path d="M5.1788634,17 L5.1788634,8.4990047 L7.48293648,8.4990047 L7.78827592,5.56951465 L5.1788634,5.56951465 L5.18277801,4.10327667 C5.18277801,3.33922055 5.2540565,2.92982182 6.33155238,2.92982182 L7.77196505,2.92982182 L7.77196505,0 L5.46756575,0 C2.69961161,0 1.72536352,1.42111785 1.72536352,3.8109912 L1.72536352,5.56984641 L0,5.56984641 L0,8.49933647 L1.72536352,8.49933647 L1.72536352,17 L5.1788634,17 Z" id="Path" fill="#CCCCCC"></path>
        <path d="M87.0057501,9.78026366 C86.5196871,9.496324 85.8441259,9.496324 85.2952126,9.496324 L83.4927685,9.496324 L83.4927685,13.2230321 L85.1470882,13.2230321 C85.7594834,13.2230321 86.540532,13.2670807 87.0686004,12.8950437 C87.5534001,12.5676892 87.8278567,11.9250222 87.8278567,11.3130942 C87.8278567,10.7445811 87.4905498,10.0642033 87.0057501,9.78026366 L87.0057501,9.78026366 Z M86.3257673,6.59766764 C86.7268719,6.29122829 86.9372149,5.74489796 86.9372149,5.24166561 C86.9372149,4.69501838 86.6842348,4.17023704 86.2202799,3.88629738 C85.7348486,3.60235771 84.847681,3.66795538 84.2779229,3.66795538 L83.4927685,3.66795538 L83.4927685,6.94783876 L84.5315347,6.94783876 C85.1224534,6.94720497 85.8194911,6.99125364 86.3257673,6.59766764 L86.3257673,6.59766764 Z M86.1937502,16 L80,16 L80,1 L86.767614,1 C88.7279734,1 90.5367341,2.25205983 90.5367341,4.46051464 C90.5367341,6.1657371 89.5879796,7.33350235 88.3777174,7.69634935 L88.3777174,7.74039802 C90.1722658,8.11243504 91.4539056,9.09037901 91.4539056,11.4496768 C91.4539056,13.6330967 89.9720294,16 86.1937502,16 L86.1937502,16 Z" id="VK" fill="#CCCCCC"></path>
    </g>
</svg>
