
<svg width="260px" height="26px" viewBox="500 3453 260 26" version="1.1" xmlns="http://www.w3.org/2000/svg" xmlns:xlink="http://www.w3.org/1999/xlink">
    <!-- Generator: Sketch 3.7.2 (28276) - http://www.bohemiancoding.com/sketch -->
    <desc>Created with Sketch.</desc>
    <defs></defs>
    <g id="Group" stroke="none" stroke-width="1" fill="none" fill-rule="evenodd" transform="translate(500.000000, 3454.000000)">
        <path d="M61.9624314,6.59162779 L62.0257558,7.66339361 L60.97035,7.53215698 C57.128673,7.02908322 53.7724826,5.32300701 50.922887,2.45767389 L49.5297514,1.03594372 L49.1709134,2.08583677 C48.4110212,4.42622337 48.8965079,6.89784659 50.4796166,8.56017726 C51.3239412,9.47883368 51.1339682,9.61007031 49.6775082,9.06325101 C49.1709134,8.88826884 48.727643,8.7570322 48.6854267,8.82265052 C48.5376699,8.97575992 49.0442647,10.9661822 49.4453189,11.753602 C49.9941299,12.8472406 51.11286,13.9190064 52.3371307,14.5533168 L53.3714284,15.0563905 L52.1471577,15.0782633 C50.9651032,15.0782633 50.922887,15.1001361 51.0495357,15.5594643 C51.471698,16.9811944 53.1392391,18.4904157 54.9967533,19.1465989 L56.3054565,19.6059271 L55.1656182,20.3058558 C53.476969,21.3120033 51.4928061,21.8806954 49.5086433,21.9244409 C48.5587781,21.9463137 47.7777778,22.0338048 47.7777778,22.0994231 C47.7777778,22.3181508 50.3529679,23.543026 51.8516441,24.024227 C56.3476727,25.4459572 61.6880259,24.8335196 65.6985679,22.4056419 C68.5481635,20.6776929 71.3977591,17.2436677 72.7275704,13.9190064 C73.4452463,12.1473119 74.1629222,8.91014161 74.1629222,7.3571748 C74.1629222,6.35102729 74.2262466,6.21979066 75.4083011,5.01678821 C76.1048689,4.31685951 76.7592205,3.55131249 76.8858691,3.33258477 C77.0969503,2.9170021 77.0758422,2.9170021 75.9993283,3.28883923 C74.2051385,3.94502238 73.9518411,3.8575313 74.8383819,2.87325656 C75.4927335,2.17332786 76.2737338,0.904707087 76.2737338,0.532869965 C76.2737338,0.467251649 75.9571121,0.576615509 75.5982741,0.773470456 C75.218328,0.992198175 74.3740034,1.32028975 73.7407599,1.5171447 L72.6009217,1.88898182 L71.566624,1.16718035 C70.9967049,0.773470456 70.1945965,0.336015018 69.7724342,0.204778386 C68.6959203,-0.101440421 67.0494873,-0.057694877 66.078514,0.292269474 C63.4399995,1.27654421 61.7724584,3.81378575 61.9624314,6.59162779 Z" id="Path" fill="#E62A13"></path>
        <path d="M7.5571154,25 L7.5571154,12.4985363 L10.9192713,12.4985363 L11.3648296,8.19046272 L7.5571154,8.19046272 L7.56282768,6.0342304 C7.56282768,4.91061845 7.66683888,4.3085615 9.2391454,4.3085615 L11.3410284,4.3085615 L11.3410284,0 L7.97839644,0 C3.93933473,0 2.51768973,2.0898792 2.51768973,5.60439882 L2.51768973,8.19095061 L0,8.19095061 L0,12.4990242 L2.51768973,12.4990242 L2.51768973,25 L7.5571154,25 Z" id="Path" fill="#E62A13"></path>
        <path d="M136.423856,24.9318247 C137.438276,24.7151628 138.267191,23.8635066 138.465464,22.8365934 C138.486746,22.7255854 138.502352,22.6127927 138.520441,22.5014278 L138.520441,2.49857224 C138.503061,2.388992 138.488164,2.27905483 138.466883,2.16983152 C138.249457,1.04940034 137.331159,0.179897202 136.203592,0.0246287836 C136.156773,0.0185608224 136.111018,0.00820959452 136.064908,0 L116.133694,0 C116.013454,0.0217732724 115.892504,0.0381924615 115.774037,0.0653198172 C114.673427,0.317675614 113.859054,1.20966591 113.70228,2.33188178 C113.695896,2.37864078 113.686319,2.42504283 113.678161,2.47180183 L113.678161,22.529269 C113.700861,22.6563392 113.718951,22.7844803 113.747326,22.9108367 C113.990645,23.9937893 114.909297,24.8333095 116.002104,24.9746573 C116.054953,24.9810822 116.108157,24.9914335 116.161006,25 L136.037597,25 C136.166704,24.9778698 136.296167,24.9596659 136.423856,24.9318247 Z M116.365663,10.204169 C116.365663,13.9038407 116.365308,17.6035123 116.366018,21.3031839 C116.366018,21.8353798 116.823925,22.2929754 117.352771,22.2929754 C123.182491,22.2933324 129.011855,22.2933324 134.841575,22.2929754 C135.375386,22.2929754 135.830811,21.8360937 135.830811,21.2999714 C135.831166,17.6045831 135.830811,13.9095517 135.830811,10.2145203 L135.830811,10.1377784 L133.45934,10.1377784 C133.794169,11.214663 133.89703,12.3101085 133.765794,13.4266134 C133.633848,14.5434752 133.276318,15.5828812 132.693914,16.5426899 C132.111155,17.5035694 131.355661,18.2995431 130.430624,18.9331097 C128.032905,20.5764563 124.876145,20.7210166 122.331939,19.2839806 C121.045825,18.5583238 120.036017,17.5464021 119.331953,16.2425043 C118.28171,14.2968304 118.11394,12.254783 118.730041,10.1359937 C117.943333,10.1367076 117.159819,10.1367076 116.365663,10.1367076 L116.365663,10.204169 Z M121.065688,12.4232581 C121.025963,15.2577099 123.28074,17.5046402 125.983849,17.5631782 C128.796557,17.6238578 131.071552,15.362293 131.130786,12.6117219 C131.191438,9.7751285 128.917862,7.43218161 126.099478,7.4339663 C123.34423,7.43218161 121.10435,9.66304969 121.065688,12.4232581 Z M134.87598,6.41169332 C135.401988,6.39848658 135.830456,5.94481725 135.830456,5.41476299 C135.830811,4.6255711 135.830811,3.83602227 135.830456,3.04683038 C135.830456,2.4807253 135.385318,2.03026842 134.823485,2.02991148 C134.041389,2.02955454 133.259293,2.0291976 132.476842,2.02991148 C131.916429,2.03062536 131.469872,2.48215306 131.469517,3.04825814 C131.469162,3.83066819 131.467034,4.61307824 131.472354,5.39584523 C131.473064,5.51256425 131.495055,5.63392347 131.531943,5.74457453 C131.672401,6.16112222 132.051567,6.41669046 132.515859,6.4188321 C132.893251,6.41954597 133.270643,6.41847516 133.648391,6.41847516 C134.056996,6.41383495 134.46702,6.42168761 134.87598,6.41169332 Z" id="Path" fill="#E62A13"></path>
        <path d="M178.972323,7.3825867 C179.767214,8.3284064 182.802079,19.7489232 183.815128,21.8556818 C184.699329,23.7032229 187.138331,26.1457557 189.81301,24.4014651 C192.486131,22.6571187 201.375404,15.0198247 202.966632,6.00070837 C204.556468,-3.01555388 192.269475,-1.12682454 190.967976,6.72849875 C194.220888,4.7632129 195.957202,7.52702553 194.292625,10.6562163 C192.631051,13.7823852 191.11284,15.8213175 190.317838,15.8213175 C189.524394,15.8213175 188.913962,13.7292769 188.004848,10.0727529 C187.065037,6.29244011 187.070821,-0.516946835 183.163545,0.255053797 C179.478764,0.982844171 174.636015,6.80220116 174.636015,6.80220116 L175.792538,8.3284064 C175.792538,8.3284064 178.177377,6.43665509 178.972323,7.3825867 Z" id="Path" fill="#E62A13"></path>
        <path d="M252.078439,14.6337728 C251.277645,14.16054 250.164652,14.16054 249.260312,14.16054 L246.290768,14.16054 L246.290768,20.3717201 L249.016276,20.3717201 C250.025202,20.3717201 251.311988,20.4451346 252.181985,19.8250729 C252.980697,19.279482 253.432867,18.2083703 253.432867,17.1884903 C253.432867,16.2409684 252.877151,15.1070055 252.078439,14.6337728 L252.078439,14.6337728 Z M250.958161,9.32944606 C251.618984,8.81871382 251.965527,7.90816327 251.965527,7.06944268 C251.965527,6.15836397 251.548739,5.2837284 250.784369,4.81049563 C249.984616,4.33726286 248.522999,4.4465923 247.584317,4.4465923 L246.290768,4.4465923 L246.290768,9.9130646 L248.002145,9.9130646 C248.97569,9.91200828 250.124066,9.98542274 250.958161,9.32944606 L250.958161,9.32944606 Z M250.740661,25 L240.536398,25 L240.536398,0 L251.686107,0 C254.915818,0 257.895769,2.08676638 257.895769,5.7675244 C257.895769,8.60956184 256.332687,10.5558372 254.338768,11.1605822 L254.338768,11.2339967 C257.295304,11.8540584 259.406818,13.483965 259.406818,17.4161279 C259.406818,21.0551612 256.965412,25 250.740661,25 L250.740661,25 Z" id="VK" fill="#E62A13"></path>
    </g>
</svg>