<?xml version="1.0" encoding="UTF-8" standalone="no"?>
<svg width="50px" height="50px" viewBox="0 0 50 50" version="1.1" xmlns="http://www.w3.org/2000/svg" xmlns:xlink="http://www.w3.org/1999/xlink">
    <!-- Generator: Sketch 3.7.1 (28215) - http://www.bohemiancoding.com/sketch -->
    <title>Oval-50</title>
    <desc>Created with Sketch.</desc>
    <defs></defs>
    <g id="Symbols" stroke="none" stroke-width="1" fill="none" fill-rule="evenodd">
        <g id="Oval-50">
            <circle fill="#E62A13" cx="25" cy="25" r="25"></circle>
            <path d="M36.034589,18.1304069 C35.223381,18.4920151 34.352536,18.7361367 33.437861,18.84616 C34.371457,18.2837653 35.088299,17.3932269 35.426003,16.3322366 C34.552284,16.8527406 33.584678,17.2309606 32.5552797,17.4348768 C31.7306591,16.5515609 30.5554012,16 29.2555999,16 C26.7589852,16 24.7349166,18.0343472 24.7349166,20.5439371 C24.7349166,20.900008 24.7746746,21.2469304 24.8517957,21.5794078 C21.0948982,21.3901774 17.7628851,19.5809325 15.5340385,16.8315544 C15.1448406,17.5027686 14.9216206,18.2832838 14.9216206,19.1160421 C14.9216206,20.6924805 15.719656,22.0830591 16.9325164,22.8982425 C16.1919626,22.8746489 15.49452,22.6707327 14.8849762,22.3303106 C14.8844972,22.3490892 14.8844972,22.3678677 14.8844972,22.3871278 C14.8844972,24.5890378 16.4432048,26.4254875 18.5108636,26.84295 C18.1319645,26.9469545 17.7324678,27.002568 17.3197983,27.002568 C17.028798,27.002568 16.7459409,26.9741594 16.469311,26.9209534 C17.0446054,28.7261054 18.7146836,30.0401252 20.6925275,30.0764786 C19.1450766,31.2954017 17.196213,32.0219886 15.0782578,32.0219886 C14.7134896,32.0219886 14.353751,32.000321 14,31.957708 C16.0003575,33.2474119 18.3760215,34 20.9298783,34 C29.2448221,34 33.792091,27.0752749 33.792091,21.0702191 C33.792091,20.8737662 33.78778,20.677554 33.778918,20.4823048 C34.661978,19.8423883 35.428159,19.0421315 36.034589,18.1304069 L36.034589,18.1304069 L36.034589,18.1304069 Z" id="Twitter" fill="#FFFFFF"></path>
        </g>
    </g>
</svg>