
<svg width="26px" height="21px" viewBox="0 1 26 21" version="1.1" xmlns="http://www.w3.org/2000/svg" xmlns:xlink="http://www.w3.org/1999/xlink">
    <!-- Generator: Sketch 3.7.2 (28276) - http://www.bohemiancoding.com/sketch -->
    <desc>Created with Sketch.</desc>
    <defs></defs>
    <path d="M25.2943367,3.42304457 C24.3631202,3.83432414 23.363444,4.11197893 22.3134541,4.23711526 C23.3851642,3.59746873 24.2080549,2.58460379 24.5957181,1.37787338 C23.5927427,1.969875 22.4819914,2.40004824 21.300306,2.63197487 C20.3536929,1.62732457 19.00457,1 17.512479,1 C14.6465207,1 12.3230159,3.31378988 12.3230159,6.16810297 C12.3230159,6.57308466 12.3686557,6.96766113 12.4571859,7.34580833 C8.14450148,7.1305848 4.31955787,5.07281783 1.76098072,1.94577873 C1.31420576,2.70919247 1.05796313,3.59692109 1.05796313,4.54406892 C1.05796313,6.33705071 1.97405802,7.91864246 3.36634629,8.84580134 C2.51623663,8.81896686 1.71561588,8.58704023 1.01589755,8.19985693 C1.01534767,8.22121499 1.01534767,8.24257305 1.01534767,8.26447875 C1.01534767,10.7688482 2.80464705,12.857557 5.17819063,13.3323631 C4.74323801,13.4506539 4.28464069,13.5139066 3.81092175,13.5139066 C3.47687154,13.5139066 3.15216924,13.4815957 2.83461534,13.4210812 C3.49501748,15.4741932 5.41216324,16.9687098 7.6826049,17.0100568 C5.90622762,18.396414 3.66905352,19.2228067 1.23777287,19.2228067 C0.81904162,19.2228067 0.40608408,19.1981627 0,19.1496964 C2.29628587,20.616557 5.02340028,21.4725224 7.9550689,21.4725224 C17.5001068,21.4725224 22.7200881,13.5966007 22.7200881,6.76667631 C22.7200881,6.54323814 22.7151392,6.32007379 22.7049665,6.09800473 C23.7186645,5.37018774 24.5981926,4.46000579 25.2943367,3.42304457 L25.2943367,3.42304457 Z" id="Twitter" stroke="none" fill="#000000" fill-rule="evenodd"></path>
</svg>