
<svg width="33px" height="19px" viewBox="0 4 33 19" version="1.1" xmlns="http://www.w3.org/2000/svg" xmlns:xlink="http://www.w3.org/1999/xlink">
    <!-- Generator: Sketch 3.7.2 (28276) - http://www.bohemiancoding.com/sketch -->
    <desc>Created with Sketch.</desc>
    <defs></defs>
    <path d="M32.0559676,20.4058856 C31.494922,19.3982355 30.4227788,18.1614163 28.8401866,16.6950752 L28.7900027,16.6450308 C28.0378336,15.9453506 27.5829939,15.4862479 27.3925191,15.2511982 C27.0440032,14.8034452 26.9659263,14.3502232 27.1564011,13.8910029 C27.2909718,13.5440443 27.7964672,12.8113148 28.6717078,11.6918147 C29.1320908,11.0985155 29.4967055,10.6230058 29.765965,10.2647563 C31.7079235,7.69020595 32.5498458,6.04503415 32.2915549,5.32859406 L32.191246,5.16117184 C32.1238427,5.06037743 31.9498796,4.96816877 31.6695927,4.88407542 C31.3886571,4.80015848 31.0295855,4.78628014 30.5917293,4.84220516 L25.7429364,4.87560727 C25.6643877,4.84785059 25.5522257,4.85043807 25.4060968,4.88407542 C25.2601447,4.91771276 25.1871392,4.93459023 25.1871392,4.93459023 L25.1027523,4.97663691 L25.0357618,5.02715173 C24.9796219,5.06055385 24.9178797,5.11930158 24.8504764,5.20327732 C24.7834269,5.28695903 24.7273459,5.38516595 24.6825283,5.4970748 C24.1546242,6.85144825 23.5544221,8.11067272 22.8808017,9.2746894 C22.4654723,9.96878301 22.0840509,10.5703151 21.735712,11.0796386 C21.3878448,11.5887856 21.0959997,11.9639125 20.8604714,12.2043725 C20.6245892,12.4450677 20.4117056,12.6378943 20.2205232,12.7835581 C20.0296355,12.9292807 19.8839194,12.9908512 19.7830208,12.9683283 C19.6818863,12.9458054 19.5866489,12.9234589 19.496483,12.9011124 C19.3394445,12.800318 19.2131296,12.6632399 19.1178922,12.4897606 C19.022242,12.3162813 18.9578462,12.0979326 18.924174,11.834891 C18.8906787,11.5716729 18.8708646,11.3452677 18.8652035,11.1549109 C18.8599551,10.9647894 18.8623729,10.6958671 18.8737542,10.3489085 C18.8854303,10.0017735 18.8906787,9.76690015 18.8906787,9.64375925 C18.8906787,9.21835273 18.8989936,8.75666258 18.9156822,8.25857117 C18.9326657,7.76047977 18.9464059,7.36582907 18.9579051,7.07508953 C18.9693454,6.78405596 18.9746528,6.47614491 18.9746528,6.1515328 C18.9746528,5.82692069 18.9548387,5.57234717 18.9156822,5.38757702 C18.8769976,5.2030421 18.8176142,5.02391737 18.7393603,4.85026165 C18.6606347,4.67678236 18.5454063,4.54258583 18.3942058,4.44731923 C18.2427105,4.35217025 18.0543587,4.27666265 17.8302117,4.22056121 C17.235258,4.08630588 16.4776636,4.0136798 15.5570746,4.00238894 C13.4694589,3.98004246 12.1280562,4.11447421 11.5331615,4.40550778 C11.2974563,4.52847226 11.0841599,4.69648255 10.8934492,4.90900939 C10.6913572,5.15534999 10.6631693,5.28978174 10.8090624,5.311893 C11.4826238,5.412511 11.9594595,5.65320617 12.2401002,6.0337433 L12.3412347,6.23539093 C12.4199014,6.38087831 12.4984501,6.63845096 12.5770578,7.00775604 C12.6555476,7.37706112 12.7062033,7.78559016 12.7284942,8.23310794 C12.7845162,9.05034245 12.7845162,9.74990506 12.7284942,10.3318546 C12.6722952,10.9140394 12.6192218,11.3672614 12.5685661,11.6918735 C12.5179104,12.0164856 12.4421922,12.2795272 12.3412347,12.4809396 C12.2401002,12.6824109 12.1728149,12.8055518 12.1390837,12.8502447 C12.1054115,12.8949377 12.0773416,12.923106 12.0550507,12.9341617 C11.9091576,12.9899103 11.7574264,13.0183138 11.6003879,13.0183138 C11.4431135,13.0183138 11.2524028,12.9398659 11.027961,12.7830877 C10.8035781,12.6263094 10.5707035,12.4109599 10.3293371,12.1366862 C10.0879707,11.8623536 9.81576275,11.4789938 9.51259525,10.9865478 C9.20966363,10.4941018 8.89535071,9.9120935 8.56983338,9.2405228 L8.30051497,8.75348703 C8.1321541,8.44016577 7.90216903,7.98394463 7.61032388,7.38523523 C7.31830181,6.78629061 7.0601878,6.20692856 6.83580493,5.64726671 C6.74611075,5.41221696 6.61136309,5.23326866 6.43179782,5.11012776 L6.34752894,5.05961294 C6.29150693,5.01491997 6.20157687,4.96746309 6.07821052,4.91688947 C5.95466726,4.86637465 5.82575768,4.83014982 5.69095105,4.80786214 L1.07774542,4.84126425 C0.606334995,4.84126425 0.286478837,4.9477629 0.118059002,5.16046616 L0.0506556857,5.26108415 C0.0169835128,5.31712679 0,5.40663034 0,5.52983005 C0,5.65297094 0.0336721729,5.80410375 0.101075489,5.98305206 C0.774518948,7.56141963 1.50687397,9.08362695 2.29814055,10.5499092 C3.08940712,12.0161915 3.77700351,13.1973209 4.36051691,14.0922389 C4.94414825,14.9878037 5.53904296,15.8330301 6.14520105,16.6275065 C6.75135913,17.4222769 7.15259462,17.9316003 7.34890751,18.1553592 C7.54545629,18.3795298 7.69984114,18.5471284 7.81206206,18.6590373 L8.23305268,19.0619209 C8.50243006,19.330608 8.89800438,19.6523974 9.41995255,20.0272891 C9.94201865,20.402416 10.5199888,20.7717211 11.1541579,21.1357924 C11.7884449,21.4992756 12.5263432,21.7958958 13.3682654,22.0253001 C14.2100698,22.2549396 15.0294063,22.3470895 15.826393,22.3026318 L17.7626314,22.3026318 C18.1553162,22.268818 18.4528225,22.1456771 18.6550325,21.9331503 L18.722023,21.8489981 C18.7670765,21.7821939 18.8092404,21.6784003 18.848161,21.5387348 C18.8875533,21.398834 18.9071315,21.2447021 18.9071315,21.0770446 C18.8956322,20.5958307 18.9323709,20.1621325 19.0163449,19.7760087 C19.10026,19.3900026 19.1959102,19.098969 19.3028827,18.9029668 C19.4097963,18.707141 19.53045,18.5418946 19.6647259,18.4079333 C19.7992967,18.273678 19.8951827,18.1923485 19.9514406,18.1643566 C20.0073447,18.1361883 20.0519854,18.1170762 20.0856576,18.1056089 C20.3550349,18.0161053 20.6720605,18.1027862 21.037206,18.3660631 C21.4020567,18.6291047 21.7442627,18.9538933 22.0643547,19.3398994 C22.3842699,19.7262584 22.7686398,20.1597214 23.2175235,20.6409353 C23.666702,21.1223257 24.0594457,21.4801635 24.3960495,21.7155661 L24.7326533,21.9170373 C24.957449,22.051469 25.2492941,22.1746099 25.6085426,22.2865188 C25.9671424,22.3983688 26.2813374,22.4263607 26.5511275,22.3704357 L30.8611067,22.3033962 C31.2874047,22.3033962 31.6191139,22.2330048 31.8544063,22.0933393 C32.0901705,21.9534385 32.2302255,21.7993066 32.2753969,21.6316491 C32.3204504,21.4638152 32.3228682,21.2733997 32.2839477,21.06052 C32.2440246,20.8481696 32.2046913,20.699683 32.1655348,20.6157661 C32.1263784,20.531614 32.0898757,20.4618106 32.0559676,20.4058856 Z" id="Shape" stroke="none" fill="#000000" fill-rule="evenodd"></path>
</svg>