<?xml version="1.0" encoding="UTF-8" standalone="no"?>
<svg width="50px" height="50px" viewBox="0 0 50 50" version="1.1" xmlns="http://www.w3.org/2000/svg" xmlns:xlink="http://www.w3.org/1999/xlink">
    <!-- Generator: Sketch 3.7.1 (28215) - http://www.bohemiancoding.com/sketch -->
    <title>Oval-50</title>
    <desc>Created with Sketch.</desc>
    <defs></defs>
    <g id="Symbols" stroke="none" stroke-width="1" fill="none" fill-rule="evenodd">
        <g id="Oval-50">
            <circle fill="#E62A13" cx="25" cy="25" r="25"></circle>
            <path d="M38.531475,31.3755332 C38.067119,30.5540074 37.179748,29.5456427 35.869898,28.3501514 L35.828363,28.3093508 C35.205822,27.7389094 34.829369,27.3646082 34.67172,27.1729748 C34.383267,26.8079268 34.318646,26.43842 34.476294,26.0640229 C34.587673,25.7811515 35.006052,25.1837654 35.730455,24.2710496 C36.111496,23.7873395 36.413273,23.3996618 36.636129,23.1075851 C38.243412,21.0085832 38.940238,19.6672932 38.726461,19.0831877 L38.643439,18.9466903 C38.587652,18.8645137 38.44367,18.7893371 38.211687,18.7207767 C37.979168,18.6523602 37.681978,18.6410453 37.319582,18.6866404 L33.306425,18.7138727 C33.241413,18.691243 33.148581,18.6933526 33.027636,18.7207767 C32.906837,18.7482008 32.846413,18.7619609 32.846413,18.7619609 L32.776569,18.796241 L32.721124,18.8374252 C32.674659,18.8646576 32.623558,18.9125539 32.56777,18.9810184 C32.512276,19.0492432 32.46586,19.1293102 32.428766,19.2205482 C31.991841,20.3247535 31.495077,21.351385 30.937548,22.3003947 C30.593796,22.8662814 30.278108,23.3567037 29.989801,23.7719494 C29.701885,24.1870512 29.460336,24.4928879 29.265399,24.6889322 C29.070168,24.8851683 28.893973,25.0423776 28.735739,25.1611357 C28.577748,25.2799417 28.457145,25.3301394 28.373635,25.3117767 C28.28993,25.293414 28.211106,25.2751952 28.136479,25.2569764 C28.006504,25.1747998 27.901958,25.0630416 27.823134,24.9216059 C27.743968,24.7801702 27.69067,24.602153 27.662801,24.3876981 C27.635078,24.1730994 27.618679,23.9885138 27.613993,23.8333181 C27.60965,23.6783141 27.611651,23.4590648 27.621071,23.1761934 C27.630734,22.8931781 27.635078,22.7016885 27.635078,22.6012932 C27.635078,22.254464 27.64196,21.8780533 27.655773,21.471965 C27.669829,21.0658767 27.681201,20.7441224 27.690719,20.5070858 C27.700188,20.2698094 27.70458,20.018773 27.70458,19.7541204 C27.70458,19.4894678 27.688181,19.2819169 27.655773,19.1312759 C27.623755,18.9808266 27.574606,18.8347883 27.509838,18.6932087 C27.44468,18.551773 27.34931,18.4423641 27.224167,18.3646943 C27.09878,18.2871204 26.942889,18.2255599 26.757371,18.1798211 C26.264951,18.0703642 25.63792,18.011153 24.875984,18.0019477 C23.148146,17.9837288 22.037919,18.0933295 21.545548,18.3306059 C21.350464,18.4308575 21.173927,18.5678344 21.016083,18.7411051 C20.84882,18.9419438 20.825489,19.0515445 20.94624,19.0695715 C21.50372,19.1516043 21.898378,19.3478403 22.130654,19.6580879 L22.214359,19.822489 C22.279468,19.9411032 22.34448,20.1510993 22.40954,20.4521895 C22.474503,20.7532798 22.516429,21.0863489 22.534878,21.4512051 C22.581246,22.1174871 22.581246,22.6878326 22.534878,23.1622895 C22.488365,23.6369382 22.444438,24.006445 22.402512,24.2710976 C22.360586,24.5357501 22.297917,24.750205 22.214359,24.9144143 C22.130654,25.0786715 22.074964,25.1790669 22.047046,25.2155045 C22.019177,25.2519422 21.995945,25.2749075 21.977495,25.2839211 C21.856745,25.3293723 21.731163,25.3525294 21.601189,25.3525294 C21.471019,25.3525294 21.313175,25.2885717 21.127413,25.1607521 C20.9417,25.0329326 20.748959,24.8573606 20.54919,24.6337483 C20.34942,24.4100881 20.124124,24.0975392 19.873204,23.6960535 C19.62248,23.2945679 19.362335,22.820063 19.092917,22.272539 L18.870013,21.8754643 C18.730667,21.620017 18.540317,21.248065 18.298768,20.759944 C18.057073,20.2716313 17.843442,19.7992839 17.657729,19.3429979 C17.583493,19.1513645 17.471967,19.00547 17.323348,18.9050746 L17.253602,18.8638905 C17.207235,18.8274528 17.132803,18.7887617 17.030698,18.7475296 C16.928446,18.7063455 16.821753,18.6768118 16.710178,18.6586409 L12.892008,18.6858732 C12.50184,18.6858732 12.237107,18.7727004 12.097713,18.946115 L12.041926,19.0281477 C12.014057,19.0738386 12,19.1468098 12,19.2472532 C12,19.3476485 12.027869,19.4708654 12.083656,19.6167599 C12.641039,20.9035852 13.247181,22.1446236 13.902081,23.340067 C14.556982,24.5355104 15.126079,25.4984719 15.60903,26.2280883 C16.092079,26.9582322 16.58445,27.6473358 17.086143,28.2950634 C17.587837,28.9430307 17.919924,29.3582764 18.082404,29.5407045 C18.24508,29.7234682 18.372858,29.8601095 18.465739,29.9513475 L18.814177,30.2798139 C19.03713,30.4988715 19.364531,30.7612227 19.796527,31.0668677 C20.228621,31.3727045 20.706985,31.6737947 21.231862,31.9706179 C21.756836,32.2669617 22.367566,32.5087928 23.064392,32.6958235 C23.761121,32.8830461 24.439254,32.9581748 25.098889,32.9219289 L26.701438,32.9219289 C27.026447,32.8943609 27.272682,32.7939655 27.440043,32.6206948 L27.495489,32.5520865 C27.532778,32.4976218 27.567675,32.4130001 27.599888,32.2991323 C27.632491,32.1850728 27.648696,32.0594108 27.648696,31.9227216 C27.639178,31.5303933 27.669585,31.176804 27.739087,30.8620017 C27.808541,30.5472952 27.887706,30.3100189 27.976243,30.1502205 C28.064732,29.9905659 28.164592,29.8558424 28.275727,29.7466253 C28.387106,29.6371684 28.466467,29.5708614 28.51303,29.54804 C28.559299,29.5250746 28.596247,29.5094927 28.624116,29.5001436 C28.847069,29.4271724 29.109459,29.4978423 29.411675,29.7124889 C29.713648,29.9269438 29.996878,30.1917402 30.261806,30.5064467 C30.526587,30.8214408 30.844715,31.1748383 31.216239,31.5671666 C31.588007,31.9596387 31.913065,32.2513798 32.191659,32.4433009 L32.470253,32.6075581 C32.656307,32.7171588 32.897856,32.8175541 33.195192,32.9087922 C33.491991,32.9999822 33.752038,33.0228037 33.975333,32.9772087 L37.542535,32.9225522 C37.895365,32.9225522 38.169908,32.8651628 38.36465,32.7512951 C38.559783,32.6372356 38.675701,32.5115736 38.713088,32.3748843 C38.750377,32.2380513 38.752378,32.0828076 38.720165,31.9092492 C38.687122,31.7361223 38.654567,31.6150629 38.622159,31.5466464 C38.589751,31.4780381 38.559539,31.4211282 38.531475,31.3755332 L38.531475,31.3755332 Z" id="Shape" fill="#FFFFFF"></path>
        </g>
    </g>
</svg>